<?xml version="1.0" encoding="UTF-8"?>
<svg id="Layer_2" data-name="Layer 2" xmlns="http://www.w3.org/2000/svg" viewBox="0 0 139.5 178.68">
  <g id="Layer_1-2" data-name="Layer 1">
    <path d="M26.2,1.26c-5.6,1.7-7.5,3.5-13.2,12.1C5.6,24.66,3.5,32.56,3.6,48.76c0,12,.3,14.2,2.6,20.2,5.7,15.1,16.1,27.5,28.4,34.1l6.9,3.6-4.7,.1c-6.6,0-17.4,3.7-23,7.9-4.8,3.5-10.5,11.7-12.7,18-.6,1.9-1.1,6.6-1.1,10.5,.1,16.6,10.6,30,26.8,34.1,5.4,1.4,12,1.6,45.5,1.3,38-.3,39.4-.4,44.9-2.6,8-3.2,15-9.9,19-18,3-6,3.3-7.5,3.3-15.7,0-7.7-.4-9.8-2.7-14.7-5.7-12.3-17.1-19.8-31.1-20.6l-7.8-.5,6.9-3.3c17.5-8.5,30.5-29,31.9-50.3,1-15.5-2.3-27.9-10.9-40.7C117.5-.24,120.1,.26,71.5,.06,39.1-.14,29.6,.16,26.2,1.26ZM115.3,6.66c3.7,2.4,8.7,9.4,12.1,17,10.2,22.8,5.5,49-12,66.4-10.4,10.3-24,15.6-42.4,16.4-12.7,.6-20.1-.7-32.5-5.4-9.4-3.6-21.5-15.3-26.9-26C3.3,54.46,5.2,31.06,18.7,12.46c5.8-8,3.5-7.6,51.3-7.7,39.9,0,42.7,.1,45.3,1.9Zm1.8,107.2c19.9,9.4,24.7,34.7,9.5,50.3-9,9.3-9.3,9.4-57.1,9.8l-41,.3-5.6-2.6c-18.6-8.8-24.5-31.7-12.4-48.1,1.9-2.6,5.3-6,7.5-7.4,7.2-4.8,12.1-5.3,54.5-5.1l39,.2,5.6,2.6Z"/>
    <path d="M42,8.46c-5.5,3.7-7.1,8.8-4.6,14.6,2.1,5.1,6.9,7.9,12.4,7.4,10.6-1.1,14.6-13.6,6.6-20.7-4.1-3.5-10.4-4.1-14.4-1.3Zm12.9,2.4c5,4.7,5,11.1-.1,15.4-3.9,3.3-8.7,3.3-12.6,0-7.5-6.3-3.4-17.4,6.4-17.5,2.7,0,4.7,.7,6.3,2.1Z"/>
    <path d="M45.8,14.86c-3.6,2.1-1.6,7.9,2.7,7.9s6.3-6,2.6-8c-2.4-1.2-3.1-1.2-5.3,.1Zm5,3.7c.3,1.8-.1,2.2-2.2,2.2-1.9,0-2.6-.5-2.6-1.8,0-3.9,4.3-4.3,4.8-.4Z"/>
    <path d="M82.2,9.56c-1.7,1.6-3.4,4.1-3.8,5.6-1.7,7.1,3.1,14.3,10.3,15.3,7.7,1,13.3-4.3,13.3-12.8,0-3.3-.6-4.7-3.4-7.5-3-3-4-3.4-8.4-3.4-4.1,0-5.5,.5-8,2.8Zm14.9,2.1c4.8,4.9,3.8,12.5-2.1,15.6-4.6,2.4-7.8,1.9-11.6-1.9s-4.3-7-1.9-11.6c1.9-3.7,4.1-4.9,8.8-5,2.9,0,4.5,.7,6.8,2.9Z"/>
    <path d="M86.5,16.16c-3,4.5,2,9.1,6.4,5.9,2.5-1.7,2.7-4.6,.5-6.7-2.3-2.3-5.1-2-6.9,.8Zm6.1,1.1c.8,2-1.3,4.5-3.2,3.8-1.4-.5-1.9-3.4-.7-4.6,1.1-1.2,3.3-.7,3.9,.8Z"/>
    <path d="M23,31.46c-6,2.3-11,9.4-11,15.8,0,13.6,16,21.8,26.9,13.7,9.6-7.1,8.5-22.9-2-28.2-3.6-1.9-10.6-2.5-13.9-1.3Zm13,3.1c2.3,1.2,4.3,3.5,5.8,6.5,3.1,6,2.4,11.3-2.2,16.1-11.7,12.4-31.5-1.2-23.8-16.4,3.6-7.3,12.7-10.1,20.2-6.2Z"/>
    <path d="M24.6,43.96c-.9,1.2-1.6,3-1.6,3.9,0,2.3,3.3,4.9,6.2,4.9,3.1,0,5.1-2.1,5.1-5.7,0-5-6.8-7.2-9.7-3.1Zm7.3,1.7c1.3,2.4-.8,5.5-3.4,5-2.8-.6-4.2-3.4-2.6-5.3,1.8-2.2,4.8-2,6,.3Z"/>
    <path d="M60.9,33.06c-5.3,3.6-7.9,8.2-7.9,14.1,0,11.3,10.1,19.4,20.5,16.5,5.4-1.5,7.8-3.3,10.3-7.8,6.4-11.4-1.4-25.1-14.3-25.1-3.8,0-6.1,.6-8.6,2.3Zm15,1.2c5.4,2.7,8.1,7.1,8.1,12.8,0,9.3-5.4,14.7-14.6,14.7-8.5,0-14.4-6-14.4-14.7,0-10.3,11.8-17.6,20.9-12.8Z"/>
    <path d="M65.7,43.56c-3.6,3.9-1,9.2,4.3,9.2,4.7,0,6.8-6.1,3.2-9.3-2.4-2.2-5.5-2.1-7.5,.1Zm6.3,1.7c2,2.5,.8,5-2.5,5-2.1,0-3.1-.5-3.3-1.8-.4-2.1,1.4-4.7,3.3-4.7,.7,0,1.8,.7,2.5,1.5Z"/>
    <path d="M101.5,33.16c-5.4,3.3-7.9,7.8-7.9,14.1,0,14.7,16.3,22.2,27.5,12.8,8.2-6.9,7.6-20.1-1.3-26.4-4.8-3.5-13.1-3.7-18.3-.5Zm16.6,1.9c9.1,6,9,18.1-.2,24.9-3.4,2.6-10.8,2.6-15.2,.1s-8-9.9-7.2-14.6c2.1-10.9,13.8-16.3,22.6-10.4Z"/>
    <path d="M106.8,42.86c-2.1,1.2-2.4,6.9-.6,8.7s6.3,1.4,8.1-.6c4.5-5-1.7-11.5-7.5-8.1Zm6.3,2.5c.9,1.1,1,2,.2,3.2-1.5,2.4-4.4,2.7-5.9,.7-2.8-3.8,2.7-7.5,5.7-3.9Z"/>
    <path d="M41,67.96c-7.1,4.8-10,13.5-7.1,21.1,1.6,4.1,6.9,8.5,11.4,9.5,18.4,3.7,28.6-18.9,13.5-30.1-1.8-1.3-4.8-2.2-8.5-2.5-4.9-.3-6.4,0-9.3,2Zm15.8,1.8c5.1,3.1,7.4,7.6,6.9,13.6-.6,8.4-5.9,13.4-14.2,13.4-9,0-14.5-5.6-14.5-14.8,0-4.3,.5-5.7,3.2-8.8,1.8-2,4.1-4,5.2-4.4,3.8-1.5,10-1.1,13.4,1Z"/>
    <path d="M45.7,78.56c-3.4,3.7-1.1,9.2,3.8,9.2s7.3-6,3.7-9.3c-2.4-2.2-5.5-2.1-7.5,.1Zm6.3,1.7c2,2.5,.8,5-2.5,5-3.1,0-4.3-2-3.1-5.1,.7-1.8,4-1.8,5.6,.1Z"/>
    <path d="M82.8,67.76c-7.4,4-10.5,13.4-7,21.3,5.2,11.8,20.9,13.6,28.7,3.2,5.4-7,3.9-17.8-3.2-23.2-4.7-3.6-13.2-4.2-18.5-1.3Zm16.2,2.2c8.4,5.8,9.1,16.8,1.6,23.7-3.4,3.2-11.9,4.1-16.4,1.7-6.7-3.5-9.5-10.9-6.7-18.1,3.3-8.8,14-12.4,21.5-7.3Z"/>
    <path d="M87.1,78.66c-2.5,2.5-2.6,3.9-.5,6.9,2.2,3.2,6.9,3,9.1-.4,1.5-2.4,1.5-2.9,.2-5.3-1.9-3.4-6.1-3.9-8.8-1.2Zm7,1.7c1.7,2.1,0,4.9-3.2,4.9-2.4,0-3.6-2.3-2.5-5.1,.7-1.9,4-1.8,5.7,.2Z"/>
    <path d="M23.5,116.56c-6.9,3.4-13.6,10.1-15.6,15.8-2.2,6.4-1.7,17.1,1,22.7,8.8,18.1,32.4,22.2,46.5,8.1,11.3-11.3,11.4-29.6,.1-40.9-5.4-5.3-11-7.8-19-8.2-6.2-.4-7.7-.1-13,2.5Zm24.6,2.8c8.6,4.7,13.7,13.4,13.7,23.4,0,10.8-5.2,19.1-15.2,24-5.9,2.9-7.2,3.2-13,2.8-19.6-1.6-31.1-20.8-22.7-38.3,6.7-14.2,23.2-19.5,37.2-11.9Z"/>
    <path d="M27.9,135.66c-2.3,2.3-2.9,3.8-2.9,7.1s.6,4.8,2.9,7.1c6.5,6.4,17.1,2,17.1-7.1,0-3.3-.6-4.8-2.9-7.1s-3.8-2.9-7.1-2.9-4.8,.6-7.1,2.9Zm12.8,1.3c5.2,4.9,1.5,13.8-5.7,13.8-4.2,0-6.6-2.1-8-6.9-2-7.1,8-12.2,13.7-6.9Z"/>
    <path d="M92.5,116.06c-22.3,10.9-22.7,41.6-.7,52.4,4.6,2.2,6.9,2.7,12.7,2.7,12-.1,20.4-5.3,25.6-15.9,2.9-6,3.1-7.1,2.7-14.2-.5-8.4-2-12.1-7-17.8-5.5-6.3-11-8.8-20.2-9.2-7-.4-8.8-.1-13.1,2Zm22.5,1.8c10.1,4.5,16,13.8,16,25,0,15.1-11.1,26.2-26.5,26.3-10.9,.1-19.2-5-24.2-14.9-3.4-6.6-3.6-15.9-.6-22.7,2.7-5.9,9.2-12.2,14.6-14.2,6.2-2.1,15.3-2,20.7,.5Z"/>
    <path d="M101,132.86c-3.9,1.6-5.9,3.9-6.6,7.6-1.8,9.5,9,16,16.4,9.8,3.9-3.2,4.8-7.2,2.8-11.9-1.1-2.6-2.6-4.1-5-5.1-4-1.7-4.2-1.7-7.6-.4Zm7.6,2.8c7.9,4.8,3,16.4-6.1,14.7-3.6-.7-6.5-4.4-6.5-8.3,0-3.6,4.5-8,8.5-8.2,.6-.1,2.4,.8,4.1,1.8Z"/>
  </g>
</svg>