<?xml version="1.0" encoding="UTF-8"?>
<svg id="Layer_2" data-name="Layer 2" xmlns="http://www.w3.org/2000/svg" viewBox="0 0 149.69 133.92">
  <g id="Layer_1-2" data-name="Layer 1">
    <path d="M31.82,1.02c-2.2,.6-6.4,4-11,8.6C.92,29.62-5.38,60.02,4.82,86.52c6.5,16.8,20.1,31.6,36.2,39.5,12.2,6,20.7,8,33.8,7.9,13.3,0,21.8-2,34-7.9,8.2-4,10.7-5.9,19-14.2,11.4-11.5,17.9-22.9,19.6-34.1,.3-1.9,.9-5.1,1.3-7,2.3-9.7,.4-26.5-4.4-38.1-5-12.4-15.3-25.2-24-29.7L115.32,.22,75.32,.02C48.62-.08,34.12,.22,31.82,1.02ZM114.42,5.22c13.7,4.1,27.6,25.5,30.5,47,1.9,14.6-.4,26.4-8.1,41.5-4.9,9.5-18.1,22.3-28.7,27.8-28.2,14.6-60.6,9.8-82.9-12.3C5.72,90.02-.58,64.02,7.92,38.42,12.42,24.82,25.22,8.02,33.32,5.22c6-2.1,74-2.1,81.1,0Z"/>
    <path d="M46.32,17.22c-5.4,5.3-1.6,14.5,6,14.5,4.3,0,8.5-3.7,8.5-7.4,0-8.3-9-12.7-14.5-7.1Zm10.5,1.5c4,4,1.4,11-4.2,11-4.2,0-6.8-2.5-6.8-6.6,0-5.7,6.9-8.5,11-4.4Z"/>
    <path d="M69.22,17.12c-5.7,4.8-2.2,14.6,5.2,14.6,4.6,0,6.3-.9,7.9-4.1,2.2-4.2,1.8-6.7-1.4-10-3.7-3.6-7.9-3.8-11.7-.5Zm10.9,2.8c3.8,5.2-.9,11.1-7.5,9.5-3.2-.8-5.1-4.9-3.8-8.1,1.9-5.2,8-5.9,11.3-1.4Z"/>
    <path d="M91.32,17.22c-5.3,5.2-1.9,14.5,5.2,14.5,4.5,0,6.2-.9,7.8-4.1,2.2-4.2,1.8-6.7-1.4-10-3.8-3.7-8.2-3.9-11.6-.4Zm10.2,1.7c4.3,4,1.8,10.8-3.9,10.8-4.2,0-6.8-2.5-6.8-6.6,0-5.8,6.3-8.3,10.7-4.2Z"/>
    <path d="M69.22,40.12c-5.4,4.6-2.9,12.8,4.2,14.2,4.5,.8,7.2-.2,8.9-3.6,2.2-4.3,1.8-6.8-1.4-10.1-3.7-3.6-7.9-3.8-11.7-.5Zm10.5,2.2c2.6,3.3,2.7,5.8,.1,8.4-3.1,3.1-8.2,2.7-10.3-.9-4.2-7.1,5.2-13.9,10.2-7.5Z"/>
    <path d="M35.12,49.62c-7.1,4.4-9.5,7.6-10.7,14.3-1.1,5.8,1,11.7,5.8,16.4,14.6,14.7,37.1,.9,31.6-19.5-2.8-10.3-17.7-16.6-26.7-11.2Zm18.3,2.4c4.7,3.1,7.4,8.6,7.4,15.4,0,7.9-2.4,11.7-9.6,15-8.8,4-17,1.8-22.1-5.9-3.6-5.4-3.7-12.5-.3-18.6,2.9-5.2,5.8-7.2,11.9-8.2,5.7-.9,8.7-.4,12.7,2.3Z"/>
    <path d="M42.12,56.52c-3.3,.2-4.7,.9-6.2,3.1-3.1,4.3-3.6,7.7-1.6,12.1,2,4.5,6.5,6.6,11.8,5.5,5.4-1.2,7.7-4.1,7.7-9.7,0-2.7-.5-5.8-1-6.9-1.5-2.8-5.9-4.5-10.7-4.1Zm5.7,2.7c7.1,3.7,6.5,12.1-1,16-4.1,2.1-9,.1-11.3-4.8-1.9-4-1.5-6,2.1-10,2.9-3,5.9-3.4,10.2-1.2Z"/>
    <path d="M97.02,49.82c-5.4,2.7-8.9,7.9-9.8,14.5-1.4,11.5,8,22.4,19.4,22.4,2.5,0,12.2-3.9,12.2-4.9,0-.3,1.3-2.1,2.9-3.9,3.8-4.3,4.7-9.6,2.7-16.4-1.6-5.7-6.1-10.9-10.9-12.7-4.6-1.8-11.8-1.3-16.5,1Zm16.6,1.3c1.5,.8,4.2,3,6.1,5,8.7,9,2.4,25.8-10.7,28.2-4.7,.9-13.7-2.1-16.3-5.4-3-3.9-5.1-12.1-4-16,1.4-4.7,4.8-9,8.9-11.2,4.4-2.3,12.2-2.6,16-.6Z"/>
    <path d="M101.72,56.82c-1.6,.6-3.5,2.7-4.9,5.3-1.9,3.9-2.1,4.9-1.1,7.9,1.4,4.1,4.9,6.7,10,7.4,2.9,.4,4.3-.1,7.4-2.7,3-2.5,3.7-3.8,3.7-6.6,0-4.7-2.4-9-6-10.9-3.3-1.7-5.3-1.8-9.1-.4Zm10.7,4.3c2.9,2.9,3.3,3.8,2.8,6.7-1,5.3-4,7.9-9,7.9-2.6,0-4.9-.6-5.9-1.7-4.5-4.4-4-11.4,.9-14.4,4.5-2.7,7.3-2.4,11.2,1.5Z"/>
    <path d="M69.22,89.62c-4.8,2.2-7.4,6.8-7.4,13.1,0,3.6,.6,4.8,3.9,8.1s4.4,3.9,8.6,3.9c3,0,6-.7,8-2,3.8-2.4,6.6-8.4,5.9-12.7-.9-4.8-5.1-9.9-9.3-11.2-4.9-1.4-4.8-1.4-9.7,.8Zm12.9,2.9c8.4,7.4,3.4,20.2-7.9,20.2-5.2,0-10.4-5.3-10.4-10.7s1.9-8.5,5.8-10.5c4-1.9,9.8-1.5,12.5,1Z"/>
    <path d="M41.42,95.22c-1.9,1.8-2.6,3.4-2.6,6.2,.1,8.6,9.1,12.4,15.1,6.4,3.7-3.7,3.8-7.9,.3-12-3.4-4-8.8-4.3-12.8-.6Zm10.7,.7c.9,.7,2,2.7,2.3,4.5,1.2,6.3-7.1,10.8-11.6,6.3-2-2-2.7-7.4-1.2-9.6,1.6-2.5,7.8-3.1,10.5-1.2Z"/>
    <path d="M96.52,94.72c-3.4,2.7-4.3,7-2.3,10.9,2.9,5.5,9.5,6.9,14.1,2.8,6.3-5.4,2.7-15.7-5.5-15.7-2.2,0-4.8,.8-6.3,2Zm12.9,5.2c1.2,5.7-4.8,10.4-10.2,7.9-6.1-2.7-4.6-11.9,2.1-13.3,3.1-.7,7.3,2.2,8.1,5.4Z"/>
  </g>
</svg>
