<svg id="svg" xmlns="http://www.w3.org/2000/svg" xmlns:xlink="http://www.w3.org/1999/xlink" width="400" height="333.5347432024169" viewBox="0, 0, 400,333.5347432024169"><g id="svgg"><path id="path0" d="M118.127 53.219 C 105.129 56.706,96.600 65.295,93.573 77.946 C 91.855 85.124,91.883 238.535,93.604 245.158 C 96.650 256.887,105.288 265.383,117.805 268.963 C 123.351 270.549,282.948 270.734,288.729 269.161 C 300.688 265.908,309.883 256.775,313.037 245.015 C 314.772 238.543,314.809 84.294,313.077 77.644 C 309.762 64.921,301.308 56.600,288.218 53.177 C 281.314 51.372,124.868 51.410,118.127 53.219 M288.366 60.498 C 297.194 63.495,302.986 69.325,305.759 78.004 C 307.636 83.881,307.618 238.229,305.740 244.111 C 302.937 252.883,297.658 258.363,288.822 261.671 L 284.894 263.142 203.323 263.142 L 121.752 263.142 117.825 261.671 C 110.280 258.846,106.011 255.012,102.306 247.734 L 100.000 243.202 99.838 162.254 C 99.681 83.512,99.708 81.212,100.848 77.836 C 103.809 69.068,111.427 61.864,119.940 59.782 C 120.937 59.538,158.390 59.310,203.170 59.276 L 284.587 59.215 288.366 60.498 M136.329 83.164 C 130.904 84.830,127.685 87.570,124.712 93.051 C 123.605 95.092,123.565 97.489,123.565 161.027 L 123.565 226.888 125.198 229.984 C 127.609 234.554,131.505 237.706,136.418 239.060 C 142.826 240.827,263.993 240.791,270.291 239.021 C 275.221 237.635,279.281 234.329,281.578 229.831 L 283.082 226.888 283.082 161.027 C 283.082 97.489,283.041 95.092,281.935 93.051 C 278.905 87.465,275.734 84.813,270.074 83.133 C 265.341 81.727,140.913 81.756,136.329 83.164 M269.964 90.576 C 277.101 94.236,276.737 90.428,276.737 161.425 C 276.737 229.595,277.003 225.437,272.370 229.755 C 268.481 233.380,270.719 233.274,202.000 233.095 L 138.671 232.931 136.546 231.609 C 129.509 227.232,129.909 231.491,129.909 161.027 C 129.909 90.617,129.560 94.322,136.556 90.603 C 139.893 88.830,266.508 88.804,269.964 90.576 M193.488 109.702 C 192.157 110.634,192.145 110.789,192.145 126.788 C 192.145 147.369,191.132 145.619,203.055 145.619 C 215.557 145.619,214.502 147.343,214.502 126.922 C 214.502 107.034,215.565 108.761,203.323 108.761 C 196.615 108.761,194.549 108.959,193.488 109.702 M206.082 116.033 C 207.497 116.791,207.923 137.278,206.541 138.132 C 205.265 138.920,200.530 138.620,199.956 137.714 C 198.834 135.942,199.275 116.747,200.453 116.060 C 201.832 115.257,204.607 115.244,206.082 116.033 M157.704 177.216 C 155.415 178.373,155.011 195.995,157.234 197.706 C 158.995 199.061,181.106 199.315,183.686 198.010 L 185.196 197.245 185.196 187.613 L 185.196 177.981 183.686 177.217 C 181.569 176.146,159.822 176.146,157.704 177.216 M223.113 176.861 C 220.360 177.392,220.222 196.626,222.961 198.010 C 225.548 199.318,247.844 199.086,249.500 197.734 C 251.648 195.982,251.168 178.341,248.943 177.216 C 247.489 176.481,226.576 176.194,223.113 176.861 M177.523 184.411 C 178.747 185.635,178.437 190.189,177.079 190.915 C 175.419 191.804,164.775 191.724,163.867 190.816 C 163.104 190.053,162.885 186.268,163.509 184.642 C 163.976 183.424,176.332 183.220,177.523 184.411 M242.779 184.411 C 243.178 184.810,243.505 186.251,243.505 187.613 C 243.505 191.231,242.909 191.541,235.952 191.541 C 228.995 191.541,228.399 191.231,228.399 187.613 C 228.399 183.996,228.995 183.686,235.952 183.686 C 239.893 183.686,242.311 183.943,242.779 184.411 " stroke="none" fill="#000000" fill-rule="evenodd"></path></g></svg>