<svg width="148" height="148" viewBox="0 0 148 148" fill="none" xmlns="http://www.w3.org/2000/svg">
<path d="M129.9 30.0002C139.4 42.1002 145.1 57.4002 145.1 74.0002C145.1 113.4 113.2 145.3 73.8 145.3C34.4 145.3 2.5 113.4 2.5 74.0002C2.5 57.6002 8.40001 42.1002 17.7 30.0002L13 20.4002L34.1 3.8002L40.9 12.0002C50.9 6.7002 61.6 2.7002 73.7 2.7002C85.5 2.7002 96.7 6.9002 106.5 12.0002L113.3 3.8002L134.4 20.4002L129.9 30.0002Z" stroke="black" stroke-width="4.3838" stroke-miterlimit="10"/>
<path d="M36.4 87.5002C43.8006 87.5002 49.8 81.5008 49.8 74.1002C49.8 66.6996 43.8006 60.7002 36.4 60.7002C28.9994 60.7002 23 66.6996 23 74.1002C23 81.5008 28.9994 87.5002 36.4 87.5002Z" stroke="black" stroke-width="4.27" stroke-miterlimit="10"/>
<path d="M111.3 87.5002C118.701 87.5002 124.7 81.5008 124.7 74.1002C124.7 66.6996 118.701 60.7002 111.3 60.7002C103.9 60.7002 97.9004 66.6996 97.9004 74.1002C97.9004 81.5008 103.9 87.5002 111.3 87.5002Z" stroke="black" stroke-width="4.27" stroke-miterlimit="10"/>
<path d="M73.8996 54.0004C84.5587 54.0004 93.1996 45.3595 93.1996 34.7004C93.1996 24.0413 84.5587 15.4004 73.8996 15.4004C63.2405 15.4004 54.5996 24.0413 54.5996 34.7004C54.5996 45.3595 63.2405 54.0004 73.8996 54.0004Z" stroke="black" stroke-width="3.146" stroke-miterlimit="10"/>
<path d="M74.1002 29.0002C77.0825 29.0002 79.5002 26.5825 79.5002 23.6002C79.5002 20.6179 77.0825 18.2002 74.1002 18.2002C71.1179 18.2002 68.7002 20.6179 68.7002 23.6002C68.7002 26.5825 71.1179 29.0002 74.1002 29.0002Z" stroke="black" stroke-width="1.7014" stroke-miterlimit="10"/>
<path d="M85.1002 40.3C88.0825 40.3 90.5002 37.8823 90.5002 34.9C90.5002 31.9177 88.0825 29.5 85.1002 29.5C82.1179 29.5 79.7002 31.9177 79.7002 34.9C79.7002 37.8823 82.1179 40.3 85.1002 40.3Z" stroke="black" stroke-width="1.7014" stroke-miterlimit="10"/>
<path d="M62.6998 40.3C65.6822 40.3 68.0998 37.8823 68.0998 34.9C68.0998 31.9177 65.6822 29.5 62.6998 29.5C59.7175 29.5 57.2998 31.9177 57.2998 34.9C57.2998 37.8823 59.7175 40.3 62.6998 40.3Z" stroke="black" stroke-width="1.7014" stroke-miterlimit="10"/>
<path d="M74.1002 51.3C77.0825 51.3 79.5002 48.8823 79.5002 45.9C79.5002 42.9177 77.0825 40.5 74.1002 40.5C71.1179 40.5 68.7002 42.9177 68.7002 45.9C68.7002 48.8823 71.1179 51.3 74.1002 51.3Z" stroke="black" stroke-width="1.7014" stroke-miterlimit="10"/>
<path d="M73.8996 132.4C84.5587 132.4 93.1996 123.759 93.1996 113.1C93.1996 102.441 84.5587 93.8003 73.8996 93.8003C63.2405 93.8003 54.5996 102.441 54.5996 113.1C54.5996 123.759 63.2405 132.4 73.8996 132.4Z" stroke="black" stroke-width="3.146" stroke-miterlimit="10"/>
<path d="M74.1002 107.4C77.0825 107.4 79.5002 104.982 79.5002 102C79.5002 99.0178 77.0825 96.6001 74.1002 96.6001C71.1179 96.6001 68.7002 99.0178 68.7002 102C68.7002 104.982 71.1179 107.4 74.1002 107.4Z" stroke="black" stroke-width="1.7014" stroke-miterlimit="10"/>
<path d="M85.1002 118.7C88.0825 118.7 90.5002 116.282 90.5002 113.3C90.5002 110.318 88.0825 107.9 85.1002 107.9C82.1179 107.9 79.7002 110.318 79.7002 113.3C79.7002 116.282 82.1179 118.7 85.1002 118.7Z" stroke="black" stroke-width="1.7014" stroke-miterlimit="10"/>
<path d="M62.6998 118.7C65.6822 118.7 68.0998 116.282 68.0998 113.3C68.0998 110.318 65.6822 107.9 62.6998 107.9C59.7175 107.9 57.2998 110.318 57.2998 113.3C57.2998 116.282 59.7175 118.7 62.6998 118.7Z" stroke="black" stroke-width="1.7014" stroke-miterlimit="10"/>
<path d="M74.1002 129.7C77.0825 129.7 79.5002 127.282 79.5002 124.3C79.5002 121.318 77.0825 118.9 74.1002 118.9C71.1179 118.9 68.7002 121.318 68.7002 124.3C68.7002 127.282 71.1179 129.7 74.1002 129.7Z" stroke="black" stroke-width="1.7014" stroke-miterlimit="10"/>
</svg>
