<?xml version="1.0" standalone="no"?>
<!DOCTYPE svg PUBLIC "-//W3C//DTD SVG 20010904//EN"
 "http://www.w3.org/TR/2001/REC-SVG-20010904/DTD/svg10.dtd">
<svg version="1.0" xmlns="http://www.w3.org/2000/svg"
 width="219.000000pt" height="153.000000pt" viewBox="0 0 219.000000 153.000000"
 preserveAspectRatio="xMidYMid meet">

<g transform="translate(0.000000,153.000000) scale(0.100000,-0.100000)"
fill="#000000" stroke="none">
<path d="M495 1439 c-199 -34 -359 -169 -414 -347 -37 -120 -52 -445 -32 -673
14 -152 60 -231 166 -287 49 -26 53 -26 355 -34 168 -5 313 -13 322 -18 22
-13 363 -13 387 -1 9 5 145 12 301 16 194 4 301 11 336 21 103 28 182 114 204
221 8 37 10 156 8 367 -5 339 -9 362 -69 476 -55 103 -169 200 -274 233 -176
56 -329 34 -476 -68 l-64 -45 -162 0 c-99 0 -164 4 -168 10 -4 6 -34 28 -68
50 -100 65 -245 98 -352 79z m202 -33 c66 -18 242 -118 243 -138 0 -13 -27 -9
-42 5 -20 20 -78 59 -117 80 -228 120 -525 20 -636 -215 -20 -41 -40 -105 -46
-141 -6 -38 -9 -194 -7 -369 3 -267 5 -307 21 -339 26 -53 88 -113 133 -128
62 -21 581 -33 1121 -26 564 7 571 8 645 84 29 30 51 63 57 89 15 53 15 656 2
729 -35 181 -206 338 -396 362 -132 16 -270 -23 -369 -103 l-43 -36 -157 0
c-97 0 -156 4 -156 10 0 6 58 10 154 10 148 0 156 1 183 24 91 77 200 116 323
116 146 0 255 -46 351 -147 69 -73 92 -111 118 -197 20 -64 21 -91 21 -410 0
-321 -2 -344 -21 -386 -26 -59 -62 -96 -124 -128 -47 -25 -61 -27 -245 -33
-227 -8 -1347 -2 -1404 7 -61 10 -118 38 -158 80 -67 70 -69 87 -68 469 1 381
4 407 66 509 66 109 178 195 289 222 69 17 199 17 262 0z m-22 -27 c65 -18
127 -49 181 -90 l51 -39 177 0 c184 0 200 3 246 46 14 13 57 38 95 56 67 31
76 33 185 33 111 0 117 -1 191 -36 102 -49 175 -121 225 -223 l39 -80 3 -350
c4 -401 3 -404 -77 -479 -38 -35 -59 -47 -97 -54 -27 -4 -395 -8 -819 -8 -604
0 -779 3 -813 13 -48 15 -111 73 -136 127 -24 51 -26 696 -2 763 75 209 233
330 436 331 41 1 93 -4 115 -10z m498 -1286 c-45 -2 -122 -2 -170 0 -48 1 -11
3 82 3 94 0 133 -2 88 -3z"/>
<path d="M453 1272 c-244 -79 -323 -389 -150 -588 20 -22 65 -55 103 -75 63
-31 75 -34 158 -34 81 0 98 3 157 31 167 79 245 280 178 459 -33 87 -121 174
-208 203 -78 26 -165 28 -238 4z m234 -26 c18 -9 35 -15 37 -14 8 6 116 -95
116 -108 0 -8 4 -14 8 -14 8 0 32 -42 38 -65 1 -5 8 -31 15 -57 12 -44 6 -107
-16 -173 -1 -5 -6 -20 -10 -32 -4 -12 -14 -24 -22 -27 -8 -3 -11 -10 -8 -16 3
-5 1 -10 -5 -10 -6 0 -15 -11 -20 -25 -5 -14 -16 -25 -24 -25 -8 0 -21 -9 -29
-20 -26 -37 -98 -60 -189 -61 -99 0 -118 2 -118 13 0 4 -7 8 -15 8 -27 0 -76
30 -116 71 -21 21 -35 39 -31 39 4 0 -2 7 -13 16 -11 8 -19 16 -17 17 2 1 -5
20 -14 42 -9 22 -17 49 -16 60 1 11 -3 30 -9 42 -7 12 -8 29 -4 40 5 10 9 29
10 43 2 14 5 34 9 45 4 11 6 22 4 25 -1 3 7 15 17 28 11 12 20 27 20 31 0 8
22 30 91 92 12 10 27 19 33 19 6 0 11 4 11 8 0 31 212 37 267 8z"/>
<path d="M498 1076 c-70 -37 -107 -114 -89 -184 16 -59 68 -109 122 -117 94
-14 164 29 190 115 21 71 -20 158 -87 186 -43 18 -102 18 -136 0z m117 -6 c14
-5 24 -14 21 -19 -3 -5 2 -8 11 -7 27 2 63 -61 63 -111 0 -31 -3 -42 -12 -37
-8 5 -9 2 -5 -10 9 -23 -30 -79 -49 -72 -8 3 -13 0 -11 -7 1 -7 -9 -11 -26
-10 -15 1 -25 -2 -22 -8 4 -5 -6 -9 -22 -9 -23 0 -25 2 -13 11 12 9 10 10 -9
5 -31 -6 -84 21 -77 39 3 8 0 17 -6 21 -7 4 -8 3 -4 -4 4 -7 5 -12 2 -12 -17
0 -38 67 -33 106 7 67 81 141 118 118 8 -4 10 -3 5 4 -9 15 32 16 69 2z"/>
<path d="M568 1063 c7 -3 16 -2 19 1 4 3 -2 6 -13 5 -11 0 -14 -3 -6 -6z"/>
<path d="M670 1011 c0 -6 4 -13 10 -16 6 -3 7 1 4 9 -7 18 -14 21 -14 7z"/>
<path d="M445 999 c-4 -6 -5 -12 -2 -15 2 -3 7 2 10 11 7 17 1 20 -8 4z"/>
<path d="M512 987 c-28 -29 -29 -87 -4 -110 10 -10 23 -17 28 -17 4 0 -2 7
-14 16 -48 33 -18 124 42 124 62 0 92 -73 51 -122 l-19 -23 24 22 c31 29 31
75 0 108 -31 33 -79 33 -108 2z"/>
<path d="M431 954 c0 -11 3 -14 6 -6 3 7 2 16 -1 19 -3 4 -6 -2 -5 -13z"/>
<path d="M431 904 c0 -11 3 -14 6 -6 3 7 2 16 -1 19 -3 4 -6 -2 -5 -13z"/>
<path d="M558 853 c6 -2 18 -2 25 0 6 3 1 5 -13 5 -14 0 -19 -2 -12 -5z"/>
<path d="M1489 1267 c-166 -58 -262 -227 -229 -406 19 -106 91 -199 195 -254
55 -29 68 -32 155 -32 88 0 100 2 160 33 74 38 125 91 167 172 25 49 28 65 28
150 0 84 -3 102 -29 155 -80 165 -272 243 -447 182z m232 -15 c15 -6 30 -8 33
-5 3 4 6 1 6 -5 0 -7 7 -12 15 -12 8 0 15 -4 15 -10 0 -5 4 -10 10 -10 5 0 28
-18 50 -40 22 -22 38 -40 35 -40 -3 0 6 -16 21 -35 15 -20 24 -38 20 -42 -3
-4 1 -17 9 -29 29 -45 3 -222 -42 -275 -7 -9 -11 -18 -10 -20 2 -2 -16 -23
-40 -47 -23 -23 -43 -39 -43 -36 0 4 -9 -1 -20 -11 -11 -10 -20 -15 -20 -10 0
4 -12 0 -26 -10 -29 -19 -161 -33 -191 -20 -10 5 -20 9 -23 10 -39 14 -93 38
-100 45 -3 3 -14 10 -25 17 -11 6 -19 16 -17 23 1 6 -2 9 -7 5 -9 -5 -73 93
-77 118 -1 4 -2 8 -3 10 -12 15 -19 187 -7 179 5 -3 7 2 3 10 -3 9 -3 19 1 22
3 4 7 13 8 21 1 8 12 28 23 44 12 16 21 33 21 38 0 10 52 60 62 59 4 -1 13 7
20 17 24 32 115 57 198 53 41 -2 87 -8 101 -14z"/>
<path d="M1535 1072 c-108 -69 -113 -200 -11 -276 21 -16 42 -21 93 -21 l66 0
44 50 c45 49 45 49 41 112 -4 59 -7 67 -45 105 -38 38 -47 42 -100 45 -45 3
-65 0 -88 -15z m122 -3 c36 -13 74 -49 66 -62 -3 -6 -1 -7 5 -3 22 14 42 -77
26 -118 -3 -9 -11 -13 -17 -9 -6 4 -7 1 -2 -6 4 -8 -5 -26 -26 -47 -27 -28
-39 -33 -60 -29 -15 4 -30 1 -34 -4 -3 -6 -12 -11 -18 -11 -7 0 -6 4 3 11 11
8 7 9 -18 5 -26 -4 -38 0 -60 22 -16 15 -21 23 -12 17 9 -5 6 0 -6 11 -13 12
-20 25 -17 28 4 3 1 6 -5 6 -8 0 -12 19 -12 50 0 29 5 50 11 50 5 0 7 5 4 11
-9 13 24 51 38 42 6 -3 7 -1 3 6 -5 7 5 17 26 26 40 17 68 18 105 4z"/>
<path d="M1567 998 c-17 -13 -41 -67 -33 -75 2 -2 9 11 15 30 17 50 62 62 111
31 l25 -16 -24 21 c-26 24 -69 27 -94 9z"/>
<path d="M1741 954 c0 -11 3 -14 6 -6 3 7 2 16 -1 19 -3 4 -6 -2 -5 -13z"/>
<path d="M1680 934 c0 -14 -5 -35 -11 -47 -10 -21 -10 -21 5 -3 15 18 23 76
11 76 -3 0 -5 -12 -5 -26z"/>
<path d="M1741 904 c0 -11 3 -14 6 -6 3 7 2 16 -1 19 -3 4 -6 -2 -5 -13z"/>
<path d="M1540 901 c0 -6 4 -13 10 -16 6 -3 7 1 4 9 -7 18 -14 21 -14 7z"/>
<path d="M1608 853 c7 -3 16 -2 19 1 4 3 -2 6 -13 5 -11 0 -14 -3 -6 -6z"/>
<path d="M1694 828 l-19 -23 23 19 c12 11 22 21 22 23 0 8 -8 2 -26 -19z"/>
<path d="M998 1149 c-21 -12 -24 -69 -6 -87 14 -14 184 -17 193 -2 12 19 8 82
-6 91 -19 12 -160 11 -181 -2z m182 -43 c0 -38 -14 -46 -90 -46 -76 0 -90 8
-90 46 l0 34 90 0 90 0 0 -34z"/>
<path d="M1015 1090 c-3 -5 -1 -10 4 -10 6 0 11 5 11 10 0 6 -2 10 -4 10 -3 0
-8 -4 -11 -10z"/>
<path d="M1150 1089 c0 -5 5 -7 10 -4 6 3 10 8 10 11 0 2 -4 4 -10 4 -5 0 -10
-5 -10 -11z"/>
<path d="M1021 721 c-84 -22 -162 -114 -177 -208 -8 -57 17 -139 61 -190 91
-107 253 -114 357 -15 113 105 87 308 -48 388 -45 27 -138 39 -193 25z m140
-23 c3 -5 16 -11 29 -13 22 -4 99 -75 82 -75 -4 0 -1 -4 6 -8 7 -5 14 -18 17
-30 2 -11 8 -30 14 -41 15 -28 13 -82 -4 -105 -8 -10 -12 -23 -9 -27 3 -5 0
-9 -6 -9 -7 0 -10 -6 -7 -12 4 -12 -72 -95 -83 -91 -3 0 -14 -4 -25 -10 -11
-6 -26 -10 -32 -9 -7 2 -13 -2 -13 -8 0 -6 -4 -9 -8 -6 -5 3 -30 6 -56 7 -26
2 -49 7 -52 11 -3 5 -9 6 -14 3 -4 -3 -19 6 -31 20 -13 13 -30 25 -36 25 -7 0
-13 5 -13 11 0 6 -11 24 -25 40 -13 16 -22 36 -19 44 4 8 2 15 -4 15 -5 0 -9
23 -9 50 1 28 5 50 10 50 4 0 6 4 2 10 -11 17 88 148 114 151 6 1 15 2 20 3 5
0 13 5 17 9 11 11 127 6 135 -5z"/>
<path d="M1048 569 c-66 -34 -78 -96 -29 -151 81 -90 222 27 149 124 -7 10
-29 24 -48 32 -32 13 -38 12 -72 -5z m77 -9 c30 -11 54 -60 47 -96 -6 -32 -47
-64 -82 -64 -34 0 -76 32 -84 65 -12 46 32 102 81 104 6 1 23 -3 38 -9z"/>
<path d="M1055 520 c-3 -6 1 -7 9 -4 18 7 21 14 7 14 -6 0 -13 -4 -16 -10z"/>
<path d="M1040 473 c0 -5 10 -18 23 -29 l22 -19 -20 25 c-11 14 -21 27 -22 29
-2 2 -3 0 -3 -6z"/>
<path d="M358 540 c-41 -12 -86 -48 -103 -80 -8 -16 -15 -51 -15 -78 0 -118
122 -190 234 -137 33 16 41 17 60 5 84 -54 118 -60 182 -31 52 24 85 70 92
127 14 128 -124 217 -238 153 l-38 -22 -38 31 c-43 33 -94 46 -136 32z m112
-39 c8 -10 27 -26 41 -35 25 -15 27 -15 53 5 14 11 32 22 39 23 6 2 20 6 30
11 21 9 99 -19 118 -42 7 -8 14 -22 16 -31 1 -9 7 -18 12 -20 7 -2 8 -15 5
-29 -6 -21 -4 -24 7 -18 12 8 12 6 0 -8 -7 -9 -11 -24 -7 -32 3 -8 1 -15 -5
-15 -6 0 -7 -4 -4 -10 3 -6 2 -10 -4 -10 -5 0 -12 -9 -16 -19 -6 -18 -40 -38
-57 -33 -5 1 -8 -3 -8 -9 0 -21 -89 -4 -117 22 -15 13 -23 17 -19 9 5 -11 4
-10 -6 2 -20 23 -53 26 -76 5 -13 -12 -37 -19 -64 -19 -57 -2 -64 1 -106 41
-33 32 -36 39 -36 95 -1 64 11 86 72 128 33 21 111 15 132 -11z"/>
<path d="M357 412 c-34 -38 11 -93 63 -77 24 7 37 51 23 74 -15 24 -66 26 -86
3z m77 -14 c8 -14 6 -22 -10 -39 -18 -17 -25 -19 -43 -10 -23 13 -29 56 -8 65
22 9 50 1 61 -16z"/>
<path d="M612 398 c-22 -22 -14 -67 13 -80 37 -17 75 3 75 40 0 35 -16 52 -50
52 -14 0 -31 -5 -38 -12z m68 -13 c14 -17 5 -51 -16 -59 -22 -8 -54 11 -54 32
0 38 46 56 70 27z"/>
<path d="M634 369 c-8 -14 11 -33 25 -25 6 4 11 14 11 22 0 16 -26 19 -36 3z
m26 -9 c0 -5 -4 -10 -10 -10 -5 0 -10 5 -10 10 0 6 5 10 10 10 6 0 10 -4 10
-10z"/>
<path d="M1735 540 c-16 -5 -43 -21 -58 -36 l-29 -27 -40 23 c-78 44 -186 12
-223 -66 -39 -82 -5 -176 76 -214 58 -28 104 -23 161 16 l38 27 40 -18 c53
-24 119 -23 161 1 40 23 79 93 79 142 0 99 -110 181 -205 152z m85 -20 c0 -6
4 -8 10 -5 11 7 72 -51 80 -75 5 -16 4 -91 -1 -112 -3 -12 -59 -71 -59 -63 0
2 -11 -2 -25 -9 -14 -7 -38 -11 -53 -9 -15 2 -35 5 -45 7 -10 1 -22 9 -27 16
-14 22 -59 20 -78 -4 -9 -12 -30 -27 -45 -34 -34 -14 -87 -16 -87 -2 0 6 -7
10 -16 10 -25 0 -85 65 -78 84 3 9 1 16 -5 16 -6 0 -11 12 -11 26 0 14 4 23
10 19 6 -3 10 5 10 19 0 14 5 28 10 31 6 4 8 10 5 15 -3 5 0 12 6 16 8 5 9 3
4 -7 -5 -8 3 -2 17 13 42 43 117 46 166 6 24 -20 61 -18 73 3 6 12 24 26 39
33 39 16 100 20 100 6z"/>
<path d="M1752 424 c-26 -18 -29 -56 -6 -78 46 -46 113 17 73 68 -24 30 -36
32 -67 10z m58 -19 c14 -17 5 -51 -17 -59 -17 -7 -53 19 -53 39 0 32 48 46 70
20z"/>
<path d="M1492 400 c-27 -26 -28 -51 -2 -75 16 -15 26 -17 47 -9 40 14 51 39
33 72 -20 34 -49 39 -78 12z m63 -35 c0 -27 -3 -30 -30 -30 -21 0 -31 5 -33
18 -6 33 6 49 35 45 24 -3 28 -8 28 -33z"/>
<path d="M1510 366 c0 -8 4 -18 10 -21 6 -4 7 1 3 11 -5 14 -3 16 11 11 10 -4
15 -3 11 3 -9 15 -35 12 -35 -4z"/>
</g>
</svg>
