<svg id="svg" xmlns="http://www.w3.org/2000/svg" xmlns:xlink="http://www.w3.org/1999/xlink" width="400" height="400" viewBox="0, 0, 400,400"><g id="svgg"><path id="path0" d="M167.111 35.335 C 35.166 64.382,-12.891 223.602,81.694 318.328 C 178.062 414.839,341.781 362.577,365.391 227.767 C 385.393 113.556,279.337 10.629,167.111 35.335 M229.049 59.496 C 361.382 87.333,384.917 268.202,264.000 328.108 C 138.945 390.065,7.273 253.784,74.095 131.556 C 104.321 76.267,168.000 46.654,229.049 59.496 M128.738 142.902 C 107.159 152.570,113.072 183.111,136.523 183.111 C 143.815 183.111,146.364 182.212,150.785 178.082 C 167.816 162.173,149.820 133.457,128.738 142.902 M254.702 143.080 C 233.670 152.223,240.159 183.111,263.111 183.111 C 286.814 183.111,292.804 152.061,270.870 142.896 C 263.688 139.895,261.984 139.914,254.702 143.080 M186.599 236.889 C 165.309 247.625,166.292 280.119,188.184 289.266 C 196.320 292.666,210.239 291.455,216.467 286.805 C 245.879 264.846,219.288 220.405,186.599 236.889 " stroke="none" fill="#000000" fill-rule="evenodd"></path></g></svg>