<svg width="168" height="148" viewBox="0 0 168 148" fill="none" xmlns="http://www.w3.org/2000/svg">
<path d="M138.6 3.59981C154.8 18.3998 165 39.7998 165 63.4998C165 108.3 128.7 144.6 83.8998 144.6C39.0998 144.6 2.7998 108.3 2.7998 63.4998C2.7998 39.5998 13.0998 18.0998 29.4998 3.2998L138.6 3.59981Z" stroke="black" stroke-width="4.9906" stroke-miterlimit="10"/>
<path d="M44.5994 86.2994C52.4419 86.2994 58.7994 79.9419 58.7994 72.0994C58.7994 64.257 52.4419 57.8994 44.5994 57.8994C36.757 57.8994 30.3994 64.257 30.3994 72.0994C30.3994 79.9419 36.757 86.2994 44.5994 86.2994Z" stroke="black" stroke-width="3.8643" stroke-miterlimit="10"/>
<path d="M84.5994 86.2994C92.4419 86.2994 98.7994 79.9419 98.7994 72.0994C98.7994 64.257 92.4419 57.8994 84.5994 57.8994C76.757 57.8994 70.3994 64.257 70.3994 72.0994C70.3994 79.9419 76.757 86.2994 84.5994 86.2994Z" stroke="black" stroke-width="3.8643" stroke-miterlimit="10"/>
<path d="M123.099 86.2994C130.942 86.2994 137.299 79.9419 137.299 72.0994C137.299 64.257 130.942 57.8994 123.099 57.8994C115.257 57.8994 108.899 64.257 108.899 72.0994C108.899 79.9419 115.257 86.2994 123.099 86.2994Z" stroke="black" stroke-width="3.8643" stroke-miterlimit="10"/>
<path d="M102.899 120.299C110.742 120.299 117.099 113.942 117.099 106.099C117.099 98.257 110.742 91.8994 102.899 91.8994C95.0568 91.8994 88.6992 98.257 88.6992 106.099C88.6992 113.942 95.0568 120.299 102.899 120.299Z" stroke="black" stroke-width="3.8643" stroke-miterlimit="10"/>
<path d="M66.199 120.299C74.0415 120.299 80.399 113.942 80.399 106.099C80.399 98.257 74.0415 91.8994 66.199 91.8994C58.3566 91.8994 51.999 98.257 51.999 106.099C51.999 113.942 58.3566 120.299 66.199 120.299Z" stroke="black" stroke-width="3.8643" stroke-miterlimit="10"/>
<path d="M64.3992 55.9996C72.2416 55.9996 78.5992 49.642 78.5992 41.7996C78.5992 33.9572 72.2416 27.5996 64.3992 27.5996C56.5568 27.5996 50.1992 33.9572 50.1992 41.7996C50.1992 49.642 56.5568 55.9996 64.3992 55.9996Z" stroke="black" stroke-width="3.8643" stroke-miterlimit="10"/>
<path d="M103.599 55.9996C111.442 55.9996 117.799 49.642 117.799 41.7996C117.799 33.9572 111.442 27.5996 103.599 27.5996C95.757 27.5996 89.3994 33.9572 89.3994 41.7996C89.3994 49.642 95.757 55.9996 103.599 55.9996Z" stroke="black" stroke-width="3.8643" stroke-miterlimit="10"/>
</svg>
