<svg id="svg" xmlns="http://www.w3.org/2000/svg" xmlns:xlink="http://www.w3.org/1999/xlink" width="400" height="507.6620825147348" viewBox="0, 0, 400,507.6620825147348"><g id="svgg"><path id="path0" d="M183.787 6.348 C 90.366 12.682,20.206 83.506,11.803 179.961 C 10.774 191.771,10.774 305.675,11.803 317.485 C 20.682 419.401,96.763 491.055,196.464 491.401 C 294.928 491.742,369.047 424.884,382.296 323.772 C 384.520 306.797,383.704 179.320,381.286 165.891 C 364.446 72.396,299.763 12.466,209.037 6.299 C 196.601 5.453,196.994 5.453,183.787 6.348 M221.343 9.856 C 304.791 20.795,363.820 79.409,378.804 166.208 C 381.318 180.773,381.327 316.632,378.814 331.157 C 365.920 405.707,323.215 457.625,256.582 479.758 C 157.375 512.712,50.838 458.410,22.450 360.421 C 14.233 332.056,14.071 329.888,14.070 248.330 L 14.070 177.210 16.028 165.738 C 33.719 62.112,120.038 -3.424,221.343 9.856 M177.210 47.203 C 107.917 56.474,57.157 112.091,51.854 184.556 C 50.883 197.819,50.899 299.945,51.874 314.221 C 56.222 377.911,98.314 429.870,159.217 446.730 L 167.158 448.928 171.765 445.175 C 187.555 432.314,208.692 432.479,223.425 445.578 L 227.203 448.937 234.034 447.171 C 288.124 433.189,329.537 388.740,340.582 332.809 C 344.061 315.194,346.025 213.380,343.396 186.920 C 336.012 112.596,294.159 63.471,225.584 48.640 C 216.970 46.778,187.039 45.888,177.210 47.203 M217.724 49.942 C 281.884 58.891,328.517 105.919,339.105 172.354 C 341.181 185.380,340.898 316.831,338.767 329.292 C 329.251 384.932,288.923 429.709,235.212 444.272 L 227.988 446.231 223.413 442.559 C 207.378 429.690,185.324 430.019,170.175 443.353 L 166.747 446.371 157.259 443.640 C 102.687 427.933,61.865 380.067,55.030 323.772 C 53.141 308.207,54.350 175.568,56.467 166.208 C 74.610 85.993,139.704 39.060,217.724 49.942 M178.016 71.189 C 125.949 79.279,89.256 115.288,77.247 170.081 L 75.168 179.568 74.861 242.313 C 74.491 317.998,74.848 323.776,81.100 343.418 C 93.277 381.672,126.008 413.668,162.849 423.330 L 167.990 424.679 173.386 422.218 C 189.372 414.928,206.571 414.906,221.385 422.158 C 227.134 424.973,228.343 424.875,239.686 420.682 C 280.397 405.630,309.267 371.051,317.644 327.308 C 319.442 317.918,319.450 317.591,319.450 249.116 L 319.450 180.354 317.299 170.407 C 302.414 101.570,245.126 60.762,178.016 71.189 M180.387 74.067 C 180.915 75.442,212.996 75.484,214.145 74.111 C 214.718 73.427,215.999 73.371,218.861 73.903 C 225.362 75.112,226.325 75.432,226.125 76.315 C 225.860 77.484,227.134 78.131,236.149 81.409 C 240.472 82.981,246.608 85.526,249.785 87.066 C 254.467 89.334,255.833 89.697,256.987 88.976 C 259.084 87.667,268.297 93.625,267.596 95.836 C 267.246 96.936,267.921 98.031,270.101 99.902 C 271.742 101.311,276.894 106.299,281.550 110.987 C 286.692 116.164,290.529 119.421,291.321 119.284 C 293.193 118.958,298.836 127.147,298.276 129.378 C 298.002 130.468,299.362 134.246,302.096 139.995 C 304.430 144.903,307.144 151.356,308.127 154.335 C 309.286 157.847,310.400 159.878,311.297 160.112 C 313.317 160.641,315.683 171.094,314.075 172.387 C 313.189 173.099,313.095 174.398,313.612 178.782 C 313.969 181.807,314.279 192.162,314.301 201.793 C 314.336 216.607,314.523 219.372,315.521 219.755 C 316.395 220.091,316.699 221.480,316.699 225.135 C 316.699 228.557,316.339 230.362,315.521 231.041 C 314.540 231.855,314.342 234.836,314.342 248.735 C 314.342 262.868,314.524 265.521,315.521 265.903 C 317.146 266.527,317.216 277.033,315.601 277.957 C 314.717 278.462,314.431 282.739,314.139 299.804 C 313.916 312.840,313.387 322.774,312.766 325.567 C 311.873 329.590,311.902 330.222,313.025 331.068 C 314.951 332.519,312.545 341.673,309.982 342.647 C 308.778 343.105,307.652 344.799,306.496 347.889 C 304.484 353.271,298.320 365.665,296.098 368.795 C 295.045 370.279,294.702 371.630,295.039 372.970 C 295.693 375.577,289.871 383.241,287.529 382.855 C 286.507 382.687,284.047 384.571,279.944 388.664 C 276.603 391.995,271.293 396.669,268.143 399.050 C 263.906 402.253,262.475 403.792,262.642 404.968 C 262.962 407.220,254.226 412.412,252.222 411.161 C 251.162 410.499,249.294 410.995,243.609 413.445 C 231.765 418.552,229.975 418.759,222.959 415.838 C 211.781 411.185,203.536 409.882,203.536 412.770 C 203.536 414.456,203.245 414.538,197.250 414.538 C 191.254 414.538,190.963 414.456,190.963 412.770 C 190.963 409.839,180.864 411.582,170.427 416.314 L 165.363 418.611 158.883 416.459 C 155.319 415.275,150.519 413.353,148.215 412.187 C 144.664 410.391,143.788 410.218,142.455 411.050 C 140.298 412.397,131.173 407.098,131.763 404.841 C 132.033 403.808,130.878 402.478,127.561 400.001 C 125.045 398.122,119.747 393.429,115.788 389.572 C 110.300 384.227,108.232 382.674,107.086 383.038 C 104.908 383.729,98.827 375.494,99.508 372.778 C 99.836 371.475,99.364 369.943,98.001 367.884 C 95.156 363.585,90.086 353.265,88.029 347.587 C 86.733 344.011,85.837 342.655,84.654 342.479 C 82.235 342.120,79.536 332.484,81.456 331.063 C 82.618 330.205,82.650 329.541,81.760 324.777 C 81.209 321.822,80.594 310.350,80.379 299.018 C 80.070 282.662,79.774 278.460,78.896 277.957 C 77.001 276.871,77.394 266.677,79.371 265.619 C 80.864 264.820,80.943 263.973,80.943 248.702 C 80.943 233.477,80.860 232.574,79.371 231.645 C 77.332 230.371,77.006 220.512,78.978 219.755 C 79.975 219.373,80.161 216.661,80.181 202.186 C 80.195 192.771,80.551 182.417,80.973 179.175 C 81.626 174.162,81.559 173.147,80.525 172.386 C 78.925 171.208,81.158 161.461,83.289 160.320 C 84.035 159.921,85.610 156.839,86.791 153.471 C 87.971 150.103,90.699 143.727,92.854 139.302 C 95.548 133.770,96.609 130.743,96.251 129.616 C 95.523 127.323,100.767 119.450,103.021 119.450 C 104.049 119.450,107.604 116.455,112.640 111.346 C 117.034 106.890,122.157 101.942,124.024 100.352 C 126.541 98.209,127.296 97.073,126.943 95.962 C 126.249 93.773,135.492 87.714,137.557 89.004 C 138.687 89.710,140.511 89.157,147.033 86.130 C 151.474 84.068,157.960 81.454,161.444 80.321 C 167.317 78.411,168.547 77.716,169.167 75.956 C 169.296 75.591,171.512 74.832,174.092 74.269 C 180.235 72.928,179.954 72.937,180.387 74.067 M119.247 129.797 C 105.948 137.710,117.194 158.483,131.022 151.546 C 139.684 147.201,140.946 135.686,133.353 130.280 C 129.782 127.736,123.094 127.507,119.247 129.797 M262.531 129.471 C 251.389 135.153,255.733 152.800,268.271 152.789 C 275.959 152.783,280.938 147.729,280.827 140.045 C 280.693 130.781,270.975 125.165,262.531 129.471 M129.196 132.333 C 138.882 136.381,133.836 151.516,123.652 148.960 C 115.948 147.026,114.952 136.014,122.160 132.457 C 125.149 130.982,125.928 130.968,129.196 132.333 M274.853 134.760 C 280.640 140.972,275.252 150.557,266.858 148.983 C 258.729 147.458,257.484 135.755,265.089 132.354 C 268.629 130.770,271.882 131.572,274.853 134.760 M116.771 193.771 C 100.824 199.614,99.763 222.041,115.096 229.181 C 128.159 235.264,142.436 226.141,142.436 211.710 C 142.436 198.344,129.317 189.174,116.771 193.771 M264.511 193.723 C 244.732 201.280,250.002 231.026,271.120 231.026 C 295.846 231.026,297.002 194.295,272.322 192.830 C 269.366 192.655,266.428 192.990,264.511 193.723 M130.471 198.232 C 144.343 205.248,140.104 225.980,124.595 226.967 C 118.805 227.336,114.394 225.493,111.321 221.422 C 101.228 208.053,115.565 190.692,130.471 198.232 M278.027 197.959 C 285.932 202.013,288.962 210.831,285.069 218.452 C 278.369 231.565,259.915 229.483,256.090 215.182 C 252.871 203.148,266.809 192.206,278.027 197.959 M135.953 248.723 L 135.953 267.976 148.527 267.976 L 161.100 267.976 161.100 248.723 L 161.100 229.470 148.527 229.470 L 135.953 229.470 135.953 248.723 M233.923 229.993 C 233.635 230.282,233.399 238.946,233.399 249.247 L 233.399 267.976 245.972 267.976 L 258.546 267.976 258.546 248.723 L 258.546 229.470 246.496 229.470 C 239.869 229.470,234.211 229.705,233.923 229.993 M154.813 248.723 L 154.813 260.904 148.527 260.904 L 142.240 260.904 142.240 248.723 L 142.240 236.542 148.527 236.542 L 154.813 236.542 154.813 248.723 M251.473 248.723 L 251.473 260.904 245.972 260.904 L 240.472 260.904 240.472 248.723 L 240.472 236.542 245.972 236.542 L 251.473 236.542 251.473 248.723 M116.894 287.958 C 101.354 293.504,99.578 314.898,113.986 322.986 C 120.878 326.855,132.191 325.268,137.239 319.723 C 148.717 307.117,140.181 286.906,123.379 286.906 C 121.434 286.906,118.516 287.379,116.894 287.958 M264.635 287.910 C 243.531 295.786,250.804 327.397,273.193 325.103 C 296.522 322.714,295.836 288.622,272.428 287.120 C 269.455 286.930,266.444 287.235,264.635 287.910 M130.494 292.359 C 144.829 299.672,139.505 321.415,123.379 321.415 C 110.418 321.415,103.362 306.864,111.286 296.475 C 115.513 290.934,124.095 289.095,130.494 292.359 M278.027 292.261 C 285.932 296.315,288.962 305.134,285.069 312.755 C 278.304 325.995,259.774 323.830,256.140 309.374 C 253.070 297.159,266.738 286.472,278.027 292.261 M191.137 361.820 C 175.021 367.053,173.607 390.202,188.966 397.354 C 203.501 404.123,219.336 391.570,216.075 375.863 C 213.822 365.011,201.931 358.315,191.137 361.820 M204.077 366.165 C 213.685 370.527,215.683 383.547,207.895 391.037 C 197.133 401.387,179.678 392.317,181.896 377.527 C 183.370 367.696,194.684 361.901,204.077 366.165 M144.928 366.913 C 134.079 371.840,134.071 387.570,144.915 392.619 C 151.404 395.641,157.637 394.371,162.047 389.130 C 172.084 377.203,159.171 360.444,144.928 366.913 M149.312 374.067 L 149.312 380.354 146.608 380.354 C 143.363 380.354,142.323 381.617,144.322 383.131 C 145.122 383.737,145.468 384.244,145.090 384.258 C 141.163 384.401,147.394 386.640,151.720 386.640 C 156.868 386.640,159.018 385.817,157.049 384.601 C 156.425 384.215,156.703 383.807,157.888 383.369 C 160.470 382.414,159.470 380.785,156.128 380.503 L 153.242 380.259 153.242 374.039 L 153.242 367.819 155.403 368.635 C 165.827 372.573,165.714 386.992,155.227 390.997 C 141.508 396.236,132.673 376.879,145.383 369.428 C 149.306 367.129,149.312 367.137,149.312 374.067 M146.714 387.929 C 145.562 389.081,147.309 389.784,151.323 389.784 C 154.600 389.784,155.599 389.508,155.599 388.605 C 155.599 387.394,147.840 386.804,146.714 387.929 " stroke="none" fill="#000000" fill-rule="evenodd"></path></g></svg>