<svg width="118" height="140" viewBox="0 0 118 140" fill="none" xmlns="http://www.w3.org/2000/svg">
<path d="M96.5 2.40019C107.9 12.8002 115.8 27.7002 115.8 44.3002C115.8 75.7002 90.3 101.1 58.9 101.1C27.5 101.1 2 75.7002 2 44.3002C2 27.6002 8.60001 12.6002 20.1 2.2002L96.5 2.40019Z" stroke="black" stroke-width="3.4975" stroke-miterlimit="10"/>
<path d="M23.9002 58.7003C30.9142 58.7003 36.6002 53.0143 36.6002 46.0003C36.6002 38.9863 30.9142 33.3003 23.9002 33.3003C16.8862 33.3003 11.2002 38.9863 11.2002 46.0003C11.2002 53.0143 16.8862 58.7003 23.9002 58.7003Z" stroke="black" stroke-width="3.4622" stroke-miterlimit="10"/>
<path d="M58.4002 58.7003C65.4142 58.7003 71.1002 53.0143 71.1002 46.0003C71.1002 38.9863 65.4142 33.3003 58.4002 33.3003C51.3862 33.3003 45.7002 38.9863 45.7002 46.0003C45.7002 53.0143 51.3862 58.7003 58.4002 58.7003Z" stroke="black" stroke-width="3.4622" stroke-miterlimit="10"/>
<path d="M93.8006 58.7003C100.815 58.7003 106.501 53.0143 106.501 46.0003C106.501 38.9863 100.815 33.3003 93.8006 33.3003C86.7866 33.3003 81.1006 38.9863 81.1006 46.0003C81.1006 53.0143 86.7866 58.7003 93.8006 58.7003Z" stroke="black" stroke-width="3.4622" stroke-miterlimit="10"/>
<path d="M76.4998 87.8004C83.5138 87.8004 89.1998 82.1144 89.1998 75.1004C89.1998 68.0864 83.5138 62.4004 76.4998 62.4004C69.4858 62.4004 63.7998 68.0864 63.7998 75.1004C63.7998 82.1144 69.4858 87.8004 76.4998 87.8004Z" stroke="black" stroke-width="3.4622" stroke-miterlimit="10"/>
<path d="M41.6004 87.8004C48.6144 87.8004 54.3004 82.1144 54.3004 75.1004C54.3004 68.0864 48.6144 62.4004 41.6004 62.4004C34.5864 62.4004 28.9004 68.0864 28.9004 75.1004C28.9004 82.1144 34.5864 87.8004 41.6004 87.8004Z" stroke="black" stroke-width="3.4622" stroke-miterlimit="10"/>
<path d="M74.6998 26.6003C78.7867 26.6003 82.0998 23.2872 82.0998 19.2003C82.0998 15.1134 78.7867 11.8003 74.6998 11.8003C70.6129 11.8003 67.2998 15.1134 67.2998 19.2003C67.2998 23.2872 70.6129 26.6003 74.6998 26.6003Z" stroke="black" stroke-width="2.3452" stroke-miterlimit="10"/>
<path d="M42.0006 26.6003C46.0875 26.6003 49.4006 23.2872 49.4006 19.2003C49.4006 15.1134 46.0875 11.8003 42.0006 11.8003C37.9137 11.8003 34.6006 15.1134 34.6006 19.2003C34.6006 23.2872 37.9137 26.6003 42.0006 26.6003Z" stroke="black" stroke-width="2.3452" stroke-miterlimit="10"/>
<path d="M77.2 122.601C78.415 122.601 79.4 121.616 79.4 120.401C79.4 119.186 78.415 118.201 77.2 118.201C75.985 118.201 75 119.186 75 120.401C75 121.616 75.985 122.601 77.2 122.601Z" stroke="black" stroke-width="1.0976" stroke-miterlimit="10"/>
<path d="M38.2 122.601C39.415 122.601 40.4 121.616 40.4 120.401C40.4 119.186 39.415 118.201 38.2 118.201C36.985 118.201 36 119.186 36 120.401C36 121.616 36.985 122.601 38.2 122.601Z" stroke="black" stroke-width="1.0976" stroke-miterlimit="10"/>
<path d="M38.3004 130.3C43.768 130.3 48.2004 125.868 48.2004 120.4C48.2004 114.933 43.768 110.5 38.3004 110.5C32.8328 110.5 28.4004 114.933 28.4004 120.4C28.4004 125.868 32.8328 130.3 38.3004 130.3Z" stroke="black" stroke-width="3.1498" stroke-miterlimit="10"/>
<path d="M76.8004 130.3C82.268 130.3 86.7004 125.868 86.7004 120.4C86.7004 114.933 82.268 110.5 76.8004 110.5C71.3328 110.5 66.9004 114.933 66.9004 120.4C66.9004 125.868 71.3328 130.3 76.8004 130.3Z" stroke="black" stroke-width="3.1498" stroke-miterlimit="10"/>
<path d="M82.0002 137.7H33.1002C23.5002 137.7 15.7002 129.9 15.7002 120.3C15.7002 110.7 23.5002 102.9 33.1002 102.9H82.0002C91.6002 102.9 99.4002 110.7 99.4002 120.3C99.4002 130 91.5002 137.7 82.0002 137.7Z" stroke="black" stroke-width="3.5288" stroke-miterlimit="10"/>
</svg>
