<?xml version="1.0" encoding="utf-8"?>
<!-- Generator: Adobe Illustrator 27.0.0, SVG Export Plug-In . SVG Version: 6.00 Build 0)  -->
<svg version="1.1" id="Layer_1" xmlns="http://www.w3.org/2000/svg" xmlns:xlink="http://www.w3.org/1999/xlink" x="0px" y="0px"
	 viewBox="0 0 708.7 498.9" style="enable-background:new 0 0 708.7 498.9;" xml:space="preserve">
<style type="text/css">
	.st0{fill:none;stroke:#000000;stroke-width:3.4371;stroke-miterlimit:10;}
	.st1{fill:none;stroke:#000000;stroke-width:2.3282;stroke-miterlimit:10;}
	.st2{fill:none;stroke:#000000;stroke-width:1.0897;stroke-miterlimit:10;}
	.st3{fill:none;stroke:#000000;stroke-width:3.127;stroke-miterlimit:10;}
	.st4{fill:none;stroke:#000000;stroke-width:3.5033;stroke-miterlimit:10;}
</style>
<g>
	<circle class="st0" cx="354" cy="231.2" r="55.9"/>
	<circle class="st0" cx="330.9" cy="208.3" r="12.6"/>
	<circle class="st0" cx="375.7" cy="208.3" r="12.6"/>
	<circle class="st0" cx="353.6" cy="261.1" r="12.6"/>
	<circle class="st1" cx="383.7" cy="241.9" r="7.3"/>
	<circle class="st1" cx="323" cy="241.9" r="7.3"/>
	<g>
		<circle class="st2" cx="372.9" cy="306.3" r="2.1"/>
		<circle class="st2" cx="334.2" cy="306.3" r="2.1"/>
		<circle class="st3" cx="334.2" cy="306.3" r="9.8"/>
		<circle class="st3" cx="372.5" cy="306.3" r="9.8"/>
	</g>
	<path class="st4" d="M377.6,323.6h-48.5c-9.5,0-17.3-7.8-17.3-17.3l0,0c0-9.5,7.8-17.3,17.3-17.3h48.5c9.5,0,17.3,7.8,17.3,17.3
		l0,0C394.9,315.8,387.1,323.6,377.6,323.6z"/>
</g>
</svg>
