<?xml version="1.0" encoding="utf-8"?>
<!-- Generator: Adobe Illustrator 27.0.0, SVG Export Plug-In . SVG Version: 6.00 Build 0)  -->
<svg version="1.1" id="Layer_1" xmlns="http://www.w3.org/2000/svg" xmlns:xlink="http://www.w3.org/1999/xlink" x="0px" y="0px"
	 viewBox="0 0 708.7 498.9" style="enable-background:new 0 0 708.7 498.9;" xml:space="preserve">
<style type="text/css">
	.st0{fill:none;stroke:#000000;stroke-width:3.4975;stroke-miterlimit:10;}
	.st1{fill:none;stroke:#000000;stroke-width:3.4622;stroke-miterlimit:10;}
	.st2{fill:none;stroke:#000000;stroke-width:2.3452;stroke-miterlimit:10;}
	.st3{fill:none;stroke:#000000;stroke-width:1.0976;stroke-miterlimit:10;}
	.st4{fill:none;stroke:#000000;stroke-width:3.1498;stroke-miterlimit:10;}
	.st5{fill:none;stroke:#000000;stroke-width:3.5288;stroke-miterlimit:10;}
</style>
<g>
	<path class="st0" d="M392,181.9c11.4,10.4,19.3,25.3,19.3,41.9c0,31.4-25.5,56.8-56.9,56.8s-56.9-25.4-56.9-56.8
		c0-16.7,6.6-31.7,18.1-42.1L392,181.9z"/>
	<g>
		<circle class="st1" cx="319.4" cy="225.5" r="12.7"/>
		<circle class="st1" cx="353.9" cy="225.5" r="12.7"/>
		<circle class="st1" cx="389.3" cy="225.5" r="12.7"/>
		<circle class="st1" cx="372" cy="254.6" r="12.7"/>
		<circle class="st1" cx="337.1" cy="254.6" r="12.7"/>
		<circle class="st2" cx="370.2" cy="198.7" r="7.4"/>
		<circle class="st2" cx="337.5" cy="198.7" r="7.4"/>
	</g>
	<g>
		<g>
			<circle class="st3" cx="372.7" cy="299.9" r="2.2"/>
			<circle class="st3" cx="333.7" cy="299.9" r="2.2"/>
			<circle class="st4" cx="333.8" cy="299.9" r="9.9"/>
			<circle class="st4" cx="372.3" cy="299.9" r="9.9"/>
		</g>
		<path class="st5" d="M377.5,317.2h-48.9c-9.6,0-17.4-7.8-17.4-17.4l0,0c0-9.6,7.8-17.4,17.4-17.4h48.9c9.6,0,17.4,7.8,17.4,17.4
			l0,0C394.9,309.5,387,317.2,377.5,317.2z"/>
	</g>
</g>
</svg>
