<?xml version="1.0" encoding="utf-8"?>
<!-- Generator: Adobe Illustrator 27.0.0, SVG Export Plug-In . SVG Version: 6.00 Build 0)  -->
<svg version="1.1" id="Layer_1" xmlns="http://www.w3.org/2000/svg" xmlns:xlink="http://www.w3.org/1999/xlink" x="0px" y="0px"
	 viewBox="0 0 708.7 498.9" style="enable-background:new 0 0 708.7 498.9;" xml:space="preserve">
<style type="text/css">
	.st0{fill:none;stroke:#000000;stroke-width:4.3838;stroke-miterlimit:10;}
	.st1{fill:none;stroke:#000000;stroke-width:4.27;stroke-miterlimit:10;}
	.st2{fill:none;stroke:#000000;stroke-width:3.146;stroke-miterlimit:10;}
	.st3{fill:none;stroke:#000000;stroke-width:1.7014;stroke-miterlimit:10;}
</style>
<g>
	<path class="st0" d="M410.4,205.5c9.5,12.1,15.2,27.4,15.2,44c0,39.4-31.9,71.3-71.3,71.3S283,288.9,283,249.5
		c0-16.4,5.9-31.9,15.2-44l-4.7-9.6l21.1-16.6l6.8,8.2c10-5.3,20.7-9.3,32.8-9.3c11.8,0,23,4.2,32.8,9.3l6.8-8.2l21.1,16.6
		L410.4,205.5z"/>
	<g>
		<circle class="st1" cx="316.9" cy="249.6" r="13.4"/>
		<circle class="st1" cx="391.8" cy="249.6" r="13.4"/>
		<g>
			<circle class="st2" cx="354.4" cy="210.2" r="19.3"/>
			<g>
				<circle class="st3" cx="354.6" cy="199.1" r="5.4"/>
				<circle class="st3" cx="365.6" cy="210.4" r="5.4"/>
				<circle class="st3" cx="343.2" cy="210.4" r="5.4"/>
				<circle class="st3" cx="354.6" cy="221.4" r="5.4"/>
			</g>
		</g>
		<g>
			<circle class="st2" cx="354.4" cy="288.6" r="19.3"/>
			<g>
				<circle class="st3" cx="354.6" cy="277.5" r="5.4"/>
				<circle class="st3" cx="365.6" cy="288.8" r="5.4"/>
				<circle class="st3" cx="343.2" cy="288.8" r="5.4"/>
				<circle class="st3" cx="354.6" cy="299.8" r="5.4"/>
			</g>
		</g>
	</g>
</g>
</svg>
