<svg width="144" height="132" viewBox="0 0 144 132" fill="none" xmlns="http://www.w3.org/2000/svg">
<path d="M108.6 2.6001C122.2 13.0001 140.2 30.7001 141.2 56.4001C142.9 96.6001 110.1 129.3 71.8004 129.3C33.5004 129.3 2.40039 96.7001 2.40039 56.4001C2.40039 34.9001 18.7004 15.9001 32.8004 2.6001H108.6Z" stroke="black" stroke-width="4.3753" stroke-miterlimit="10"/>
<path d="M71.6006 118.5C80.161 118.5 87.1006 111.56 87.1006 103C87.1006 94.4396 80.161 87.5 71.6006 87.5C63.0402 87.5 56.1006 94.4396 56.1006 103C56.1006 111.56 63.0402 118.5 71.6006 118.5Z" stroke="black" stroke-width="4.2223" stroke-miterlimit="10"/>
<path d="M110.501 86.2004C123.424 86.2004 133.901 75.7239 133.901 62.8004C133.901 49.8769 123.424 39.4004 110.501 39.4004C97.5771 39.4004 87.1006 49.8769 87.1006 62.8004C87.1006 75.7239 97.5771 86.2004 110.501 86.2004Z" stroke="black" stroke-width="6.3693" stroke-miterlimit="10.0002"/>
<path d="M33.1002 86.3C46.0237 86.3 56.5002 75.8235 56.5002 62.9C56.5002 49.9765 46.0237 39.5 33.1002 39.5C20.1767 39.5 9.7002 49.9765 9.7002 62.9C9.7002 75.8235 20.1767 86.3 33.1002 86.3Z" stroke="black" stroke-width="6.3692" stroke-miterlimit="10"/>
<path d="M71.6006 58.7002C76.5711 58.7002 80.6006 54.6708 80.6006 49.7002C80.6006 44.7296 76.5711 40.7002 71.6006 40.7002C66.63 40.7002 62.6006 44.7296 62.6006 49.7002C62.6006 54.6708 66.63 58.7002 71.6006 58.7002Z" stroke="black" stroke-width="2.86" stroke-miterlimit="10"/>
<path d="M71.6006 31.2002C76.5711 31.2002 80.6006 27.1708 80.6006 22.2002C80.6006 17.2296 76.5711 13.2002 71.6006 13.2002C66.63 13.2002 62.6006 17.2296 62.6006 22.2002C62.6006 27.1708 66.63 31.2002 71.6006 31.2002Z" stroke="black" stroke-width="2.86" stroke-miterlimit="10"/>
<path d="M98.7002 31.2002C103.671 31.2002 107.7 27.1708 107.7 22.2002C107.7 17.2296 103.671 13.2002 98.7002 13.2002C93.7296 13.2002 89.7002 17.2296 89.7002 22.2002C89.7002 27.1708 93.7296 31.2002 98.7002 31.2002Z" stroke="black" stroke-width="2.86" stroke-miterlimit="10.0002"/>
<path d="M42.4004 31.2002C47.371 31.2002 51.4004 27.1708 51.4004 22.2002C51.4004 17.2296 47.371 13.2002 42.4004 13.2002C37.4298 13.2002 33.4004 17.2296 33.4004 22.2002C33.4004 27.1708 37.4298 31.2002 42.4004 31.2002Z" stroke="black" stroke-width="2.86" stroke-miterlimit="10"/>
<path d="M40.7998 112C45.7704 112 49.7998 107.971 49.7998 103C49.7998 98.0294 45.7704 94 40.7998 94C35.8292 94 31.7998 98.0294 31.7998 103C31.7998 107.971 35.8292 112 40.7998 112Z" stroke="black" stroke-width="2.86" stroke-miterlimit="10"/>
<path d="M103.4 112C108.371 112 112.4 107.971 112.4 103C112.4 98.0294 108.371 94 103.4 94C98.4298 94 94.4004 98.0294 94.4004 103C94.4004 107.971 98.4298 112 103.4 112Z" stroke="black" stroke-width="2.86" stroke-miterlimit="10"/>
</svg>
