<svg width="146" height="156" viewBox="0 0 146 156" fill="none" xmlns="http://www.w3.org/2000/svg">
<path d="M85.7002 141.6C118.4 135.6 143.1 106.9 143.1 72.4998C143.1 33.6998 111.7 2.2998 72.9002 2.2998C34.1002 2.2998 2.7002 33.6998 2.7002 72.4998C2.7002 107.4 28.2002 136.4 61.6002 141.8V153.7H85.5002L85.7002 141.6Z" stroke="black" stroke-width="4.3202" stroke-miterlimit="10"/>
<path d="M100.6 59.3996C109.382 59.3996 116.5 52.2809 116.5 43.4996C116.5 34.7183 109.382 27.5996 100.6 27.5996C91.8189 27.5996 84.7002 34.7183 84.7002 43.4996C84.7002 52.2809 91.8189 59.3996 100.6 59.3996Z" stroke="black" stroke-width="4.3202" stroke-miterlimit="10"/>
<path d="M44.6002 59.3996C53.3815 59.3996 60.5002 52.2809 60.5002 43.4996C60.5002 34.7183 53.3815 27.5996 44.6002 27.5996C35.8189 27.5996 28.7002 34.7183 28.7002 43.4996C28.7002 52.2809 35.8189 59.3996 44.6002 59.3996Z" stroke="black" stroke-width="4.3202" stroke-miterlimit="10"/>
<path d="M72.6002 124.799C81.3815 124.799 88.5002 117.681 88.5002 108.9C88.5002 100.118 81.3815 92.9995 72.6002 92.9995C63.8189 92.9995 56.7002 100.118 56.7002 108.9C56.7002 117.681 63.8189 124.799 72.6002 124.799Z" stroke="black" stroke-width="4.3202" stroke-miterlimit="10"/>
<path d="M110.2 95.0996C115.723 95.0996 120.2 90.6225 120.2 85.0996C120.2 79.5768 115.723 75.0996 110.2 75.0996C104.677 75.0996 100.2 79.5768 100.2 85.0996C100.2 90.6225 104.677 95.0996 110.2 95.0996Z" stroke="black" stroke-width="2.7092" stroke-miterlimit="10"/>
<path d="M35.4004 95.0996C40.9232 95.0996 45.4004 90.6225 45.4004 85.0996C45.4004 79.5768 40.9232 75.0996 35.4004 75.0996C29.8775 75.0996 25.4004 79.5768 25.4004 85.0996C25.4004 90.6225 29.8775 95.0996 35.4004 95.0996Z" stroke="black" stroke-width="2.7092" stroke-miterlimit="10"/>
</svg>
