<svg width="168" height="148" viewBox="0 0 168 148" fill="none" xmlns="http://www.w3.org/2000/svg">
<path d="M138.6 3.59981C154.8 18.3998 165 39.7998 165 63.4998C165 108.3 128.7 144.6 83.8998 144.6C39.0998 144.6 2.7998 108.3 2.7998 63.4998C2.7998 39.5998 13.0998 18.0998 29.4998 3.2998L138.6 3.59981Z" stroke="black" stroke-width="4.9906" stroke-miterlimit="10"/>
<path d="M33.0998 82.7997C43.2066 82.7997 51.3998 74.6065 51.3998 64.4997C51.3998 54.3929 43.2066 46.1997 33.0998 46.1997C22.993 46.1997 14.7998 54.3929 14.7998 64.4997C14.7998 74.6065 22.993 82.7997 33.0998 82.7997Z" stroke="black" stroke-width="4.9906" stroke-miterlimit="10"/>
<path d="M82.8 82.7997C92.9068 82.7997 101.1 74.6065 101.1 64.4997C101.1 54.3929 92.9068 46.1997 82.8 46.1997C72.6932 46.1997 64.5 54.3929 64.5 64.4997C64.5 74.6065 72.6932 82.7997 82.8 82.7997Z" stroke="black" stroke-width="4.9906" stroke-miterlimit="10"/>
<path d="M133.8 82.7997C143.907 82.7997 152.1 74.6065 152.1 64.4997C152.1 54.3929 143.907 46.1997 133.8 46.1997C123.693 46.1997 115.5 54.3929 115.5 64.4997C115.5 74.6065 123.693 82.7997 133.8 82.7997Z" stroke="black" stroke-width="4.9906" stroke-miterlimit="10"/>
<path d="M109 124.8C119.107 124.8 127.3 116.607 127.3 106.5C127.3 96.3929 119.107 88.1997 109 88.1997C98.8934 88.1997 90.7002 96.3929 90.7002 106.5C90.7002 116.607 98.8934 124.8 109 124.8Z" stroke="black" stroke-width="4.9906" stroke-miterlimit="10"/>
<path d="M58.5998 124.8C68.7066 124.8 76.8998 116.607 76.8998 106.5C76.8998 96.3929 68.7066 88.1997 58.5998 88.1997C48.493 88.1997 40.2998 96.3929 40.2998 106.5C40.2998 116.607 48.493 124.8 58.5998 124.8Z" stroke="black" stroke-width="4.9906" stroke-miterlimit="10"/>
<path d="M106.3 36.4998C112.154 36.4998 116.9 31.754 116.9 25.8998C116.9 20.0456 112.154 15.2998 106.3 15.2998C100.446 15.2998 95.7002 20.0456 95.7002 25.8998C95.7002 31.754 100.446 36.4998 106.3 36.4998Z" stroke="black" stroke-width="3.3804" stroke-miterlimit="10"/>
<path d="M59.1996 36.4998C65.0538 36.4998 69.7996 31.754 69.7996 25.8998C69.7996 20.0456 65.0538 15.2998 59.1996 15.2998C53.3454 15.2998 48.5996 20.0456 48.5996 25.8998C48.5996 31.754 53.3454 36.4998 59.1996 36.4998Z" stroke="black" stroke-width="3.3804" stroke-miterlimit="10"/>
</svg>
