<svg width="117" height="152" viewBox="0 0 117 152" fill="none" xmlns="http://www.w3.org/2000/svg">
<path d="M58.4996 113.6C89.3723 113.6 114.4 88.5725 114.4 57.6998C114.4 26.8271 89.3723 1.7998 58.4996 1.7998C27.6269 1.7998 2.59961 26.8271 2.59961 57.6998C2.59961 88.5725 27.6269 113.6 58.4996 113.6Z" stroke="black" stroke-width="3.4371" stroke-miterlimit="10"/>
<path d="M35.3998 47.3997C42.3586 47.3997 47.9998 41.7585 47.9998 34.7997C47.9998 27.8409 42.3586 22.1997 35.3998 22.1997C28.441 22.1997 22.7998 27.8409 22.7998 34.7997C22.7998 41.7585 28.441 47.3997 35.3998 47.3997Z" stroke="black" stroke-width="3.4371" stroke-miterlimit="10"/>
<path d="M80.1996 47.3997C87.1584 47.3997 92.7996 41.7585 92.7996 34.7997C92.7996 27.8409 87.1584 22.1997 80.1996 22.1997C73.2408 22.1997 67.5996 27.8409 67.5996 34.7997C67.5996 41.7585 73.2408 47.3997 80.1996 47.3997Z" stroke="black" stroke-width="3.4371" stroke-miterlimit="10"/>
<path d="M58.1 100.2C65.0588 100.2 70.7 94.5588 70.7 87.6C70.7 80.6412 65.0588 75 58.1 75C51.1412 75 45.5 80.6412 45.5 87.6C45.5 94.5588 51.1412 100.2 58.1 100.2Z" stroke="black" stroke-width="3.4371" stroke-miterlimit="10"/>
<path d="M88.1994 75.6996C92.2311 75.6996 95.4994 72.4313 95.4994 68.3996C95.4994 64.3679 92.2311 61.0996 88.1994 61.0996C84.1678 61.0996 80.8994 64.3679 80.8994 68.3996C80.8994 72.4313 84.1678 75.6996 88.1994 75.6996Z" stroke="black" stroke-width="2.3282" stroke-miterlimit="10"/>
<path d="M27.4992 75.6996C31.5309 75.6996 34.7992 72.4313 34.7992 68.3996C34.7992 64.3679 31.5309 61.0996 27.4992 61.0996C23.4675 61.0996 20.1992 64.3679 20.1992 68.3996C20.1992 72.4313 23.4675 75.6996 27.4992 75.6996Z" stroke="black" stroke-width="2.3282" stroke-miterlimit="10"/>
<path d="M77.3998 134.9C78.5596 134.9 79.4998 133.96 79.4998 132.8C79.4998 131.64 78.5596 130.7 77.3998 130.7C76.24 130.7 75.2998 131.64 75.2998 132.8C75.2998 133.96 76.24 134.9 77.3998 134.9Z" stroke="black" stroke-width="1.0897" stroke-miterlimit="10"/>
<path d="M38.6996 134.9C39.8594 134.9 40.7996 133.96 40.7996 132.8C40.7996 131.64 39.8594 130.7 38.6996 130.7C37.5398 130.7 36.5996 131.64 36.5996 132.8C36.5996 133.96 37.5398 134.9 38.6996 134.9Z" stroke="black" stroke-width="1.0897" stroke-miterlimit="10"/>
<path d="M38.6994 142.6C44.1118 142.6 48.4994 138.212 48.4994 132.8C48.4994 127.388 44.1118 123 38.6994 123C33.287 123 28.8994 127.388 28.8994 132.8C28.8994 138.212 33.287 142.6 38.6994 142.6Z" stroke="black" stroke-width="3.127" stroke-miterlimit="10"/>
<path d="M76.9992 142.6C82.4116 142.6 86.7992 138.212 86.7992 132.8C86.7992 127.388 82.4116 123 76.9992 123C71.5868 123 67.1992 127.388 67.1992 132.8C67.1992 138.212 71.5868 142.6 76.9992 142.6Z" stroke="black" stroke-width="3.127" stroke-miterlimit="10"/>
<path d="M82.0998 150.1H33.5998C24.0998 150.1 16.2998 142.3 16.2998 132.8C16.2998 123.3 24.0998 115.5 33.5998 115.5H82.0998C91.5998 115.5 99.3998 123.3 99.3998 132.8C99.3998 142.3 91.5998 150.1 82.0998 150.1Z" stroke="black" stroke-width="3.5033" stroke-miterlimit="10"/>
</svg>
