<svg xmlns="http://www.w3.org/2000/svg" data-name="Layer 2" viewBox="0 0 133.36 182.4">
  <g data-name="Layer 1">
    <path d="M51 1.8C29.3 8.1 13.6 25.1 9 47.4c-1.9 9.2-1.9 14.1 0 23 3.2 15.1 13.3 30.2 25.6 38 2.6 1.7 5.5 3.5 6.5 4.2 1.6 1 .4 1.2-6.3 1.2-15.1.1-25.3 6.3-31.5 18.9-2.9 5.9-3.3 7.6-3.3 15.2 0 7.1.4 9.4 2.7 14.2 3.1 6.8 9.9 13.7 16.5 17 4.4 2.1 6.5 2.3 23.3 2.8 10.2.3 29.1.5 42 .5 22.6 0 23.7-.1 28.8-2.4 7-3.2 15.3-12.2 18.2-19.8 1.8-4.8 2.1-7.2 1.7-13.8-.6-9.6-2.1-13.3-8.2-20.5-3.4-4-6.5-6.4-11.3-8.7-5.9-2.8-7.7-3.2-15.2-3.3H90l6.4-3.8C115.5 99 127.9 76 126 54.9c-2.2-25.8-19.9-47.2-44.1-53.4-8.2-2.1-23.1-2-30.9.3Zm34.6 5.3C124 21.3 134 70.6 104.3 99c-9.3 9-24.4 14.9-37.8 14.9-21.7 0-43-15-51.2-36.1-2.6-6.8-3.6-22.9-1.8-31.2 3.9-19 20.2-35.8 40-41.2C61.8 3.1 77.1 4 85.6 7.1Zm23.5 112.4c3.9 1.1 6.8 2.9 10.5 6.5 7 6.9 9.4 12.4 9.4 22.4s-2.7 15.7-9.7 22.1c-8.2 7.5-8.1 7.5-53.8 7.2-39.2-.3-40.6-.4-44.5-2.4-5.4-3-12-9.8-14.7-15.3-3.2-6.7-3.1-17.8.2-24.6s9.6-12.8 16.1-15.3c5.1-2 7.4-2.1 43.2-2.1 31.6-.1 38.8.2 43.3 1.5Z"/>
    <path d="M40.2 24.3c-7.3 2.7-10.7 7.6-10.7 15.4 0 6.3 3 10.9 9 14 7.8 4 17.5.7 21.1-7.2 2.4-5.3 2.4-9-.2-14.2-3.5-7.3-11.8-10.7-19.2-8Zm11.3 2.8c11 5.7 10.2 20.9-1.4 25.3-5.5 2.1-10.9.8-15.1-3.5-2.7-2.8-3-3.8-3-9.5s.3-6.7 3-9.5 6.7-4.7 10.5-4.9c.9-.1 3.6.9 6 2.1Z"/>
    <path d="M41.4 37c-1.6 3 .3 6.9 3.4 6.9 2.9 0 4.7-1.7 4.7-4.5 0-4.5-6-6.3-8.1-2.4Zm6.1 2.4c0 1.8-.5 2.5-1.9 2.5-1.1 0-2.3-.5-2.6-1-1.1-1.8.3-4 2.5-4 1.5 0 2 .7 2 2.5Zm36-14.3c-6 3.1-9 7.7-9 14 0 13.5 13.1 20.7 24.7 13.7 3.5-2.2 7.3-9.1 7.3-13.4s-3.8-11.2-7.4-13.4c-5.3-3.3-10.4-3.6-15.6-.9Zm12.7 1.7c11.2 5.1 10.6 21.2-1.1 25.6-5.5 2.1-10.9.8-15.1-3.5-2.3-2.4-3-4.1-3.3-8.8-.4-5.5-.2-6.1 2.8-9.5 4.9-5.6 10.1-6.8 16.7-3.8Z"/>
    <path d="M86.7 36.1c-.7.7-1.2 2.1-1.2 3.3s.5 2.6 1.2 3.3 2.1 1.2 3.3 1.2 2.6-.5 3.3-1.2 1.2-2.1 1.2-3.3-.5-2.6-1.2-3.3-2.1-1.2-3.3-1.2-2.6.5-3.3 1.2Zm5.8 2.8c0 2.4-2.6 3.8-4.2 2.2s-.2-4.2 2.2-4.2c1.3 0 2 .7 2 2ZM31.8 64.4c-4.4 1.9-7.3 6.1-7.3 10.7 0 3.2.7 4.7 3.4 7.4 2.9 2.9 4.1 3.4 8.1 3.4s5.2-.5 7.5-2.9c3.3-3.2 4.5-6.9 3.6-10.6-1.6-6.4-9.4-10.5-15.3-8Zm10.8 4.2c3.5 3.6 3.2 9.7-.4 12.9-4.2 3.6-9.8 3.3-13.1-.7-7.8-9.3 5.2-21.1 13.5-12.2Z"/>
    <path d="M33.2 72.4c-1.9 1.9-1.1 5.2 1.5 6 3.7 1.2 6.4-3.5 3.6-6.3-1.6-1.6-3.3-1.5-5.1.3Zm3.8 2.5c0 .7-.6 1.5-1.2 1.7-.8.3-1.3-.4-1.3-1.7s.5-2 1.3-1.8c.6.3 1.2 1.1 1.2 1.8Zm60.5-11.3c-6 1.8-9 5.6-9 11.3 0 6.7 4.3 10.9 11.1 11 14.1 0 15.8-19.4 1.9-22.3-1.4-.3-3.2-.3-4 0Zm5.5 2.7c9.7 4.1 7 17.6-3.5 17.6-9.9 0-12.8-13.6-3.7-17.5 4-1.8 3.2-1.7 7.2-.1Z"/>
    <path d="M96.5 72.8c-1.3 2.5-.4 4.8 2.1 5.6 3.8 1.2 6.5-3.5 3.7-6.3-1.8-1.8-4.6-1.4-5.8.7Zm4.6 1.2c1 1.7-1.3 3.6-2.7 2.2-1.2-1.2-.4-3.3 1.1-3.3.5 0 1.2.5 1.6 1.1Zm-41.1.9c-13.4 6.7-11.3 26 3.3 30 10.5 2.8 21.5-7.4 19.7-18.3-1.3-7.2-9.3-13.7-17-13.7-1.1 0-3.8.9-6 2Zm12.4 1.6c12.2 4.8 10.9 22.7-1.9 26.4-7.4 2.1-15.9-3.5-17.4-11.4-1.1-5.6 2.5-12.3 7.8-14.7 5-2.3 6.5-2.3 11.5-.3Z"/>
    <path d="M63.7 86.1c-.7.7-1.2 2.1-1.2 3.3s.5 2.6 1.2 3.3 2.1 1.2 3.3 1.2 2.6-.5 3.3-1.2 1.2-2.1 1.2-3.3-.5-2.6-1.2-3.3-2.1-1.2-3.3-1.2-2.6.5-3.3 1.2Zm5.6 3.1c.4 2-2.5 3.4-4 1.9s-.1-4.4 1.9-4c1 .2 1.9 1.1 2.1 2.1ZM28.7 123c-20 3.7-27.1 30.2-11.7 43.8 5.3 4.6 9.4 6.1 16.7 6.1 19.6 0 31.2-19.2 22.5-36.9-4.7-9.5-16.4-15-27.5-13Zm15.5 4c5.5 2.7 9.9 8 12 14.6 4.5 14.4-6.8 29.3-22.1 29.3-7.8 0-13.1-2.4-17.9-8-10-11.8-6.1-29.8 7.8-36.1 5.6-2.6 14.7-2.5 20.2.2Z"/>
    <path d="M28 142.4c-5.1 5-1.5 13.5 5.8 13.5 5.4 0 9.5-5.7 7.6-10.7-2.2-5.7-9.1-7.2-13.4-2.8Zm9 .1c3.7 1.5 3.8 8.2.1 10.6-2.3 1.6-6.5.8-8-1.4-4-5.7 1.2-11.7 7.9-9.2ZM88.7 125c-14.9 7.6-18.9 27-8 39.4 5.3 6 10.8 8.5 19 8.5 12.3 0 22.1-7.9 24.7-19.7 2.2-10.5-2.4-21.3-11.4-26.7-6.8-4.1-17.8-4.8-24.3-1.5Zm22.5 2.3c3.4 1.7 6.5 5 9 9.6 6.2 11.2 1.7 25.7-9.7 31.5-15.6 7.9-33.9-3-34-20.3 0-11.6 8.3-21.5 19.5-23.2 4.7-.7 11.3.3 15.2 2.4Z"/>
    <path d="M94 142.4c-5.1 5-1.5 13.5 5.8 13.5 4.4 0 7.7-3.4 7.7-8.1 0-7.2-8.4-10.6-13.5-5.4Zm9.9 1.1c.9.8 1.6 2.8 1.6 4.4 0 3.6-2.3 6-5.7 6-5.5 0-8.3-6.2-4.6-10.2 2-2.2 6.6-2.4 8.7-.2Z"/>
  </g>
</svg>
