<?xml version="1.0" encoding="UTF-8"?>
<svg id="Layer_2" data-name="Layer 2" xmlns="http://www.w3.org/2000/svg" viewBox="0 0 143.77 152.54">
  <g id="Layer_1-2" data-name="Layer 1">
    <path d="M59.47,1.29C30.57,6.69,7.57,28.59,1.37,56.49c-2.5,11.4-1.5,28.1,2.3,39.5,4.1,11.9,8.4,18.9,17.3,27.8,9,8.9,15.7,13.1,28.2,17.4q9.3,3.2,9.6,6.9c.3,3.4,.5,3.6,4.7,4.2,3.2,.5,20.1,.2,22.3-.4,.1-.1,.2-1.8,.2-4v-3.8l8.4-2.8c11.6-3.7,19.6-8.7,28.5-17.5,13.6-13.4,20-28.1,20.8-47.5,.8-18-3.1-32-13.1-45.8C119.37,14.79,103.47,4.69,83.97,1.19c-9.2-1.6-15.4-1.6-24.5,.1Zm34.3,6.8c10.6,3.7,17.6,8.2,26.3,16.7,13.7,13.6,20.6,31.7,19.6,51-.6,11.3-3.9,22.6-9.4,31.9-4.9,8.3-15.1,18.5-23.4,23.4-5.4,3.2-9.8,4.8-24.6,9.3-.7,.2-1.3,1.9-1.3,3.9v3.5h-18v-7.6l-6.2-1.3c-14.2-2.8-31.9-14.4-39.6-25.8C1.47,89.89-.53,66.29,11.37,42.29,20.27,24.29,36.47,11.19,55.87,6.29c3.8-1,9.7-1.3,18.1-1.1,10.4,.2,13.7,.7,19.8,2.9Z"/>
    <path d="M33.27,27.39c-7.6,2.8-14.3,12.3-14.3,20.3,0,7.5,5.6,16.1,12.4,19.2,14.3,6.5,30.6-3.9,30.6-19.4,0-14.3-15.3-25-28.7-20.1Zm16.7,3.3c8.4,4.3,12.4,16.4,8.2,24.8-2.7,5.3-8.3,10-12.7,10.9-12.3,2.3-22.5-4.9-24.1-16.9-.6-3.8-.2-5.6,2-10.1,5.1-10.4,16.2-14.1,26.6-8.7Z"/>
    <path d="M35.67,42.59c-3.9,4.3-.7,12.2,4.8,12.2,3,0,7.5-4.1,7.5-6.8,0-1.1-.9-3.1-2.1-4.6-2.5-3.2-7.7-3.6-10.2-.8Zm8.8,2.2c1.5,1.7,1.6,2.4,.7,4.5-1.5,3.2-3.7,4.1-6.8,2.7-1.7-.8-2.4-2-2.4-4,0-5.2,5-7.1,8.5-3.2Z"/>
    <path d="M96.37,27.39c-13.8,5-18.6,22.4-9.3,33.7,4.1,4.9,7.6,6.7,15.2,7.4,5.2,.4,7,.2,10.3-1.5,11.7-6,15.6-19.3,9-30.6-4.8-8.3-16.2-12.3-25.2-9Zm16.7,3.4c7.5,3.9,11.6,14.2,8.9,22.5-1.6,4.7-6.6,10.4-10.7,12.1-7.1,3-16.7,.9-22-4.8-9.8-10.5-4.8-27.3,9.5-31.8,3.7-1.2,9.6-.4,14.3,2Z"/>
    <path d="M98.47,42.79c-2.6,2.9-2.4,7.9,.4,10.2,6.6,5.3,15.3-2.9,10.1-9.5-2.7-3.4-7.8-3.7-10.5-.7Zm9,2c1.5,1.7,1.6,2.4,.7,4.5-1.5,3.2-3.7,4.1-6.8,2.7-1.7-.8-2.4-2-2.4-4,0-5.2,5-7.1,8.5-3.2Z"/>
    <path d="M23.67,80.79c-6.2,1.9-10.1,8.5-9.1,15.2,.9,5.7,2.9,8.5,7.7,11,9.7,4.9,20.7-2,20.7-13.1,0-10-9.1-16.1-19.3-13.1Zm10,1.7c4.7,2.2,7.3,6.6,7.3,12.4,0,4.1-.4,5.1-3.5,7.8-4.4,3.9-7.6,4.7-12.6,3.2-7.5-2.3-11.1-10.9-7.4-18,1.3-2.7,8.4-7.1,11.3-7.1,.8,0,3,.8,4.9,1.7Z"/>
    <path d="M25.57,90.39c-3.2,3.1-1.4,8.4,2.9,8.4,4.6,0,6.2-5.7,2.3-8.4-2.8-2-3.3-2-5.2,0Zm5.9,3.4c0,2-.5,2.5-2.5,2.5-2.8,0-4.1-3.2-1.8-4.6,2.3-1.5,4.3-.5,4.3,2.1Z"/>
    <path d="M108.97,81.69c-1.9,1-4.5,3.6-5.8,5.7-6,10.3,2.4,22.6,14.3,20.9,5.4-.9,9.2-3.6,11.1-8.1,2-4.7,1.7-9.3-.6-13.2-4.1-6.7-12.1-9-19-5.3Zm14.6,3.4c6.8,6.2,5.1,16.8-3.1,20.3-4.4,1.8-6.9,1.8-10.6-.1-4.1-2.2-6.9-7.1-6.9-12.4,0-3.6,.6-4.9,3.4-7.7,3-3,4-3.4,8.5-3.4s5.6,.5,8.7,3.3Z"/>
    <path d="M112.77,89.89c-2.6,1.5-2.3,6.5,.3,8,3.4,1.8,6.9-.3,6.9-4,0-4.2-3.6-6.2-7.2-4Zm5,3.5c.4,2.9-2.3,5.1-4.3,3.4-1.8-1.5-1.9-3.2-.3-4.8,1.8-1.8,4.2-1,4.6,1.4Z"/>
    <path d="M63.47,95.49c-9,4.8-12.5,10.2-12.5,19.1,0,11.5,6.7,19.5,18,21.6,4.3,.7,12.6-1.5,16.4-4.5,8-6.3,10.3-19,4.9-27.7-5.3-8.6-18.7-12.9-26.8-8.5Zm15.3,.8c17.6,7.4,15.9,33.2-2.5,37.3-10,2.3-21.1-4.4-23-13.9-1.7-8.3,1.7-17.2,8.1-21.5,2-1.3,8.3-2.9,12.4-3.3,.7-.1,2.9,.6,5,1.4Z"/>
    <path d="M67.07,110.19c-1.9,2-2.2,3.2-1.7,6,1.7,8.9,14.7,6.7,13.3-2.1-1.1-6.3-7.4-8.4-11.6-3.9Zm8.9,1.7c2.5,4.5-1.2,8.9-6,7.4s-3.1-9.5,2-9.5c1.9,0,3.3,.7,4,2.1Z"/>
  </g>
</svg>