<svg viewBox="0 0 163.68 139.02" xmlns="http://www.w3.org/2000/svg"><path d="m23.14 1.5c-6.2 2.7-17.7 21.2-20.2 32.5-.5 2.5-1.5 7.1-2.2 10.2-1.5 7.1-.6 26 1.6 34.3 7.6 28 31.5 51.3 59.9 58.5 9.8 2.5 27.9 2.7 37.6.5 29.7-6.9 53.6-29.8 61.6-59 2.5-9.2 3-27.6 1-36.5-4.6-20.1-13-35.6-21.7-40-3.7-1.9-6.1-2-59.1-2-44.6.1-55.9.3-58.5 1.5zm115.7 4.5c9.1 4.7 19.4 26.6 20.6 44.3 1.2 17.3-3.3 35.8-12.1 49.2-5.6 8.7-17.9 20.3-26.6 25.2-16.4 9.3-35.9 12.5-53.6 8.9-29.5-5.9-53-28.2-61-57.6-2.7-10-2.4-30.1.6-40 4.4-14.2 12.7-28.1 18.4-30.5 2.6-1.2 13.3-1.4 56.5-1.5 51.3 0 53.4.1 57.2 2z"/><path d="m49.94 8.2c-5.8 3-8.3 6.5-8.8 12.5-.8 9.3 5.7 16.3 15.2 16.3 14.9 0 21.1-18.3 9.3-27.3-5-3.8-10.3-4.3-15.7-1.5zm13.6 2.3c6.2 4.1 8 12.6 4 18.6-2.8 4.2-6 5.9-11.2 5.9s-8.4-1.7-11.2-5.9c-3-4.4-3-9.8 0-14.2 4.3-6.5 12.2-8.4 18.4-4.4z"/><path d="m52.44 18.6c-.9.8-1.6 2.3-1.6 3.3 0 2.4 3.1 5.1 5.8 5.1 2.1 0 5.2-3.4 5.2-5.7 0-1.9-3-4.3-5.5-4.3-1.3 0-3.1.7-3.9 1.6zm6.8 2c.7 1.9-1 4.4-2.9 4.4s-3.6-2.5-2.9-4.4c.3-.9 1.6-1.6 2.9-1.6s2.6.7 2.9 1.6z"/><path d="m103.34 7.2c-12.2 4.3-14.2 21.1-3.3 27.8 4.4 2.6 12.2 2.7 16.5 0 4.6-2.8 7.6-9.2 7-14.8s-3.2-9.1-8.7-12c-4.8-2.4-6.9-2.6-11.5-1zm12.2 3.3c3.2 2.2 6.3 7.4 6.3 10.8 0 3.7-2.2 8.7-4.9 11.1s-11.6 3.2-15.1 1.4c-6.6-3.5-8.9-12.7-4.7-18.9 4.3-6.5 12.2-8.4 18.4-4.4z"/><path d="m104.44 18.6c-2.1 2.1-2 4.7.2 6.7 2.7 2.4 5.9 2.1 7.8-.8 1.5-2.3 1.5-2.7 0-5-1.9-2.9-5.6-3.3-8-.9zm6.8 2c.8 2.1-1.1 4.4-3.5 4.4-1.9 0-3.5-3.3-2.4-5 1-1.6 5.2-1.2 5.9.6z"/><path d="m25.54 36.4c-12.8 4.7-18.9 18.3-13.7 30.4 10 23.3 44.1 15.9 44-9.4 0-4.4-3.1-11.8-6.3-15.2-5.4-5.8-16.7-8.6-24-5.8zm13.6 1.8c11.5 3.5 17.8 17.4 12.8 28.3-6.5 14-24.7 16.7-34.8 5.2-7.8-8.9-6.4-23.1 3-30.1 6.1-4.5 11.9-5.5 19-3.4z"/><path d="m27.44 52.9c-2.8 3-2.4 8 .8 10.8 3.4 2.9 5.8 2.9 9.2 0 3.3-2.8 3.7-7.6.9-10.7-2.4-2.6-8.5-2.7-10.9-.1zm10 2.7c1.6 2.4 1.6 2.7-.3 5.2-2.7 3.6-4.8 3.8-7.8.8-2.5-2.5-2.5-4.4-.2-7.4 1.7-2.2 6.5-1.4 8.3 1.4z"/><path d="m75.64 36.4c-5.3 1.9-8.3 4-11.1 7.8-13.4 18.1 3.7 42.2 25.4 35.7 9.3-2.8 15.3-11.4 15.4-22 0-5.6-.4-7.3-3-11.5-5.6-9-17.5-13.5-26.7-10zm15.2 2.7c5.6 2.5 7.7 4.4 10 8.9 4.2 8.3 3.4 16.6-2.3 23.5-9.7 11.8-28.3 9.1-34.8-5-7.9-17.1 10-35.2 27.1-27.4z"/><path d="m76.94 53.6c-2.4 3-2.6 4.3-1 7.7 1.1 2.4 4.7 4.7 7.3 4.7.7 0 2.5-.9 4-2.1 3.3-2.6 3.6-7.9.6-10.9s-8.3-2.7-10.9.6zm9.7.6c2.1 2.1 1.4 6.6-1.3 8.4-3 2-5.8 1.1-7.4-2.2-.9-2.2-.9-3.1.4-5 1.7-2.6 6.2-3.3 8.3-1.2z"/><path d="m123.34 37.3c-8.7 4.2-13.5 11.6-13.5 20.9.1 15.6 15.4 26.6 30.1 21.7 11-3.7 17.8-16.1 14.9-27-3.7-14.2-18.8-21.7-31.5-15.6zm18.6 2.4c14.2 7.3 15.4 26.4 2.2 35.6-7.8 5.6-19.4 4.5-26.3-2.5-13-12.9-3.5-35.5 15.1-35.8 2 0 5.9 1.2 9 2.7z"/><path d="m126.94 53.6c-2.4 3-2.6 4.3-1 7.7 3.2 7.1 13.9 4.7 13.9-3 0-7-8.6-10.1-12.9-4.7zm9.7.6c2.1 2.1 1.4 6.6-1.3 8.4-5.2 3.4-11.1-3.1-7-7.6 2-2.2 6.5-2.6 8.3-.8z"/><path d="m54.84 79.9c-12.6 4.1-19.5 15.1-16.9 27.2 3.2 14.9 19.9 22.5 33.4 15.1 7.2-3.9 10.8-9.6 11.3-17.6.2-3.5-.1-8.1-.8-10.1-1.6-4.7-6.3-10.1-11-12.5-4.3-2.2-12.4-3.3-16-2.1zm10.4 2.2c12.9 3.2 19.4 17.9 13.4 29.9-5.8 11.4-22 14.6-31.9 6.3-6.3-5.3-8.7-15.2-5.9-23.7 1.3-4.2 8.8-11.3 12.7-12.2 1.5-.3 3.3-.7 3.8-.9 1.9-.6 3.6-.5 7.9.6z"/><path d="m55.04 97.3c-1.2 1.3-2.2 3.6-2.2 5.1 0 3.4 4.1 7.6 7.5 7.6s7.5-4.1 7.5-7.3c0-6.7-8.3-10.2-12.8-5.4zm9.2 1.6c2.4 2.6 1.7 6.2-1.5 8-2.4 1.3-2.9 1.3-5.3-.2-1.6-1.1-2.6-2.7-2.6-4.2 0-5 6-7.3 9.4-3.6z"/><path d="m103.84 80.3c-8.8 2.9-14.4 9.1-16.2 17.9-4 19.8 18.3 34.1 35.5 22.7 15.5-10.2 11.6-35-6.4-40.3-6.1-1.8-8.1-1.9-12.9-.3zm11.4 1.8c18.3 4.6 21.1 30.7 4.2 38.8-11.8 5.8-26-.7-29.6-13.5-3-10.5 3.8-22.1 14.8-25.4 3.8-1.2 5.7-1.2 10.6.1z"/><path d="m104.84 97c-3 3-2.7 8.3.6 10.9 4.3 3.4 8.6 2.6 10.9-2 2.1-3.9 1.9-5.6-1-8.4-3-3.1-7.7-3.3-10.5-.5zm9.5 2c4.1 4.6-2.9 11.6-7.5 7.5-1.1-1-2-3.1-2-4.6 0-4.8 6.1-6.6 9.5-2.9z"/></svg>
