<?xml version="1.0" encoding="UTF-8"?>
<svg id="Layer_2" data-name="Layer 2" xmlns="http://www.w3.org/2000/svg" viewBox="0 0 146.33 146.7">
  <g id="Layer_1-2" data-name="Layer 1">
    <path d="M60.53,1.2c-4,.7-9.4,2.1-12.1,3.1-4.2,1.5-5.7,1.6-11,.5l-6.2-1.2-8.9,7.7c-5,4.3-9,8.5-9,9.4,0,.8,.4,3,1,4.9,.8,3.1,.6,3.9-2.4,8-1.9,2.6-4.2,6.7-5.2,9.1-.9,2.5-2,4.9-2.4,5.5C1.43,52.4-.87,71.5,.33,81.3c2.1,18,8.4,30.9,21.4,44,15,15,30.5,21.4,51.6,21.4,18.9,0,35.4-6.2,48.6-18.3,16.5-15.1,24.4-32.8,24.4-54.8,0-15.6-4-28.9-12.7-42-2-3.1-2.3-4.4-1.8-8.1,.7-4.3,.6-4.4-5.3-9.5-13.3-11.6-11.5-10.7-18.1-9.3-5.3,1.1-6.5,1-12.2-.9C83.93-.2,72.83-1,60.53,1.2Zm34.4,6.7c6.3,2.2,7.8,2.4,12.7,1.5,6.1-1.1,5.6-1.4,16.1,8,3.5,3.2,3.8,3.8,3.3,7.5-.5,3.5,0,4.8,3.3,9.7,10.4,15.4,14.3,35.2,10.5,53.6-.8,3.8-3.5,11.1-5.9,16-17.1,34.7-58.6,48.4-93.4,30.8-14.5-7.3-28.2-23.1-33.7-39-2.2-6.3-2.8-10.2-3.2-20.3-.5-11-.3-13.4,1.7-20,2.4-8,6.2-16.1,10.4-22.4,2.3-3.2,2.6-4.5,2-8.1-.6-4.1-.4-4.5,3.2-7.8,10.6-9.5,9.9-9.1,16.6-7.9,4.2,.8,6.7,.8,8,.1,10.2-5.5,35.3-6.4,48.4-1.7Z"/>
    <path d="M66.13,16.4c-2.1,.8-3.8,2-3.8,2.7,0,1.4,10.1,11.6,11.6,11.6,1.6,0,10.4-9.4,10.4-11.2,0-1.9-6.8-4.8-11.3-4.7-1.7,0-4.9,.7-6.9,1.6Zm4,2.2c-1.7,2.7,0,5.6,3.2,5.6s4.9-2.9,3.2-5.5c-1-1.7-1-2,.2-2,1.9,0,6.6,2.1,6.6,2.9,0,.4-2.2,2.8-4.8,5.4l-4.8,4.7-5.3-5.4-5.3-5.3,3.9-1.6c4.5-1.8,4.9-1.6,3.1,1.2Zm5.2,.7c1.1,1.2,1,1.8-.3,3.2-1.6,1.5-1.8,1.5-3.4,0-1.3-1.4-1.4-2-.3-3.2,.7-.9,1.6-1.6,2-1.6s1.3,.7,2,1.6Z"/>
    <path d="M56.73,24.9c-3.2,6.2-1.2,19.8,2.9,19.8,1.5,0,11.7-10.1,11.7-11.6,0-1.4-10.3-11.4-11.8-11.4-.6,0-1.9,1.5-2.8,3.2Zm8.4,3.1l5.2,5.3-5.5,5.4-5.4,5.4-1.6-3.7c-2.1-5-1.9-6.4,.4-4.3,2.8,2.5,6.3,.5,5.9-3.2-.3-3-3.9-4.2-6.4-2.2-1.1,1-1.4,.9-1.4-.4,0-1.5,2.7-7.6,3.3-7.6,.2,0,2.6,2.4,5.5,5.3Zm-2.3,5.2c0,1.3-.8,2.1-2.2,2.3-1.7,.3-2.3-.2-2.3-1.6,0-1,.3-2.2,.7-2.6,1.3-1.3,3.8-.1,3.8,1.9Z"/>
    <path d="M81.53,27c-2.9,2.9-5.2,5.7-5.2,6.3,0,1.8,10.5,11.4,11.6,10.6,2.1-1.4,3.4-5.1,3.4-10.2s-2.2-12-3.7-12c-.5,0-3.2,2.4-6.1,5.3Zm7.7-.1c1.3,3.6,.8,4.6-1.3,2.9-2.4-2-5.8,.4-5.4,3.7,.3,2.4,.7,2.7,4.1,2.6,2-.1,3.7,0,3.7,.1,0,1.1-2.3,6.5-2.8,6.5-.4,0-2.8-2.1-5.4-4.7l-4.7-4.6,4.2-4.8c2.3-2.7,4.7-4.8,5.4-4.9,.6,0,1.6,1.4,2.2,3.2Zm-.9,5.8c0,2.4-2.6,3.8-4.2,2.2s-.2-4.2,2.2-4.2c1.3,0,2,.7,2,2Z"/>
    <path d="M67.53,41c-2.9,2.9-5.2,5.8-5.2,6.5,0,1.9,6.2,4.2,11.1,4.2,4,0,10.4-2.3,11.5-4.2,.7-1.1-9.4-11.8-11.1-11.8-.6,0-3.4,2.4-6.3,5.3Zm15.8,5.9c0,.8-2,1.8-7,3.3-2.5,.8-2.5,.7-.7-1.3,2.2-2.4,1.9-5-.5-6.6-4-2.5-7.4,3-4.2,6.5q1.8,2-1.1,1.3c-7.1-1.7-7.2-2.1-1.4-8l5.3-5.4,4.8,4.7c2.6,2.6,4.8,5.1,4.8,5.5Zm-8-2.6c1.1,1.2,1,1.8-.3,3.2-1.6,1.5-1.8,1.5-3.4,0-1.3-1.4-1.4-2-.3-3.2,.7-.9,1.6-1.6,2-1.6s1.3,.7,2,1.6Z"/>
    <path d="M31.33,55.3c-19.4,8.4-14.5,38.4,6.5,40.2,20.6,1.7,31.4-22.3,16.4-36.5-1.9-1.7-4.7-3.7-6.2-4.2-4-1.6-12.6-1.3-16.7,.5Zm17.6,2.4c8,3.9,12.2,14,9.4,22.5-1.6,4.7-6.6,10.4-10.7,12.1-6.3,2.7-15.7,1.1-20.6-3.4-6.3-5.6-7.7-17.8-2.9-24.7,5.6-8.1,15.9-10.8,24.8-6.5Z"/>
    <path d="M34.63,67.5c-3.5,2.7-4.5,6.7-2.9,10.7,2.6,6.3,9.7,7.5,14.7,2.6,3.6-3.7,3.8-7.9,.5-11.8-3-3.5-8.9-4.3-12.3-1.5Zm11.5,2.9c3.1,4.2-.5,11.3-5.8,11.3-4.4,0-7-2.6-7-7,0-5.3,3.6-8.3,8.3-6.9,1.8,.5,3.8,1.7,4.5,2.6Z"/>
    <path d="M98.83,55.4c-13.2,6.9-16.4,22-7,33,12.5,14.7,36.9,5.7,36.8-13.6,0-9-4.6-16.3-12.5-19.6-4.8-1.9-13.4-1.9-17.3,.2Zm16.8,1.9c11.3,5.7,14.6,19.3,7.1,29.1-6.1,8-18.5,9.7-26.1,3.7-4.5-3.6-8.3-10.5-8.3-15.1,0-6.9,5.3-15.1,11.5-17.9,4.1-1.8,11.9-1.7,15.8,.2Z"/>
    <path d="M100.93,68.8c-3.5,4.1-3.4,8.3,.3,12,5,4.9,12.1,3.7,14.7-2.7,4-9.5-8.4-17.2-15-9.3Zm11.9,.9c4.2,4.7,.8,12-5.5,12-3.3,0-7-4-7-7.4,0-5.7,8.6-8.9,12.5-4.6Z"/>
    <path d="M67.63,97c-6.2,2.3-6.2,3.2-.3,9.2,3,3,5.9,5.5,6.5,5.5s3.5-2.5,6.5-5.6c5.3-5.3,5.4-5.6,3.5-7-2.2-1.6-8.1-3.4-11-3.3-1.1,0-3.4,.6-5.2,1.2Zm2.5,2.7c-1.8,2.8,.1,5.5,3.8,5.5,2.3,0,3-.5,3.2-2.3,.2-1.3-.2-3-.8-3.8-1-1.1-.9-1.4,.4-1.4,1.5,0,5.3,1.5,6.5,2.7,.3,.2-1.7,2.6-4.4,5.3l-4.9,5-4.8-4.7c-2.6-2.6-4.8-5.1-4.8-5.5,0-.9,3.7-2.6,5.8-2.7,1-.1,1,.3,0,1.9Zm6.2,2.7c0,2.1-2.9,2.8-4.6,1.1-1.4-1.3-1.4-1.7,.1-3.2,1.3-1.3,2-1.4,3.1-.5,.8,.6,1.4,1.8,1.4,2.6Z"/>
    <path d="M57.33,105.9c-3.4,5.6-1.7,19.8,2.2,19.8,1.6,0,11.8-10.1,11.8-11.6,0-1.1-10.2-11.4-11.3-11.4-.4,0-1.6,1.5-2.7,3.2Zm8.2,3.5l4.7,4.6-3.6,4.1c-2,2.3-4.5,4.7-5.5,5.4-1.7,1.2-2,1-3.4-2.3-1.7-4.1-1.3-5.5,1-3.6,1.8,1.5,5.2,.6,6-1.5,1.5-3.9-4.2-7.2-7.2-4.2-.7,.7-1.2,.9-1.2,.5,0-1.6,2.9-7.7,3.7-7.7,.4,0,2.9,2.1,5.5,4.7Zm-2.4,4.7c.4,2.1-1.4,3.7-3.5,2.9-1.4-.5-1.8-3.5-.6-4.7s3.8-.1,4.1,1.8Z"/>
    <path d="M81.03,108.5c-2.6,2.6-4.7,5.2-4.7,5.8,0,.5,2.5,3.4,5.4,6.3,4.5,4.5,5.8,5.2,7,4.2,1.9-1.6,4-10.3,3.1-13.3-2.6-9.3-4.1-9.8-10.8-3Zm8.1-1.3c1.7,3.8,1.6,6.1-.2,4.5-.8-.6-2.5-1-3.8-.8-1.8,.2-2.3,.9-2.3,3.2,0,4.1,2.7,5.6,5.6,3.1l2.2-2-.7,3.5c-1.1,5.8-2.2,5.8-7.6,.5l-5-4.9,4.7-4.8c2.6-2.6,5-4.8,5.4-4.8,.3,0,1.1,1.1,1.7,2.5Zm-1,7.3c.3,1.6-.2,2.2-1.7,2.2-2.4,0-3.5-1.5-2.7-3.6,.9-2.3,4-1.3,4.4,1.4Z"/>
    <path d="M67.53,122c-2.9,2.9-5.2,5.8-5.2,6.5,0,2,5.7,4.2,11.2,4.2,5.1,0,11.8-2.7,11.8-4.8,0-1.1-10.4-11.2-11.6-11.2-.5,0-3.3,2.4-6.2,5.3Zm11.6,1c2.3,2.3,4.2,4.6,4.2,5,0,.8-5.5,3.7-7.2,3.7-.9,0-.9-.3,0-1.2,1.8-1.8,1.4-5.6-.7-6.8-4.2-2.2-7.7,2.5-4.5,6.1,2.1,2.3,.7,2.5-4.3,.4l-3.7-1.6,4.9-4.9c2.7-2.8,5.4-5,6-5s3,1.9,5.3,4.3Zm-3.3,4.2c0,2.3-3.4,3.3-4.5,1.4-1.3-2,.1-4,2.4-3.7,1.3,.2,2.1,1,2.1,2.3Z"/>
  </g>
</svg>
