<svg id="svg" version="1.1" xmlns="http://www.w3.org/2000/svg" xmlns:xlink="http://www.w3.org/1999/xlink" width="400" height="386.9565217391304" viewBox="0, 0, 400,386.9565217391304"><g id="svgg"><path id="path0" d="M118.095 88.283 C 114.874 88.597,110.922 89.624,110.536 90.248 C 110.400 90.469,109.287 91.135,108.064 91.727 C 99.079 96.080,88.461 105.627,83.252 114.037 C 82.329 115.528,81.268 117.096,80.894 117.522 C 80.521 117.948,79.599 119.651,78.847 121.308 C 78.094 122.964,76.871 125.316,76.127 126.535 C 74.869 128.598,69.710 143.035,68.335 148.342 C 65.984 157.417,65.000 183.552,66.580 194.958 C 66.994 197.944,67.505 202.043,67.717 204.066 C 68.131 208.033,74.289 227.630,76.479 231.951 C 77.059 233.096,78.113 235.406,78.821 237.085 C 79.529 238.763,80.530 240.690,81.045 241.366 C 81.560 242.041,82.435 243.490,82.989 244.585 C 84.889 248.337,91.232 257.514,94.869 261.773 C 101.458 269.488,107.227 275.389,111.326 278.608 C 112.391 279.444,113.698 280.520,114.230 280.999 C 115.826 282.434,118.109 284.107,121.588 286.390 C 123.398 287.579,125.637 289.081,126.563 289.729 C 127.999 290.733,134.148 294.013,142.498 298.230 C 143.669 298.821,145.499 299.595,146.563 299.948 C 147.628 300.302,149.504 301.094,150.732 301.708 C 151.960 302.322,155.794 303.511,159.251 304.349 C 162.708 305.188,166.409 306.211,167.473 306.622 C 174.199 309.223,195.495 310.561,210.907 309.351 C 220.033 308.635,222.783 308.176,228.227 306.459 C 229.909 305.929,233.729 304.977,236.717 304.343 C 240.338 303.576,242.805 302.823,244.115 302.087 C 245.195 301.480,247.885 300.321,250.092 299.513 C 252.299 298.704,255.046 297.503,256.197 296.843 C 262.581 293.183,268.658 289.473,269.506 288.717 C 270.039 288.243,271.241 287.366,272.179 286.768 C 283.869 279.312,298.350 263.601,307.900 248.015 C 310.156 244.334,315.018 234.425,316.376 230.740 C 316.986 229.086,317.948 226.819,318.514 225.702 C 319.081 224.585,320.211 220.958,321.027 217.644 C 321.843 214.329,322.937 210.484,323.457 209.100 C 324.744 205.679,325.123 203.570,326.032 194.773 C 326.462 190.620,326.983 186.002,327.192 184.511 C 327.672 181.079,327.352 168.581,326.622 162.246 C 326.315 159.584,325.872 155.227,325.638 152.565 C 325.104 146.484,324.776 145.013,323.118 141.241 C 322.383 139.570,321.270 136.113,320.643 133.560 C 320.016 131.006,319.163 128.357,318.746 127.672 C 318.329 126.988,317.376 124.947,316.628 123.136 C 314.080 116.967,309.154 109.077,305.518 105.338 C 304.560 104.352,302.370 102.073,300.653 100.273 C 296.174 95.577,288.172 90.560,282.285 88.755 C 280.010 88.057,124.977 87.611,118.095 88.283 M157.018 97.041 C 161.618 97.819,168.353 102.296,171.777 106.850 C 185.982 125.746,163.305 152.291,142.570 141.040 C 129.956 134.196,125.514 119.071,132.840 107.917 C 136.673 102.082,144.108 97.353,150.306 96.807 C 153.521 96.524,154.076 96.543,157.018 97.041 M245.048 98.070 C 256.424 102.144,264.077 114.813,261.139 124.707 C 254.899 145.718,231.523 150.330,218.574 133.106 C 205.664 115.932,224.674 90.774,245.048 98.070 M234.406 112.670 C 227.709 116.511,227.996 124.592,234.957 128.180 C 243.410 132.537,250.826 120.312,243.468 114.151 C 240.197 111.413,237.396 110.955,234.406 112.670 M147.844 113.979 C 143.753 117.450,142.920 122.234,145.844 125.470 C 151.400 131.619,160.263 129.627,161.098 122.041 C 162.007 113.781,153.894 108.846,147.844 113.979 M117.530 145.191 C 144.168 152.650,154.151 182.144,136.757 201.991 C 135.197 203.771,133.803 205.228,133.659 205.228 C 133.515 205.228,132.614 205.944,131.655 206.818 C 125.887 212.082,113.369 215.518,104.935 214.153 C 96.744 212.827,85.539 205.185,81.632 198.258 C 78.513 192.729,77.828 191.280,77.052 188.577 C 70.229 164.793,94.526 138.749,117.530 145.191 M203.098 144.855 C 213.929 147.772,223.240 155.489,228.054 165.537 C 232.759 175.359,233.049 183.086,229.026 191.481 C 228.312 192.972,227.310 195.150,226.799 196.321 C 225.661 198.930,222.092 203.466,219.855 205.146 C 218.944 205.830,217.351 207.067,216.315 207.894 C 210.271 212.720,198.840 215.505,191.247 214.001 C 174.166 210.619,161.394 195.957,161.342 179.671 C 161.294 164.624,175.228 147.773,190.126 144.859 C 192.639 144.368,201.278 144.365,203.098 144.855 M288.287 144.997 C 298.303 147.379,309.299 155.707,312.847 163.601 C 318.263 175.648,318.714 182.564,314.696 191.971 C 310.587 201.593,300.557 210.538,290.223 213.796 C 288.074 214.474,277.307 214.475,274.540 213.798 C 263.757 211.159,254.100 202.165,249.333 190.320 C 240.192 167.607,264.488 139.340,288.287 144.997 M108.376 168.201 C 96.210 171.479,96.324 188.578,108.524 190.564 C 117.821 192.077,124.697 182.533,120.444 174.020 C 118.144 169.419,113.023 166.949,108.376 168.201 M279.961 168.045 C 271.123 170.601,267.887 181.145,274.100 187.144 C 285.512 198.161,300.846 182.472,289.975 170.901 C 288.181 168.991,282.394 167.341,279.961 168.045 M191.459 169.200 C 182.746 173.286,182.581 184.536,191.160 189.563 C 199.994 194.740,212.668 183.046,207.087 174.866 C 202.819 168.611,197.120 166.544,191.459 169.200 M158.374 218.161 C 171.408 221.119,180.202 228.555,185.111 240.766 C 189.063 250.598,189.099 254.596,185.322 264.135 C 181.791 273.055,179.870 275.520,171.926 281.319 C 157.319 291.983,135.242 287.846,124.386 272.410 C 114.007 257.653,115.969 240.125,129.414 227.493 C 134.950 222.292,139.000 219.956,145.186 218.396 C 150.800 216.981,153.000 216.941,158.374 218.161 M242.207 217.807 C 253.879 218.911,266.163 228.103,270.133 238.703 C 270.695 240.204,271.699 242.652,272.364 244.143 C 274.273 248.427,274.182 256.141,272.163 261.181 C 271.395 263.098,270.467 265.588,270.100 266.714 C 268.619 271.268,260.407 280.066,254.618 283.302 C 238.038 292.569,216.854 285.333,206.858 266.989 C 196.929 248.767,210.375 222.445,231.752 218.256 C 236.832 217.260,236.552 217.272,242.207 217.807 M151.016 241.205 C 145.414 242.081,141.336 246.862,141.336 252.554 C 141.336 264.122,157.926 267.551,163.232 257.079 C 167.030 249.584,159.555 239.870,151.016 241.205 M234.704 242.005 C 228.202 245.033,225.399 251.575,227.912 257.857 C 230.398 264.070,243.351 265.274,247.611 259.689 C 254.396 250.794,244.613 237.390,234.704 242.005 " stroke="none" fill="#4b4b4b" fill-rule="evenodd"></path><path id="path1" d="M115.192 85.344 C 108.667 86.680,108.331 86.798,104.937 88.943 C 103.766 89.684,101.904 90.841,100.800 91.515 C 99.695 92.188,97.777 93.458,96.537 94.336 C 93.773 96.293,83.255 107.050,81.466 109.749 C 80.750 110.829,79.661 112.410,79.047 113.262 C 77.033 116.052,70.834 128.289,69.694 131.725 C 69.081 133.574,67.977 136.539,67.242 138.315 C 65.491 142.546,65.218 143.629,64.266 150.144 C 63.825 153.164,63.018 157.341,62.474 159.425 C 61.536 163.018,61.475 163.876,61.289 176.013 C 61.084 189.374,61.151 190.227,62.902 196.608 C 63.208 197.724,63.740 201.035,64.083 203.965 C 65.030 212.038,65.370 213.587,66.988 217.197 C 67.808 219.026,68.917 222.182,69.453 224.209 C 71.259 231.040,75.933 240.625,82.975 251.941 C 85.420 255.871,92.547 265.365,93.458 265.908 C 93.742 266.077,94.481 266.912,95.100 267.764 C 97.201 270.652,104.431 278.029,107.897 280.819 C 115.202 286.702,119.414 289.857,122.132 291.485 C 122.751 291.856,124.403 292.926,125.804 293.864 C 127.205 294.801,129.508 296.046,130.923 296.629 C 132.338 297.213,134.672 298.400,136.110 299.267 C 137.548 300.134,139.356 301.046,140.127 301.293 C 140.899 301.540,142.931 302.499,144.645 303.425 C 146.448 304.399,149.383 305.536,151.615 306.126 C 153.735 306.686,157.473 307.833,159.923 308.674 C 171.231 312.557,199.339 315.427,208.688 313.654 C 209.797 313.444,213.208 313.009,216.266 312.688 C 226.491 311.614,245.330 306.566,251.152 303.340 C 252.451 302.620,254.488 301.696,255.678 301.287 C 256.868 300.877,259.029 299.769,260.479 298.824 C 261.930 297.880,263.862 296.728,264.772 296.266 C 266.362 295.458,272.761 291.179,275.138 289.334 C 275.768 288.846,277.103 287.888,278.107 287.205 C 279.110 286.522,280.852 285.248,281.979 284.374 C 285.041 281.998,299.344 267.233,300.999 264.740 C 301.791 263.547,302.601 262.470,302.799 262.348 C 303.109 262.157,305.002 259.351,311.197 249.904 C 311.913 248.813,313.210 246.463,314.080 244.682 C 314.951 242.901,315.992 240.982,316.394 240.417 C 316.797 239.852,317.670 237.845,318.336 235.958 C 319.001 234.071,319.870 232.070,320.267 231.512 C 321.254 230.123,321.688 228.935,322.967 224.119 C 323.574 221.838,324.358 219.413,324.710 218.732 C 325.973 216.291,326.846 213.103,327.770 207.564 C 328.286 204.469,328.982 200.891,329.317 199.613 C 329.652 198.335,330.198 195.198,330.530 192.643 C 330.863 190.087,331.296 187.145,331.492 186.104 C 332.693 179.735,331.447 159.610,329.337 151.320 C 329.028 150.103,328.420 147.030,327.987 144.491 C 327.146 139.566,326.771 138.289,324.929 134.093 C 324.285 132.625,323.384 130.038,322.927 128.345 C 322.471 126.652,321.436 124.046,320.628 122.556 C 319.821 121.065,318.687 118.712,318.109 117.328 C 317.531 115.944,316.596 114.202,316.032 113.458 C 315.467 112.713,314.468 111.216,313.811 110.130 C 310.648 104.899,300.474 93.976,296.748 91.809 C 295.502 91.085,293.610 89.935,292.544 89.255 C 289.133 87.077,288.151 86.714,282.006 85.358 L 275.977 84.027 198.686 84.050 L 121.394 84.074 115.192 85.344 M282.285 88.755 C 288.172 90.560,296.174 95.577,300.653 100.273 C 302.370 102.073,304.560 104.352,305.518 105.338 C 309.154 109.077,314.080 116.967,316.628 123.136 C 317.376 124.947,318.329 126.988,318.746 127.672 C 319.163 128.357,320.016 131.006,320.643 133.560 C 321.270 136.113,322.383 139.570,323.118 141.241 C 324.776 145.013,325.104 146.484,325.638 152.565 C 325.872 155.227,326.315 159.584,326.622 162.246 C 327.352 168.581,327.672 181.079,327.192 184.511 C 326.983 186.002,326.462 190.620,326.032 194.773 C 325.123 203.570,324.744 205.679,323.457 209.100 C 322.937 210.484,321.843 214.329,321.027 217.644 C 320.211 220.958,319.081 224.585,318.514 225.702 C 317.948 226.819,316.986 229.086,316.376 230.740 C 308.996 250.756,289.104 275.972,272.179 286.768 C 271.241 287.366,270.039 288.243,269.506 288.717 C 268.658 289.473,262.581 293.183,256.197 296.843 C 255.046 297.503,252.299 298.704,250.092 299.513 C 247.885 300.321,245.195 301.480,244.115 302.087 C 242.805 302.823,240.338 303.576,236.717 304.343 C 233.729 304.977,229.909 305.929,228.227 306.459 C 222.783 308.176,220.033 308.635,210.907 309.351 C 195.495 310.561,174.199 309.223,167.473 306.622 C 166.409 306.211,162.708 305.188,159.251 304.349 C 155.794 303.511,151.960 302.322,150.732 301.708 C 149.504 301.094,147.628 300.302,146.563 299.948 C 145.499 299.595,143.669 298.821,142.498 298.230 C 134.148 294.013,127.999 290.733,126.563 289.729 C 125.637 289.081,123.398 287.579,121.588 286.390 C 118.109 284.107,115.826 282.434,114.230 280.999 C 113.698 280.520,112.391 279.444,111.326 278.608 C 107.227 275.389,101.458 269.488,94.869 261.773 C 91.232 257.514,84.889 248.337,82.989 244.585 C 82.435 243.490,81.560 242.041,81.045 241.366 C 80.530 240.690,79.529 238.763,78.821 237.085 C 78.113 235.406,77.059 233.096,76.479 231.951 C 74.289 227.630,68.131 208.033,67.717 204.066 C 67.505 202.043,66.994 197.944,66.580 194.958 C 65.000 183.552,65.984 157.417,68.335 148.342 C 69.710 143.035,74.869 128.598,76.127 126.535 C 76.871 125.316,78.094 122.964,78.847 121.308 C 79.599 119.651,80.521 117.948,80.894 117.522 C 81.268 117.096,82.329 115.528,83.252 114.037 C 88.461 105.627,99.079 96.080,108.064 91.727 C 109.287 91.135,110.400 90.469,110.536 90.248 C 110.922 89.624,114.874 88.597,118.095 88.283 C 124.977 87.611,280.010 88.057,282.285 88.755 M150.306 96.807 C 144.108 97.353,136.673 102.082,132.840 107.917 C 126.653 117.336,128.373 128.562,137.319 137.153 C 155.488 154.599,183.889 134.026,174.072 110.530 C 171.733 104.933,163.045 98.060,157.018 97.041 C 154.076 96.543,153.521 96.524,150.306 96.807 M234.656 96.840 C 218.020 99.213,208.772 120.067,218.574 133.106 C 231.523 150.330,254.899 145.718,261.139 124.707 C 265.219 110.967,249.749 94.688,234.656 96.840 M157.074 100.721 C 164.096 102.884,170.398 109.291,171.896 115.790 C 176.235 134.624,152.581 148.048,139.478 134.188 C 131.993 126.272,130.949 118.648,136.136 109.770 C 140.177 102.853,150.089 98.569,157.074 100.721 M243.400 101.110 C 244.516 101.527,246.089 102.393,246.895 103.034 C 247.701 103.674,248.929 104.468,249.625 104.798 C 256.663 108.138,259.800 123.500,254.853 130.401 C 251.754 134.724,246.846 138.429,243.167 139.225 C 234.812 141.032,225.430 137.705,222.366 131.849 C 222.032 131.210,221.277 130.077,220.688 129.332 C 218.626 126.721,217.748 120.404,218.807 115.806 C 219.292 113.702,223.228 106.653,224.352 105.876 C 233.096 99.830,237.221 98.798,243.400 101.110 M234.824 108.186 C 231.649 108.964,226.577 113.879,225.734 116.994 C 223.001 127.093,234.670 135.533,244.584 130.629 C 247.256 129.307,248.983 126.458,249.737 122.123 C 251.215 113.637,243.189 106.136,234.824 108.186 M147.675 109.182 C 137.972 114.747,137.955 127.605,147.646 131.095 C 156.037 134.117,164.011 130.016,164.953 122.195 C 166.111 112.589,155.573 104.652,147.675 109.182 M239.819 112.062 C 242.507 112.871,245.165 115.277,246.032 117.687 C 249.124 126.286,238.946 132.622,232.203 126.296 C 226.092 120.564,231.914 109.683,239.819 112.062 M156.821 113.067 C 158.085 113.705,159.338 114.620,159.607 115.100 C 165.484 125.619,153.879 134.364,145.844 125.470 C 140.050 119.056,148.893 109.065,156.821 113.067 M104.163 145.025 C 84.286 149.941,71.747 170.085,77.052 188.577 C 77.828 191.280,78.513 192.729,81.632 198.258 C 85.539 205.185,96.744 212.827,104.935 214.153 C 113.369 215.518,125.887 212.082,131.655 206.818 C 132.614 205.944,133.515 205.228,133.659 205.228 C 135.573 205.224,142.525 194.185,144.267 188.383 C 151.211 165.264,127.216 139.323,104.163 145.025 M190.126 144.859 C 180.104 146.819,169.208 156.087,164.449 166.699 C 159.407 177.943,160.325 187.935,167.362 198.402 C 175.302 210.211,191.419 216.963,203.872 213.698 C 206.893 212.905,214.457 209.377,216.315 207.894 C 217.351 207.067,218.944 205.830,219.855 205.146 C 222.092 203.466,225.661 198.930,226.799 196.321 C 227.310 195.150,228.312 192.972,229.026 191.481 C 233.049 183.086,232.759 175.359,228.054 165.537 C 220.916 150.636,204.989 141.953,190.126 144.859 M276.086 144.834 C 255.507 149.725,242.141 172.449,249.333 190.320 C 254.100 202.165,263.757 211.159,274.540 213.798 C 277.307 214.475,288.074 214.474,290.223 213.796 C 300.557 210.538,310.587 201.593,314.696 191.971 C 316.728 187.214,317.125 185.362,317.127 180.639 C 317.130 173.841,316.723 172.222,312.847 163.601 C 307.382 151.444,288.606 141.859,276.086 144.834 M113.456 148.322 C 119.831 149.328,127.297 152.893,131.075 156.735 C 137.706 163.478,138.353 164.590,140.219 172.462 C 144.452 190.324,133.938 206.341,116.013 209.338 C 109.575 210.414,101.057 209.541,96.805 207.369 C 92.007 204.918,86.149 199.259,84.155 195.150 C 79.661 185.890,79.404 185.072,79.390 179.980 C 79.374 174.253,82.580 165.025,85.910 161.214 C 86.684 160.327,87.757 159.107,88.292 158.504 C 93.211 152.958,101.345 149.110,110.552 147.972 C 110.765 147.946,112.072 148.103,113.456 148.322 M204.264 149.453 C 217.792 154.394,225.287 163.428,227.305 177.227 C 227.968 181.760,225.330 191.959,222.302 196.571 C 220.576 199.201,215.375 204.453,214.497 204.453 C 214.338 204.453,213.494 205.048,212.623 205.776 C 208.316 209.374,196.471 210.810,187.869 208.777 C 174.314 205.573,165.218 192.970,165.821 178.230 C 166.605 159.094,187.608 143.371,204.264 149.453 M287.704 148.938 C 289.874 149.423,292.183 150.395,298.923 153.657 C 301.903 155.100,307.248 161.155,309.325 165.441 C 316.645 180.544,313.417 193.788,299.736 204.781 C 291.775 211.179,273.002 211.702,265.768 205.728 C 253.301 195.434,249.780 186.632,252.630 172.894 C 254.453 164.105,259.903 156.428,266.615 153.195 C 267.886 152.583,270.319 151.404,272.023 150.575 C 277.431 147.944,281.400 147.530,287.704 148.938 M106.950 164.761 C 90.658 169.343,91.944 192.022,108.653 194.784 C 117.949 196.321,127.329 186.802,125.913 177.265 C 124.603 168.434,115.419 162.378,106.950 164.761 M191.237 165.054 C 186.514 166.707,183.313 169.742,182.179 173.643 C 177.383 190.141,194.884 201.768,207.188 190.259 C 218.741 179.453,206.294 159.784,191.237 165.054 M277.761 164.922 C 265.603 168.401,263.200 185.332,273.855 192.447 C 281.586 197.610,294.061 193.839,296.451 185.617 C 300.242 172.575,290.134 161.382,277.761 164.922 M113.302 168.202 C 127.043 171.861,122.559 192.848,108.524 190.564 C 98.348 188.907,95.808 175.600,104.593 169.963 C 107.852 167.872,110.244 167.388,113.302 168.202 M286.997 169.107 C 293.655 172.023,295.881 181.701,291.090 186.899 C 281.732 197.051,265.002 185.318,272.641 173.961 C 276.652 167.999,281.063 166.508,286.997 169.107 M200.629 168.987 C 204.521 170.731,207.785 174.878,208.152 178.545 C 209.210 189.124,195.214 194.966,187.984 186.963 C 179.788 177.892,189.546 164.020,200.629 168.987 M149.080 217.498 C 141.174 218.811,135.687 221.599,129.414 227.493 C 121.274 235.141,118.103 242.114,118.103 252.366 C 118.103 285.461,159.525 299.772,180.205 273.821 C 183.485 269.704,187.092 261.140,187.863 255.635 C 190.543 236.514,168.007 214.354,149.080 217.498 M236.012 217.504 C 222.481 219.186,212.993 226.078,207.119 238.492 C 200.037 253.458,203.667 268.240,217.210 279.583 C 227.387 288.106,243.207 289.680,254.618 283.302 C 260.407 280.066,268.619 271.268,270.100 266.714 C 270.467 265.588,271.395 263.098,272.163 261.181 C 274.182 256.141,274.273 248.427,272.364 244.143 C 271.699 242.652,270.695 240.204,270.133 238.703 C 266.163 228.103,253.879 218.911,242.207 217.807 C 237.815 217.392,237.170 217.360,236.012 217.504 M160.503 222.582 C 170.025 225.124,179.835 234.604,182.014 243.369 C 186.218 260.275,179.441 274.715,164.123 281.490 C 160.106 283.267,146.928 283.462,142.263 281.814 C 137.098 279.989,129.484 273.800,127.121 269.506 C 126.359 268.122,125.252 266.205,124.662 265.247 C 121.556 260.205,120.742 250.268,122.896 243.675 C 123.468 241.926,124.088 240.401,124.276 240.285 C 124.464 240.169,125.345 238.748,126.234 237.128 C 132.668 225.406,147.500 219.110,160.503 222.582 M243.295 221.910 C 247.550 222.549,250.166 223.400,252.081 224.768 C 253.040 225.452,254.814 226.569,256.025 227.251 C 270.651 235.478,273.436 260.047,261.199 272.906 C 252.731 281.805,243.090 284.775,230.591 282.337 C 218.031 279.886,206.556 264.425,207.966 251.854 C 210.090 232.917,221.091 221.908,238.261 221.539 C 239.498 221.513,241.763 221.679,243.295 221.910 M146.854 238.394 C 131.079 245.259,136.524 268.460,153.681 267.482 C 167.093 266.717,173.027 251.645,163.681 242.080 C 158.784 237.067,152.877 235.773,146.854 238.394 M233.983 237.895 C 228.855 239.849,225.371 243.486,224.570 247.722 C 222.527 258.531,225.744 264.746,234.716 267.327 C 241.453 269.266,250.750 264.920,252.901 258.827 C 253.814 256.240,253.627 248.413,252.601 246.273 C 249.375 239.546,240.331 235.476,233.983 237.895 M157.575 242.397 C 165.000 246.173,166.501 255.240,160.567 260.464 C 153.207 266.942,141.336 262.059,141.336 252.554 C 141.336 243.971,150.007 238.548,157.575 242.397 M244.530 243.230 C 253.937 249.348,250.873 262.127,239.672 263.493 C 235.466 264.006,229.164 260.986,227.912 257.857 C 223.632 247.161,235.082 237.084,244.530 243.230 " stroke="none" fill="#888888" fill-rule="evenodd"></path><path id="path2" d="M120.813 51.936 C 119.855 52.129,116.980 52.539,114.424 52.848 C 111.868 53.158,108.819 53.678,107.648 54.004 C 106.476 54.331,103.691 55.044,101.458 55.588 C 97.261 56.612,90.164 59.983,84.414 63.684 C 83.030 64.575,81.636 65.403,81.317 65.524 C 77.191 67.085,62.974 80.797,56.341 89.612 C 55.489 90.744,54.336 92.260,53.780 92.980 C 53.223 93.699,52.246 95.247,51.609 96.418 C 50.971 97.590,49.031 100.878,47.296 103.727 C 45.562 106.575,44.143 109.091,44.143 109.318 C 44.143 109.544,43.203 111.744,42.053 114.207 C 40.903 116.669,39.587 120.069,39.128 121.762 C 38.670 123.456,37.754 126.069,37.094 127.571 C 36.326 129.317,35.375 132.881,34.453 137.464 C 33.661 141.404,32.650 145.934,32.206 147.531 C 29.780 156.276,28.643 180.060,30.009 193.512 C 30.992 203.198,31.367 205.627,32.718 211.036 C 33.436 213.911,34.386 218.180,34.828 220.523 C 35.692 225.093,35.842 225.573,37.773 230.010 C 38.469 231.607,39.248 233.959,39.505 235.237 C 39.761 236.515,40.819 239.420,41.854 241.692 C 42.890 243.964,44.007 246.497,44.336 247.320 C 44.665 248.142,46.083 251.075,47.487 253.837 C 48.891 256.598,50.565 259.903,51.207 261.181 C 51.849 262.459,53.055 264.463,53.888 265.634 C 54.720 266.805,56.837 269.942,58.592 272.604 C 65.456 283.018,68.145 286.245,78.946 297.034 C 85.296 303.376,90.485 308.210,92.457 309.619 C 98.291 313.787,99.699 314.841,100.871 315.920 C 102.055 317.010,107.903 320.747,110.358 321.983 C 111.104 322.358,112.498 323.201,113.456 323.858 C 120.988 329.015,140.979 336.829,158.180 341.339 C 173.838 345.445,205.711 346.903,221.297 344.226 C 223.640 343.823,227.648 343.235,230.203 342.919 C 233.174 342.551,237.014 341.700,240.852 340.559 C 244.153 339.577,248.912 338.161,251.427 337.413 C 253.942 336.664,257.515 335.351,259.365 334.495 C 261.216 333.638,264.115 332.423,265.808 331.794 C 267.500 331.165,269.876 330.048,271.088 329.312 C 272.299 328.576,274.312 327.512,275.561 326.946 C 276.810 326.380,278.529 325.454,279.380 324.888 C 280.232 324.322,281.975 323.281,283.253 322.575 C 286.494 320.782,292.651 316.697,294.702 314.979 C 295.646 314.187,298.161 312.227,300.290 310.623 C 302.420 309.018,304.685 307.219,305.324 306.625 C 305.963 306.030,308.433 303.785,310.813 301.636 C 313.192 299.486,315.889 296.736,316.805 295.524 C 317.721 294.312,319.960 291.665,321.782 289.642 C 327.733 283.031,332.933 275.891,337.433 268.151 C 338.671 266.021,340.255 263.320,340.952 262.149 C 341.649 260.978,342.735 258.878,343.364 257.482 C 343.994 256.087,345.227 253.756,346.104 252.302 C 346.980 250.848,347.901 249.027,348.150 248.256 C 348.399 247.485,349.331 245.111,350.223 242.982 C 351.114 240.852,352.326 237.454,352.916 235.431 C 354.081 231.434,354.880 228.985,356.401 224.753 C 357.711 221.106,359.967 211.267,360.679 206.096 C 360.993 203.808,361.528 200.455,361.866 198.645 C 362.204 196.834,362.639 192.391,362.833 188.771 C 363.027 185.150,363.365 181.142,363.585 179.864 C 364.141 176.624,364.086 172.164,363.437 167.953 C 363.133 165.986,362.773 162.285,362.635 159.729 C 362.360 154.602,360.973 145.581,359.539 139.593 C 359.029 137.464,358.236 133.986,357.776 131.864 C 357.317 129.743,356.418 126.607,355.779 124.894 C 355.140 123.182,353.955 119.917,353.146 117.637 C 352.337 115.358,351.153 112.570,350.514 111.442 C 349.874 110.313,348.710 107.828,347.925 105.920 C 347.141 104.011,346.187 102.007,345.805 101.467 C 345.424 100.926,344.489 99.243,343.728 97.726 C 342.967 96.209,341.107 93.247,339.595 91.143 C 338.084 89.040,336.379 86.621,335.808 85.770 C 331.198 78.896,322.907 70.635,316.221 66.252 C 315.765 65.954,313.960 64.770,312.211 63.623 C 310.461 62.475,308.196 61.171,307.177 60.724 C 306.158 60.278,304.017 59.163,302.420 58.247 C 298.663 56.092,289.101 53.332,283.651 52.828 C 282.154 52.690,279.742 52.334,278.290 52.038 C 275.175 51.403,123.950 51.305,120.813 51.936 M107.773 62.985 C 108.481 63.692,107.009 64.279,104.525 64.279 C 101.983 64.279,101.138 63.938,101.646 63.117 C 101.908 62.692,107.363 62.574,107.773 62.985 M94.482 67.582 C 94.482 67.908,94.209 68.280,93.875 68.408 C 93.147 68.688,92.353 68.002,92.719 67.410 C 93.113 66.772,94.482 66.906,94.482 67.582 M283.185 82.182 C 285.490 82.756,287.929 83.565,288.606 83.980 C 289.282 84.396,291.055 85.206,292.546 85.781 C 294.037 86.356,295.744 87.342,296.341 87.972 C 296.937 88.602,298.060 89.382,298.836 89.706 C 300.005 90.195,304.533 94.405,307.128 97.416 C 307.481 97.825,308.222 98.474,308.774 98.856 C 309.326 99.239,310.082 100.143,310.455 100.865 C 310.828 101.587,311.742 102.587,312.488 103.088 C 313.379 103.686,314.010 104.523,314.330 105.532 C 314.598 106.376,315.402 107.590,316.116 108.228 C 317.473 109.442,318.625 111.435,319.458 114.007 C 319.728 114.842,320.365 115.911,320.874 116.382 C 321.916 117.348,324.583 123.456,326.866 130.106 C 327.707 132.556,328.849 135.216,329.404 136.018 C 330.232 137.213,330.475 138.153,330.754 141.245 C 331.261 146.862,332.232 152.060,333.301 154.889 C 335.513 160.735,335.442 160.185,335.619 172.922 C 335.794 185.526,335.388 190.499,333.956 193.268 C 332.837 195.432,331.479 202.023,331.085 207.207 C 330.643 213.020,330.401 214.115,329.025 216.518 C 328.496 217.443,327.856 218.896,327.604 219.748 C 327.351 220.600,326.827 222.168,326.438 223.233 C 326.050 224.298,324.998 227.488,324.101 230.322 C 323.204 233.155,322.078 235.943,321.599 236.517 C 320.406 237.947,319.645 239.508,318.912 242.028 C 318.549 243.280,317.656 244.932,316.756 246.022 C 315.911 247.044,314.916 248.845,314.544 250.023 C 314.073 251.519,313.441 252.531,312.450 253.381 C 311.588 254.121,310.557 255.647,309.820 257.273 C 309.154 258.744,308.017 260.670,307.295 261.552 C 306.572 262.434,305.717 263.787,305.394 264.558 C 305.072 265.330,304.340 266.268,303.768 266.643 C 303.196 267.017,302.309 267.988,301.797 268.799 C 301.284 269.611,300.172 270.713,299.324 271.248 C 298.447 271.802,297.549 272.779,297.241 273.515 C 296.943 274.229,296.062 275.204,295.276 275.690 C 294.493 276.174,293.428 277.241,292.911 278.061 C 292.393 278.881,291.445 279.823,290.803 280.155 C 290.162 280.486,289.197 281.455,288.659 282.308 C 288.121 283.160,287.074 284.147,286.332 284.501 C 285.591 284.855,284.641 285.725,284.222 286.436 C 283.741 287.251,282.826 287.999,281.742 288.464 C 280.798 288.869,279.645 289.714,279.180 290.343 C 278.715 290.971,277.028 292.149,275.431 292.960 C 273.833 293.771,272.256 294.847,271.925 295.352 C 271.307 296.296,268.804 297.773,267.823 297.773 C 267.520 297.773,266.685 298.352,265.969 299.059 C 265.252 299.767,263.359 300.924,261.762 301.631 C 260.165 302.338,258.486 303.252,258.031 303.662 C 257.576 304.072,255.573 305.020,253.578 305.769 C 251.583 306.518,249.690 307.357,249.371 307.633 C 248.140 308.697,246.216 309.396,242.952 309.965 C 238.003 310.828,236.857 311.201,235.269 312.462 C 234.484 313.086,233.372 313.696,232.797 313.818 C 230.411 314.323,224.088 314.798,219.671 314.805 C 213.974 314.813,211.527 315.277,208.712 316.886 L 206.583 318.103 198.064 318.092 C 189.615 318.082,189.529 318.074,187.586 317.059 C 184.847 315.627,180.448 314.811,175.469 314.811 C 166.771 314.811,162.659 314.093,160.651 312.224 C 159.486 311.139,157.037 310.431,151.731 309.648 C 148.684 309.198,147.573 308.838,145.729 307.703 C 144.484 306.937,142.426 305.954,141.155 305.519 C 139.884 305.084,138.403 304.311,137.864 303.801 C 137.324 303.292,135.402 302.315,133.591 301.631 C 131.781 300.947,129.864 300.000,129.332 299.527 C 128.800 299.055,127.250 298.262,125.889 297.766 C 124.351 297.205,122.811 296.283,121.823 295.332 C 120.948 294.489,119.586 293.505,118.795 293.145 C 118.005 292.785,116.524 291.747,115.504 290.840 C 114.484 289.932,112.842 288.638,111.854 287.964 C 108.432 285.627,105.955 283.630,103.967 281.607 C 102.869 280.489,101.822 279.574,101.640 279.574 C 101.113 279.574,99.516 277.939,99.516 277.400 C 99.516 277.130,98.628 276.161,97.542 275.245 C 96.456 274.330,95.340 273.143,95.061 272.608 C 94.783 272.074,93.711 270.747,92.679 269.661 C 88.051 264.787,85.723 262.008,85.140 260.659 C 84.794 259.859,84.048 258.900,83.482 258.530 C 82.915 258.158,82.015 256.865,81.477 255.646 C 80.940 254.431,80.084 253.001,79.576 252.469 C 79.068 251.936,78.094 250.281,77.411 248.790 C 76.728 247.299,75.602 245.470,74.907 244.724 C 74.002 243.753,73.402 242.492,72.789 240.271 C 72.147 237.948,71.619 236.867,70.674 235.946 C 69.402 234.706,69.181 234.079,67.570 227.137 C 67.221 225.636,66.547 223.981,66.036 223.374 C 64.825 221.934,63.687 218.402,62.346 211.921 C 61.739 208.985,60.975 205.363,60.648 203.872 C 56.296 183.998,56.478 166.374,61.215 149.080 C 61.652 147.483,62.505 143.911,63.111 141.142 C 64.392 135.278,64.788 134.130,65.984 132.817 C 67.041 131.656,67.544 130.389,68.330 126.897 C 69.049 123.700,69.744 122.289,71.005 121.463 C 71.642 121.045,72.178 120.092,72.609 118.610 C 73.439 115.754,74.404 113.887,75.652 112.723 C 76.198 112.213,76.921 110.963,77.259 109.946 C 77.612 108.883,78.277 107.832,78.822 107.475 C 79.343 107.133,80.207 106.162,80.740 105.317 C 81.273 104.473,82.393 103.350,83.229 102.822 C 84.064 102.295,84.978 101.385,85.259 100.801 C 85.540 100.216,86.522 99.232,87.442 98.615 C 88.363 97.997,89.398 96.900,89.743 96.176 C 90.148 95.326,90.890 94.631,91.838 94.213 C 92.645 93.857,93.835 92.906,94.482 92.100 C 95.229 91.171,96.188 90.492,97.104 90.243 C 97.898 90.027,99.506 89.061,100.678 88.095 C 101.849 87.129,103.766 85.979,104.937 85.541 C 106.108 85.102,107.328 84.506,107.648 84.218 C 108.646 83.319,110.382 82.808,115.586 81.884 L 120.620 80.990 199.806 81.064 L 278.993 81.138 283.185 82.182 M337.035 98.580 C 337.375 99.466,337.323 100.678,336.945 100.678 C 336.489 100.678,335.664 98.760,335.933 98.325 C 336.270 97.780,336.773 97.896,337.035 98.580 M149.251 102.397 C 147.335 103.820,152.879 105.801,155.471 104.619 C 156.629 104.092,156.747 102.806,155.689 102.240 C 154.553 101.633,150.136 101.741,149.251 102.397 M234.927 102.271 C 232.512 103.207,234.899 104.597,238.682 104.456 C 241.464 104.352,242.751 103.583,241.774 102.607 C 241.182 102.014,236.217 101.771,234.927 102.271 M144.627 106.486 C 144.201 106.669,143.372 106.831,142.784 106.846 C 141.437 106.880,139.256 110.756,140.105 111.606 C 140.852 112.352,141.850 111.480,142.205 109.772 C 142.605 107.846,143.065 107.334,144.666 107.034 C 145.390 106.898,145.983 106.632,145.983 106.443 C 145.983 106.031,145.662 106.041,144.627 106.486 M227.933 106.593 C 227.509 106.903,227.353 107.336,227.513 107.755 C 227.835 108.592,228.049 108.578,229.168 107.646 C 230.590 106.461,229.446 105.486,227.933 106.593 M249.371 110.190 C 249.371 111.132,250.114 112.294,250.717 112.294 C 251.619 112.294,251.798 111.543,251.138 110.535 C 250.440 109.469,249.371 109.261,249.371 110.190 M224.298 110.254 C 224.032 110.347,223.814 110.961,223.814 111.620 L 223.814 112.817 224.782 111.907 C 226.080 110.688,225.800 109.730,224.298 110.254 M341.846 111.259 C 341.933 112.000,341.793 112.294,341.349 112.294 C 340.616 112.294,340.190 111.381,340.520 110.520 C 340.870 109.608,341.705 110.074,341.846 111.259 M165.731 111.063 C 165.731 111.238,166.106 113.024,166.564 115.032 C 167.534 119.288,167.563 121.429,166.706 125.565 C 166.065 128.663,166.138 129.332,167.119 129.332 C 168.132 129.332,168.523 127.363,168.345 123.150 C 168.251 120.921,168.328 118.412,168.516 117.573 C 168.877 115.968,168.309 112.131,167.578 111.229 C 167.141 110.692,165.731 110.565,165.731 111.063 M136.786 117.016 C 135.956 120.132,136.303 125.975,137.261 125.017 C 137.386 124.892,137.439 122.632,137.379 119.994 C 137.274 115.355,137.254 115.258,136.786 117.016 M253.722 121.608 C 253.124 125.740,253.126 125.847,253.779 125.847 C 254.720 125.847,255.082 122.401,254.451 119.458 C 254.253 118.534,254.104 118.973,253.722 121.608 M223.584 127.546 C 223.254 128.406,223.668 129.332,224.383 129.332 C 225.142 129.332,225.153 128.025,224.400 127.400 C 223.933 127.012,223.778 127.040,223.584 127.546 M250.083 128.347 C 249.374 129.902,250.308 130.646,251.319 129.332 C 252.162 128.236,252.118 127.647,251.182 127.465 C 250.794 127.390,250.360 127.738,250.083 128.347 M141.580 131.927 C 141.100 132.407,141.920 133.206,143.123 133.432 C 144.419 133.675,145.983 135.144,145.983 136.119 C 145.983 136.888,147.066 137.153,151.072 137.365 C 156.920 137.675,159.148 137.285,159.148 135.951 C 159.148 134.491,158.839 134.297,157.703 135.041 C 155.553 136.450,147.482 135.654,146.951 133.980 C 146.816 133.554,146.238 133.107,145.666 132.987 C 145.095 132.866,143.985 132.536,143.199 132.252 C 142.414 131.969,141.685 131.822,141.580 131.927 M227.299 132.370 C 227.299 133.455,228.480 134.295,230.203 134.434 C 231.576 134.545,231.766 134.683,231.877 135.644 C 232.048 137.138,233.136 137.464,237.948 137.464 C 243.194 137.464,245.314 136.672,243.159 135.519 C 242.580 135.209,241.606 135.223,239.536 135.571 C 236.436 136.092,233.603 135.630,232.631 134.445 C 231.007 132.467,227.299 131.024,227.299 132.370 M161.805 132.826 L 160.891 133.609 162.049 133.504 C 162.791 133.436,163.254 133.154,163.336 132.720 C 163.506 131.823,162.928 131.863,161.805 132.826 M244.854 133.424 C 244.478 134.404,245.238 134.815,246.192 134.147 C 246.662 133.817,247.047 133.383,247.047 133.182 C 247.047 132.564,245.102 132.779,244.854 133.424 M42.207 140.368 C 42.207 142.691,42.091 143.272,41.626 143.272 C 41.021 143.272,40.764 139.421,41.281 138.076 C 41.817 136.678,42.207 137.644,42.207 140.368 M108.422 150.679 C 107.677 150.899,106.694 151.426,106.238 151.850 C 105.375 152.652,101.223 154.110,99.772 154.120 C 99.312 154.123,98.572 154.341,98.128 154.604 C 93.433 157.387,88.621 161.700,87.684 163.964 C 87.338 164.802,86.653 166.022,86.162 166.674 C 85.672 167.327,84.805 169.516,84.237 171.539 C 83.669 173.562,82.956 176.089,82.652 177.154 C 81.916 179.737,81.950 181.081,82.817 183.580 C 84.847 189.432,85.290 190.553,86.701 193.417 C 87.541 195.121,88.409 196.989,88.631 197.569 C 88.878 198.214,89.570 198.847,90.412 199.199 C 91.169 199.515,92.090 200.310,92.458 200.965 C 92.975 201.885,94.205 202.679,97.878 204.466 L 102.629 206.776 108.720 206.774 C 121.044 206.770,129.207 202.692,134.301 193.998 C 134.988 192.827,135.926 191.391,136.386 190.807 C 138.491 188.137,137.956 169.200,135.716 167.110 C 135.246 166.671,134.490 165.581,134.036 164.688 C 133.583 163.796,132.597 162.597,131.847 162.024 C 131.096 161.452,130.221 160.432,129.901 159.758 C 129.581 159.085,128.756 158.207,128.067 157.809 C 127.379 157.411,126.192 156.531,125.430 155.855 C 124.284 154.837,123.428 154.511,120.469 153.970 C 117.736 153.470,116.420 153.003,114.884 151.988 C 112.655 150.515,110.472 150.073,108.422 150.679 M195.547 150.609 C 194.589 150.744,193.107 151.308,192.256 151.863 C 190.528 152.988,188.873 153.546,186.187 153.908 C 183.572 154.261,177.643 158.330,175.865 160.992 C 175.333 161.788,174.331 163.078,173.638 163.857 C 171.892 165.822,171.650 166.365,170.974 169.842 C 170.647 171.521,170.162 173.853,169.895 175.024 C 169.254 177.835,169.308 180.510,170.107 185.673 C 171.255 193.087,171.409 193.575,173.283 195.712 C 176.354 199.214,180.858 203.291,181.655 203.291 C 181.891 203.291,183.675 204.006,185.620 204.879 L 189.158 206.467 195.160 206.667 C 202.378 206.906,204.688 206.536,208.944 204.457 C 214.425 201.779,221.104 195.121,221.104 192.334 C 221.104 191.344,222.520 185.860,223.424 183.349 C 225.150 178.557,221.812 164.485,218.482 162.520 C 217.776 162.104,216.861 161.102,216.449 160.294 C 215.879 159.176,215.189 158.592,213.561 157.847 C 212.385 157.308,211.423 156.701,211.423 156.497 C 211.423 155.859,208.750 154.514,205.922 153.731 C 204.428 153.317,202.310 152.476,201.216 151.863 C 198.801 150.511,197.812 150.292,195.547 150.609 M277.832 151.709 C 276.554 152.542,274.550 153.450,273.379 153.726 C 269.979 154.527,268.233 155.238,267.174 156.253 C 266.631 156.773,265.511 157.528,264.686 157.929 C 263.860 158.330,262.727 159.335,262.166 160.162 C 261.606 160.989,260.596 162.014,259.922 162.439 C 258.051 163.621,254.774 174.747,254.732 180.058 C 254.700 184.045,257.564 194.576,258.892 195.353 C 259.256 195.566,261.440 197.614,263.747 199.903 C 266.053 202.193,268.181 204.066,268.476 204.066 C 268.770 204.066,269.656 204.504,270.445 205.039 C 272.962 206.747,286.171 207.528,290.472 206.222 C 294.011 205.148,298.719 202.600,299.450 201.363 C 299.831 200.718,300.646 199.929,301.262 199.611 C 301.877 199.293,302.868 198.382,303.465 197.586 C 304.062 196.791,305.203 195.511,306.002 194.742 C 307.068 193.715,307.454 193.024,307.454 192.141 C 307.454 190.171,308.221 187.028,309.491 183.788 L 310.686 180.741 309.476 177.011 C 308.810 174.960,308.007 171.772,307.692 169.928 C 307.067 166.279,306.039 163.877,304.776 163.114 C 304.332 162.846,303.438 161.888,302.788 160.984 C 301.652 159.405,299.884 157.858,296.999 155.917 C 295.574 154.959,294.746 154.651,290.029 153.323 C 288.432 152.874,286.515 152.097,285.770 151.597 C 283.229 149.894,280.557 149.931,277.832 151.709 M113.650 160.901 C 114.714 161.221,116.021 161.799,116.554 162.185 C 117.086 162.572,118.772 163.363,120.299 163.945 C 122.182 164.661,123.293 165.337,123.749 166.044 C 124.119 166.617,125.086 167.663,125.900 168.367 C 127.988 170.177,128.338 171.735,128.352 179.284 C 128.367 187.168,128.183 187.752,124.441 191.754 C 122.872 193.432,121.588 194.969,121.588 195.168 C 121.588 198.802,102.448 198.488,99.129 194.800 C 98.383 193.972,97.383 193.099,96.906 192.860 C 95.761 192.287,94.989 190.721,94.068 187.102 C 93.652 185.464,92.921 183.601,92.444 182.962 C 91.083 181.137,91.241 177.848,92.843 174.634 C 93.533 173.251,94.270 171.408,94.481 170.538 C 95.034 168.260,99.103 164.385,101.338 164.008 C 102.220 163.859,103.734 163.234,104.704 162.619 C 108.051 160.496,110.647 159.997,113.650 160.901 M200.797 162.051 C 202.275 162.796,203.659 163.407,203.872 163.408 C 205.495 163.421,208.965 165.433,210.000 166.961 C 210.624 167.882,211.375 168.775,211.668 168.946 C 213.775 170.173,215.130 182.275,213.740 187.440 C 213.225 189.351,206.849 195.981,204.608 196.934 C 199.688 199.027,187.142 197.613,185.688 194.802 C 185.370 194.187,184.452 193.362,183.649 192.969 C 182.418 192.368,181.898 191.678,180.348 188.594 L 178.509 184.933 178.509 180.631 C 178.509 169.634,180.873 165.404,188.270 163.165 C 189.272 162.861,190.208 162.426,190.349 162.198 C 191.546 160.261,197.089 160.184,200.797 162.051 M287.066 161.861 C 288.075 162.501,289.691 163.202,290.656 163.418 C 295.248 164.447,297.151 166.413,297.953 170.958 C 298.103 171.810,298.542 173.030,298.928 173.669 C 300.783 176.735,300.905 183.629,299.163 186.973 C 298.649 187.962,297.786 189.773,297.247 190.997 C 296.708 192.222,296.076 193.224,295.842 193.224 C 295.608 193.224,294.588 193.999,293.574 194.947 C 291.190 197.177,289.562 197.545,281.897 197.588 C 273.871 197.633,273.252 197.434,269.229 193.506 C 264.507 188.898,264.279 188.286,264.279 180.252 C 264.279 172.779,264.536 171.633,266.802 169.015 C 267.618 168.072,268.393 166.963,268.524 166.550 C 268.847 165.534,269.963 164.860,273.345 163.640 C 274.918 163.072,276.919 162.180,277.793 161.656 C 280.262 160.176,284.558 160.270,287.066 161.861 M38.321 168.151 C 39.149 172.440,38.939 190.018,38.049 191.002 C 36.754 192.433,36.332 190.390,36.106 181.611 C 35.778 168.847,37.011 161.358,38.321 168.151 M42.207 215.705 C 42.207 216.758,42.044 217.619,41.844 217.619 C 41.394 217.619,40.869 214.346,41.226 213.768 C 41.746 212.926,42.207 213.836,42.207 215.705 M145.983 224.458 C 145.663 224.584,145.050 225.006,144.619 225.396 C 144.189 225.786,142.346 226.794,140.524 227.636 C 138.484 228.579,136.954 229.557,136.545 230.183 C 136.179 230.742,135.111 231.572,134.173 232.028 C 133.098 232.550,132.298 233.264,132.010 233.960 C 131.759 234.568,130.901 235.626,130.104 236.313 C 128.940 237.316,128.447 238.207,127.591 240.852 C 127.005 242.662,126.029 244.840,125.423 245.692 C 122.765 249.428,122.976 256.695,125.844 260.218 C 126.280 260.754,127.135 262.648,127.745 264.427 C 128.445 266.470,129.216 267.966,129.836 268.487 C 130.376 268.941,131.184 270.052,131.631 270.956 C 132.165 272.036,132.872 272.783,133.695 273.136 C 134.383 273.432,135.547 274.304,136.281 275.075 C 137.015 275.846,137.841 276.476,138.117 276.476 C 138.393 276.476,140.319 277.378,142.397 278.479 L 146.176 280.482 152.565 280.503 L 158.955 280.525 163.267 278.490 C 165.639 277.372,168.222 275.851,169.006 275.111 C 169.791 274.371,170.640 273.766,170.893 273.766 C 171.464 273.766,173.475 271.937,173.475 271.418 C 173.475 271.209,174.151 270.301,174.977 269.401 C 181.644 262.135,181.662 240.932,175.005 236.191 C 174.328 235.710,173.526 234.719,173.221 233.990 C 172.902 233.227,172.141 232.390,171.426 232.015 C 170.743 231.657,169.574 230.750,168.829 229.999 C 167.930 229.094,166.453 228.262,164.442 227.529 C 162.775 226.921,160.869 225.968,160.207 225.410 C 159.014 224.405,147.988 223.668,145.983 224.458 M232.952 224.480 C 232.547 224.583,231.153 225.246,229.854 225.953 C 228.555 226.660,226.709 227.441,225.750 227.689 C 224.792 227.936,223.485 228.628,222.846 229.225 C 222.207 229.822,221.132 230.588,220.456 230.929 C 219.781 231.269,218.839 232.116,218.363 232.811 C 217.887 233.507,216.906 234.701,216.184 235.466 C 215.416 236.279,214.652 237.647,214.346 238.758 C 214.058 239.803,213.392 242.139,212.865 243.950 C 210.332 252.652,210.273 256.284,212.585 261.181 C 213.188 262.459,213.952 264.550,214.281 265.828 C 214.751 267.650,215.180 268.392,216.266 269.266 C 217.028 269.880,217.908 270.878,218.221 271.485 C 218.535 272.091,219.747 273.199,220.916 273.946 C 222.084 274.694,223.040 275.452,223.040 275.632 C 223.040 276.005,223.423 276.204,228.461 278.450 C 236.884 282.206,248.994 280.560,254.405 274.925 C 255.363 273.927,256.711 272.819,257.399 272.464 C 258.088 272.108,258.916 271.305,259.239 270.679 C 259.563 270.053,260.522 268.983,261.370 268.301 C 266.205 264.416,266.198 241.906,261.359 236.871 C 260.523 236.000,259.647 234.707,259.412 233.995 C 259.106 233.068,258.529 232.472,257.373 231.888 C 256.486 231.439,255.324 230.580,254.792 229.978 C 254.259 229.376,252.517 228.322,250.920 227.637 C 249.322 226.951,247.651 226.068,247.206 225.674 C 245.731 224.368,236.434 223.589,232.952 224.480 M346.395 230.975 C 346.842 233.360,345.902 235.533,344.735 234.811 C 343.780 234.220,343.651 232.382,344.459 230.881 C 345.339 229.246,346.077 229.282,346.395 230.975 M47.396 232.291 C 48.358 233.353,48.131 237.107,47.094 237.305 C 46.038 237.505,45.705 236.710,45.698 233.979 C 45.692 231.365,46.148 230.912,47.396 232.291 M158.102 234.273 C 159.246 234.701,160.603 235.509,161.117 236.068 C 161.632 236.627,162.959 237.491,164.068 237.988 C 165.210 238.499,166.373 239.358,166.750 239.968 C 167.117 240.561,168.074 241.742,168.877 242.594 C 172.010 245.919,172.118 260.415,169.026 262.667 C 168.460 263.080,167.575 264.085,167.060 264.902 C 166.544 265.718,165.555 266.671,164.862 267.020 C 164.168 267.368,162.989 268.308,162.241 269.109 C 159.160 272.407,146.785 272.444,143.694 269.164 C 142.968 268.394,141.586 267.241,140.623 266.602 C 139.377 265.776,138.523 264.769,137.668 263.117 C 137.006 261.839,135.995 260.120,135.421 259.296 C 132.736 255.443,132.969 248.429,135.905 244.705 C 136.501 243.949,137.383 242.414,137.865 241.293 C 138.647 239.475,138.995 239.129,141.103 238.078 C 142.403 237.430,144.010 236.382,144.676 235.749 C 147.156 233.391,153.793 232.661,158.102 234.273 M244.337 234.391 C 245.082 234.750,246.563 235.740,247.628 236.592 C 248.693 237.443,250.271 238.474,251.135 238.882 C 256.485 241.409,258.965 254.590,255.294 260.987 C 254.744 261.946,253.966 263.384,253.565 264.183 C 253.153 265.006,252.127 266.082,251.200 266.662 C 250.301 267.227,249.042 268.275,248.403 268.992 C 244.964 272.850,232.380 272.829,229.429 268.960 C 228.874 268.233,227.766 267.376,226.966 267.056 C 224.753 266.171,222.036 262.646,221.472 259.930 C 220.761 256.505,221.144 245.283,222.029 243.613 C 223.695 240.468,225.390 238.582,227.158 237.907 C 228.125 237.538,229.188 236.821,229.520 236.313 C 231.250 233.673,240.385 232.488,244.337 234.391 M341.917 244.918 C 341.917 245.690,340.885 246.786,340.425 246.502 C 340.017 246.250,340.086 245.207,340.621 243.562 C 340.830 242.920,341.917 244.056,341.917 244.918 M337.196 253.310 C 337.074 254.964,336.297 255.734,335.871 254.624 C 335.596 253.908,336.413 251.694,336.952 251.694 C 337.151 251.694,337.261 252.421,337.196 253.310 M320.062 279.998 C 320.477 280.670,319.179 281.774,318.625 281.220 C 318.282 280.876,318.293 280.626,318.670 280.171 C 319.254 279.467,319.699 279.412,320.062 279.998 M289.255 310.745 C 289.255 311.065,289.091 311.326,288.890 311.326 C 288.402 311.326,288.052 310.722,288.362 310.412 C 288.798 309.976,289.255 310.147,289.255 310.745 M121.820 318.534 C 123.604 319.381,123.504 320.116,121.580 320.299 C 119.764 320.473,118.877 320.084,118.877 319.116 C 118.877 317.740,119.773 317.563,121.820 318.534 M263.989 324.008 C 264.090 324.312,263.777 324.492,263.149 324.492 C 262.172 324.492,261.876 324.119,262.421 323.575 C 262.819 323.177,263.802 323.448,263.989 324.008 M146.532 327.825 C 147.370 328.146,147.304 329.036,146.421 329.316 C 145.612 329.573,143.659 328.952,143.659 328.438 C 143.659 327.621,145.165 327.300,146.532 327.825 M173.101 336.171 C 174.975 336.824,174.422 337.265,171.636 337.341 C 168.091 337.437,166.960 337.333,166.011 336.825 C 163.521 335.493,169.559 334.936,173.101 336.171 " stroke="none" fill="#bdbdbd" fill-rule="evenodd"></path><path id="path3" d="M101.646 63.117 C 101.138 63.938,101.983 64.279,104.525 64.279 C 107.009 64.279,108.481 63.692,107.773 62.985 C 107.363 62.574,101.908 62.692,101.646 63.117 M92.719 67.410 C 92.353 68.002,93.147 68.688,93.875 68.408 C 94.209 68.280,94.482 67.908,94.482 67.582 C 94.482 66.906,93.113 66.772,92.719 67.410 M115.586 81.884 C 110.382 82.808,108.646 83.319,107.648 84.218 C 107.328 84.506,106.108 85.102,104.937 85.541 C 103.766 85.979,101.849 87.129,100.678 88.095 C 99.506 89.061,97.898 90.027,97.104 90.243 C 96.188 90.492,95.229 91.171,94.482 92.100 C 93.835 92.906,92.645 93.857,91.838 94.213 C 90.890 94.631,90.148 95.326,89.743 96.176 C 89.398 96.900,88.363 97.997,87.442 98.615 C 86.522 99.232,85.540 100.216,85.259 100.801 C 84.978 101.385,84.064 102.295,83.229 102.822 C 82.393 103.350,81.273 104.473,80.740 105.317 C 80.207 106.162,79.343 107.133,78.822 107.475 C 78.277 107.832,77.612 108.883,77.259 109.946 C 76.921 110.963,76.198 112.213,75.652 112.723 C 74.404 113.887,73.439 115.754,72.609 118.610 C 72.178 120.092,71.642 121.045,71.005 121.463 C 69.744 122.289,69.049 123.700,68.330 126.897 C 67.544 130.389,67.041 131.656,65.984 132.817 C 64.788 134.130,64.392 135.278,63.111 141.142 C 62.505 143.911,61.652 147.483,61.215 149.080 C 56.478 166.374,56.296 183.998,60.648 203.872 C 60.975 205.363,61.739 208.985,62.346 211.921 C 63.687 218.402,64.825 221.934,66.036 223.374 C 66.547 223.981,67.221 225.636,67.570 227.137 C 69.181 234.079,69.402 234.706,70.674 235.946 C 71.619 236.867,72.147 237.948,72.789 240.271 C 73.402 242.492,74.002 243.753,74.907 244.724 C 75.602 245.470,76.728 247.299,77.411 248.790 C 78.094 250.281,79.068 251.936,79.576 252.469 C 80.084 253.001,80.940 254.431,81.477 255.646 C 82.015 256.865,82.915 258.158,83.482 258.530 C 84.048 258.900,84.794 259.859,85.140 260.659 C 85.723 262.008,88.051 264.787,92.679 269.661 C 93.711 270.747,94.783 272.074,95.061 272.608 C 95.340 273.143,96.456 274.330,97.542 275.245 C 98.628 276.161,99.516 277.130,99.516 277.400 C 99.516 277.939,101.113 279.574,101.640 279.574 C 101.822 279.574,102.869 280.489,103.967 281.607 C 105.955 283.630,108.432 285.627,111.854 287.964 C 112.842 288.638,114.484 289.932,115.504 290.840 C 116.524 291.747,118.005 292.785,118.795 293.145 C 119.586 293.505,120.948 294.489,121.823 295.332 C 122.811 296.283,124.351 297.205,125.889 297.766 C 127.250 298.262,128.800 299.055,129.332 299.527 C 129.864 300.000,131.781 300.947,133.591 301.631 C 135.402 302.315,137.324 303.292,137.864 303.801 C 138.403 304.311,139.884 305.084,141.155 305.519 C 142.426 305.954,144.484 306.937,145.729 307.703 C 147.573 308.838,148.684 309.198,151.731 309.648 C 157.037 310.431,159.486 311.139,160.651 312.224 C 162.659 314.093,166.771 314.811,175.469 314.811 C 180.448 314.811,184.847 315.627,187.586 317.059 C 189.529 318.074,189.615 318.082,198.064 318.092 L 206.583 318.103 208.712 316.886 C 211.527 315.277,213.974 314.813,219.671 314.805 C 224.088 314.798,230.411 314.323,232.797 313.818 C 233.372 313.696,234.484 313.086,235.269 312.462 C 236.857 311.201,238.003 310.828,242.952 309.965 C 246.216 309.396,248.140 308.697,249.371 307.633 C 249.690 307.357,251.583 306.518,253.578 305.769 C 255.573 305.020,257.576 304.072,258.031 303.662 C 258.486 303.252,260.165 302.338,261.762 301.631 C 263.359 300.924,265.252 299.767,265.969 299.059 C 266.685 298.352,267.520 297.773,267.823 297.773 C 268.804 297.773,271.307 296.296,271.925 295.352 C 272.256 294.847,273.833 293.771,275.431 292.960 C 277.028 292.149,278.715 290.971,279.180 290.343 C 279.645 289.714,280.798 288.869,281.742 288.464 C 282.826 287.999,283.741 287.251,284.222 286.436 C 284.641 285.725,285.591 284.855,286.332 284.501 C 287.074 284.147,288.121 283.160,288.659 282.308 C 289.197 281.455,290.162 280.486,290.803 280.155 C 291.445 279.823,292.393 278.881,292.911 278.061 C 293.428 277.241,294.493 276.174,295.276 275.690 C 296.062 275.204,296.943 274.229,297.241 273.515 C 297.549 272.779,298.447 271.802,299.324 271.248 C 300.172 270.713,301.284 269.611,301.797 268.799 C 302.309 267.988,303.196 267.017,303.768 266.643 C 304.340 266.268,305.072 265.330,305.394 264.558 C 305.717 263.787,306.572 262.434,307.295 261.552 C 308.017 260.670,309.154 258.744,309.820 257.273 C 310.557 255.647,311.588 254.121,312.450 253.381 C 313.441 252.531,314.073 251.519,314.544 250.023 C 314.916 248.845,315.911 247.044,316.756 246.022 C 317.656 244.932,318.549 243.280,318.912 242.028 C 319.645 239.508,320.406 237.947,321.599 236.517 C 322.078 235.943,323.204 233.155,324.101 230.322 C 324.998 227.488,326.050 224.298,326.438 223.233 C 326.827 222.168,327.351 220.600,327.604 219.748 C 327.856 218.896,328.496 217.443,329.025 216.518 C 330.401 214.115,330.643 213.020,331.085 207.207 C 331.479 202.023,332.837 195.432,333.956 193.268 C 335.388 190.499,335.794 185.526,335.619 172.922 C 335.442 160.185,335.513 160.735,333.301 154.889 C 332.232 152.060,331.261 146.862,330.754 141.245 C 330.475 138.153,330.232 137.213,329.404 136.018 C 328.849 135.216,327.707 132.556,326.866 130.106 C 324.583 123.456,321.916 117.348,320.874 116.382 C 320.365 115.911,319.728 114.842,319.458 114.007 C 318.625 111.435,317.473 109.442,316.116 108.228 C 315.402 107.590,314.598 106.376,314.330 105.532 C 314.010 104.523,313.379 103.686,312.488 103.088 C 311.742 102.587,310.828 101.587,310.455 100.865 C 310.082 100.143,309.326 99.239,308.774 98.856 C 308.222 98.474,307.481 97.825,307.128 97.416 C 304.533 94.405,300.005 90.195,298.836 89.706 C 298.060 89.382,296.937 88.602,296.341 87.972 C 295.744 87.342,294.037 86.356,292.546 85.781 C 291.055 85.206,289.282 84.396,288.606 83.980 C 287.929 83.565,285.490 82.756,283.185 82.182 L 278.993 81.138 199.806 81.064 L 120.620 80.990 115.586 81.884 M282.006 85.358 C 288.151 86.714,289.133 87.077,292.544 89.255 C 293.610 89.935,295.502 91.085,296.748 91.809 C 300.474 93.976,310.648 104.899,313.811 110.130 C 314.468 111.216,315.467 112.713,316.032 113.458 C 316.596 114.202,317.531 115.944,318.109 117.328 C 318.687 118.712,319.821 121.065,320.628 122.556 C 321.436 124.046,322.471 126.652,322.927 128.345 C 323.384 130.038,324.285 132.625,324.929 134.093 C 326.771 138.289,327.146 139.566,327.987 144.491 C 328.420 147.030,329.028 150.103,329.337 151.320 C 331.447 159.610,332.693 179.735,331.492 186.104 C 331.296 187.145,330.863 190.087,330.530 192.643 C 330.198 195.198,329.652 198.335,329.317 199.613 C 328.982 200.891,328.286 204.469,327.770 207.564 C 326.846 213.103,325.973 216.291,324.710 218.732 C 324.358 219.413,323.574 221.838,322.967 224.119 C 321.688 228.935,321.254 230.123,320.267 231.512 C 319.870 232.070,319.001 234.071,318.336 235.958 C 317.670 237.845,316.797 239.852,316.394 240.417 C 315.992 240.982,314.951 242.901,314.080 244.682 C 313.210 246.463,311.913 248.813,311.197 249.904 C 305.002 259.351,303.109 262.157,302.799 262.348 C 302.601 262.470,301.791 263.547,300.999 264.740 C 299.344 267.233,285.041 281.998,281.979 284.374 C 280.852 285.248,279.110 286.522,278.107 287.205 C 277.103 287.888,275.768 288.846,275.138 289.334 C 272.761 291.179,266.362 295.458,264.772 296.266 C 263.862 296.728,261.930 297.880,260.479 298.824 C 259.029 299.769,256.868 300.877,255.678 301.287 C 254.488 301.696,252.451 302.620,251.152 303.340 C 245.330 306.566,226.491 311.614,216.266 312.688 C 213.208 313.009,209.797 313.444,208.688 313.654 C 199.339 315.427,171.231 312.557,159.923 308.674 C 157.473 307.833,153.735 306.686,151.615 306.126 C 149.383 305.536,146.448 304.399,144.645 303.425 C 142.931 302.499,140.899 301.540,140.127 301.293 C 139.356 301.046,137.548 300.134,136.110 299.267 C 134.672 298.400,132.338 297.213,130.923 296.629 C 129.508 296.046,127.205 294.801,125.804 293.864 C 124.403 292.926,122.751 291.856,122.132 291.485 C 119.414 289.857,115.202 286.702,107.897 280.819 C 104.431 278.029,97.201 270.652,95.100 267.764 C 94.481 266.912,93.742 266.077,93.458 265.908 C 92.547 265.365,85.420 255.871,82.975 251.941 C 75.933 240.625,71.259 231.040,69.453 224.209 C 68.917 222.182,67.808 219.026,66.988 217.197 C 65.370 213.587,65.030 212.038,64.083 203.965 C 63.740 201.035,63.208 197.724,62.902 196.608 C 61.151 190.227,61.084 189.374,61.289 176.013 C 61.475 163.876,61.536 163.018,62.474 159.425 C 63.018 157.341,63.825 153.164,64.266 150.144 C 65.218 143.629,65.491 142.546,67.242 138.315 C 67.977 136.539,69.081 133.574,69.694 131.725 C 70.834 128.289,77.033 116.052,79.047 113.262 C 79.661 112.410,80.750 110.829,81.466 109.749 C 83.255 107.050,93.773 96.293,96.537 94.336 C 97.777 93.458,99.695 92.188,100.800 91.515 C 101.904 90.841,103.766 89.684,104.937 88.943 C 108.331 86.798,108.667 86.680,115.192 85.344 L 121.394 84.074 198.686 84.050 L 275.977 84.027 282.006 85.358 M335.933 98.325 C 335.664 98.760,336.489 100.678,336.945 100.678 C 337.323 100.678,337.375 99.466,337.035 98.580 C 336.773 97.896,336.270 97.780,335.933 98.325 M148.423 100.645 C 144.189 101.856,138.131 106.356,136.136 109.770 C 132.154 116.586,131.791 121.936,134.914 127.767 C 139.960 137.190,146.138 140.638,155.894 139.478 C 170.942 137.687,177.892 117.580,167.097 107.067 C 160.972 101.101,154.549 98.892,148.423 100.645 M233.602 100.627 C 231.576 101.224,228.811 102.793,224.352 105.876 C 223.228 106.653,219.292 113.702,218.807 115.806 C 217.748 120.404,218.626 126.721,220.688 129.332 C 221.277 130.077,222.032 131.210,222.366 131.849 C 225.430 137.705,234.812 141.032,243.167 139.225 C 246.846 138.429,251.754 134.724,254.853 130.401 C 259.800 123.500,256.663 108.138,249.625 104.798 C 248.929 104.468,247.701 103.674,246.895 103.034 C 243.579 100.398,237.880 99.366,233.602 100.627 M155.689 102.240 C 156.747 102.806,156.629 104.092,155.471 104.619 C 152.879 105.801,147.335 103.820,149.251 102.397 C 150.136 101.741,154.553 101.633,155.689 102.240 M241.774 102.607 C 242.751 103.583,241.464 104.352,238.682 104.456 C 234.899 104.597,232.512 103.207,234.927 102.271 C 236.217 101.771,241.182 102.014,241.774 102.607 M145.983 106.443 C 145.983 106.632,145.390 106.898,144.666 107.034 C 143.065 107.334,142.605 107.846,142.205 109.772 C 141.850 111.480,140.852 112.352,140.105 111.606 C 139.256 110.756,141.437 106.880,142.784 106.846 C 143.372 106.831,144.201 106.669,144.627 106.486 C 145.662 106.041,145.983 106.031,145.983 106.443 M229.823 106.497 C 229.958 106.716,229.663 107.233,229.168 107.646 C 228.049 108.578,227.835 108.592,227.513 107.755 C 227.093 106.661,229.211 105.507,229.823 106.497 M241.626 108.450 C 250.717 110.758,252.823 126.554,244.584 130.629 C 231.871 136.917,219.371 122.623,228.766 112.541 C 233.206 107.776,235.767 106.962,241.626 108.450 M156.851 108.655 C 158.362 109.101,159.409 109.748,160.568 110.952 C 170.943 121.729,161.690 136.152,147.646 131.095 C 133.243 125.908,142.105 104.305,156.851 108.655 M251.138 110.535 C 251.798 111.543,251.619 112.294,250.717 112.294 C 250.114 112.294,249.371 111.132,249.371 110.190 C 249.371 109.261,250.440 109.469,251.138 110.535 M225.750 110.719 C 225.750 110.872,225.315 111.407,224.782 111.907 L 223.814 112.817 223.814 111.620 C 223.814 110.961,224.032 110.347,224.298 110.254 C 224.879 110.051,225.750 110.331,225.750 110.719 M340.520 110.520 C 340.190 111.381,340.616 112.294,341.349 112.294 C 341.793 112.294,341.933 112.000,341.846 111.259 C 341.705 110.074,340.870 109.608,340.520 110.520 M167.578 111.229 C 168.309 112.131,168.877 115.968,168.516 117.573 C 168.328 118.412,168.251 120.921,168.345 123.150 C 168.523 127.363,168.132 129.332,167.119 129.332 C 166.138 129.332,166.065 128.663,166.706 125.565 C 167.563 121.429,167.534 119.288,166.564 115.032 C 166.106 113.024,165.731 111.238,165.731 111.063 C 165.731 110.565,167.141 110.692,167.578 111.229 M137.261 125.017 C 136.303 125.975,135.956 120.132,136.786 117.016 C 137.254 115.258,137.274 115.355,137.379 119.994 C 137.439 122.632,137.386 124.892,137.261 125.017 M254.741 122.362 C 254.793 124.609,254.451 125.847,253.779 125.847 C 253.126 125.847,253.124 125.740,253.722 121.608 C 254.226 118.132,254.650 118.446,254.741 122.362 M224.976 128.605 C 224.976 129.470,223.886 129.583,223.567 128.751 C 223.444 128.432,223.452 127.889,223.584 127.546 C 223.899 126.724,224.976 127.543,224.976 128.605 M251.943 127.977 C 252.009 128.190,251.728 128.800,251.319 129.332 C 250.308 130.646,249.374 129.902,250.083 128.347 C 250.529 127.368,251.684 127.138,251.943 127.977 M145.666 132.987 C 146.238 133.107,146.816 133.554,146.951 133.980 C 147.482 135.654,155.553 136.450,157.703 135.041 C 158.839 134.297,159.148 134.491,159.148 135.951 C 159.148 137.285,156.920 137.675,151.072 137.365 C 147.066 137.153,145.983 136.888,145.983 136.119 C 145.983 135.144,144.419 133.675,143.123 133.432 C 141.920 133.206,141.100 132.407,141.580 131.927 C 141.685 131.822,142.414 131.969,143.199 132.252 C 143.985 132.536,145.095 132.866,145.666 132.987 M230.418 132.751 C 231.365 133.353,232.361 134.116,232.631 134.445 C 233.603 135.630,236.436 136.092,239.536 135.571 C 241.606 135.223,242.580 135.209,243.159 135.519 C 245.314 136.672,243.194 137.464,237.948 137.464 C 233.136 137.464,232.048 137.138,231.877 135.644 C 231.766 134.683,231.576 134.545,230.203 134.434 C 228.480 134.295,227.299 133.455,227.299 132.370 C 227.299 131.339,228.414 131.476,230.418 132.751 M163.336 132.720 C 163.254 133.154,162.791 133.436,162.049 133.504 L 160.891 133.609 161.805 132.826 C 162.928 131.863,163.506 131.823,163.336 132.720 M247.047 133.182 C 247.047 133.383,246.662 133.817,246.192 134.147 C 245.238 134.815,244.478 134.404,244.854 133.424 C 245.102 132.779,247.047 132.564,247.047 133.182 M41.281 138.076 C 40.764 139.421,41.021 143.272,41.626 143.272 C 42.091 143.272,42.207 142.691,42.207 140.368 C 42.207 137.644,41.817 136.678,41.281 138.076 M108.035 148.305 C 101.204 149.219,92.572 153.678,88.292 158.504 C 87.757 159.107,86.684 160.327,85.910 161.214 C 82.580 165.025,79.374 174.253,79.390 179.980 C 79.404 185.072,79.661 185.890,84.155 195.150 C 88.227 203.541,97.372 209.170,107.870 209.747 C 119.960 210.411,128.184 206.784,135.381 197.614 C 142.968 187.948,143.059 170.187,135.567 161.546 C 130.496 155.698,128.533 154.058,124.105 151.973 C 118.546 149.355,112.885 147.684,110.552 147.972 C 110.339 147.999,109.206 148.148,108.035 148.305 M194.579 148.350 C 176.924 149.730,162.744 168.084,166.108 185.200 C 168.420 196.965,176.937 206.192,187.869 208.777 C 196.471 210.810,208.316 209.374,212.623 205.776 C 213.494 205.048,214.338 204.453,214.497 204.453 C 214.657 204.453,216.035 203.356,217.559 202.015 C 228.068 192.767,230.304 174.846,222.429 162.987 C 216.323 153.792,204.493 147.575,194.579 148.350 M277.638 148.514 C 276.254 148.819,273.727 149.746,272.023 150.575 C 270.319 151.404,267.886 152.583,266.615 153.195 C 259.903 156.428,254.453 164.105,252.630 172.894 C 249.780 186.632,253.301 195.434,265.768 205.728 C 273.002 211.702,291.775 211.179,299.736 204.781 C 313.417 193.788,316.645 180.544,309.325 165.441 C 307.248 161.155,301.903 155.100,298.923 153.657 C 292.183 150.395,289.874 149.423,287.704 148.938 C 283.686 148.040,280.416 147.902,277.638 148.514 M114.884 151.988 C 116.420 153.003,117.736 153.470,120.469 153.970 C 123.428 154.511,124.284 154.837,125.430 155.855 C 126.192 156.531,127.379 157.411,128.067 157.809 C 128.756 158.207,129.581 159.085,129.901 159.758 C 130.221 160.432,131.096 161.452,131.847 162.024 C 132.597 162.597,133.583 163.796,134.036 164.688 C 134.490 165.581,135.246 166.671,135.716 167.110 C 137.956 169.200,138.491 188.137,136.386 190.807 C 135.926 191.391,134.988 192.827,134.301 193.998 C 129.207 202.692,121.044 206.770,108.720 206.774 L 102.629 206.776 97.878 204.466 C 94.205 202.679,92.975 201.885,92.458 200.965 C 92.090 200.310,91.169 199.515,90.412 199.199 C 89.570 198.847,88.878 198.214,88.631 197.569 C 88.409 196.989,87.541 195.121,86.701 193.417 C 85.290 190.553,84.847 189.432,82.817 183.580 C 81.950 181.081,81.916 179.737,82.652 177.154 C 82.956 176.089,83.669 173.562,84.237 171.539 C 84.805 169.516,85.672 167.327,86.162 166.674 C 86.653 166.022,87.338 164.802,87.684 163.964 C 88.621 161.700,93.433 157.387,98.128 154.604 C 98.572 154.341,99.312 154.123,99.772 154.120 C 101.223 154.110,105.375 152.652,106.238 151.850 C 108.327 149.908,111.821 149.964,114.884 151.988 M201.216 151.863 C 202.310 152.476,204.428 153.317,205.922 153.731 C 208.750 154.514,211.423 155.859,211.423 156.497 C 211.423 156.701,212.385 157.308,213.561 157.847 C 215.189 158.592,215.879 159.176,216.449 160.294 C 216.861 161.102,217.776 162.104,218.482 162.520 C 221.812 164.485,225.150 178.557,223.424 183.349 C 222.520 185.860,221.104 191.344,221.104 192.334 C 221.104 195.121,214.425 201.779,208.944 204.457 C 204.688 206.536,202.378 206.906,195.160 206.667 L 189.158 206.467 185.620 204.879 C 183.675 204.006,181.891 203.291,181.655 203.291 C 180.858 203.291,176.354 199.214,173.283 195.712 C 171.409 193.575,171.255 193.087,170.107 185.673 C 169.308 180.510,169.254 177.835,169.895 175.024 C 170.162 173.853,170.647 171.521,170.974 169.842 C 171.650 166.365,171.892 165.822,173.638 163.857 C 174.331 163.078,175.333 161.788,175.865 160.992 C 177.643 158.330,183.572 154.261,186.187 153.908 C 188.873 153.546,190.528 152.988,192.256 151.863 C 195.085 150.019,197.925 150.020,201.216 151.863 M285.770 151.597 C 286.515 152.097,288.432 152.874,290.029 153.323 C 294.746 154.651,295.574 154.959,296.999 155.917 C 299.884 157.858,301.652 159.405,302.788 160.984 C 303.438 161.888,304.332 162.846,304.776 163.114 C 306.039 163.877,307.067 166.279,307.692 169.928 C 308.007 171.772,308.810 174.960,309.476 177.011 L 310.686 180.741 309.491 183.788 C 308.221 187.028,307.454 190.171,307.454 192.141 C 307.454 193.024,307.068 193.715,306.002 194.742 C 305.203 195.511,304.062 196.791,303.465 197.586 C 302.868 198.382,301.877 199.293,301.262 199.611 C 300.646 199.929,299.831 200.718,299.450 201.363 C 298.719 202.600,294.011 205.148,290.472 206.222 C 286.171 207.528,272.962 206.747,270.445 205.039 C 269.656 204.504,268.770 204.066,268.476 204.066 C 268.181 204.066,266.053 202.193,263.747 199.903 C 261.440 197.614,259.256 195.566,258.892 195.353 C 257.564 194.576,254.700 184.045,254.732 180.058 C 254.774 174.747,258.051 163.621,259.922 162.439 C 260.596 162.014,261.606 160.989,262.166 160.162 C 262.727 159.335,263.860 158.330,264.686 157.929 C 265.511 157.528,266.631 156.773,267.174 156.253 C 268.233 155.238,269.979 154.527,273.379 153.726 C 274.550 153.450,276.554 152.542,277.832 151.709 C 280.557 149.931,283.229 149.894,285.770 151.597 M108.316 160.932 C 107.299 161.245,105.674 162.004,104.704 162.619 C 103.734 163.234,102.220 163.859,101.338 164.008 C 99.103 164.385,95.034 168.260,94.481 170.538 C 94.270 171.408,93.533 173.251,92.843 174.634 C 91.241 177.848,91.083 181.137,92.444 182.962 C 92.921 183.601,93.652 185.464,94.068 187.102 C 94.989 190.721,95.761 192.287,96.906 192.860 C 97.383 193.099,98.383 193.972,99.129 194.800 C 102.448 198.488,121.588 198.802,121.588 195.168 C 121.588 194.969,122.872 193.432,124.441 191.754 C 128.183 187.752,128.367 187.168,128.352 179.284 C 128.338 171.735,127.988 170.177,125.900 168.367 C 125.086 167.663,124.119 166.617,123.749 166.044 C 123.293 165.337,122.182 164.661,120.299 163.945 C 118.772 163.363,117.086 162.572,116.554 162.185 C 114.258 160.520,111.181 160.051,108.316 160.932 M191.818 161.255 C 191.151 161.545,190.491 161.969,190.349 162.198 C 190.208 162.426,189.272 162.861,188.270 163.165 C 180.873 165.404,178.509 169.634,178.509 180.631 L 178.509 184.933 180.348 188.594 C 181.898 191.678,182.418 192.368,183.649 192.969 C 184.452 193.362,185.370 194.187,185.688 194.802 C 187.142 197.613,199.688 199.027,204.608 196.934 C 206.849 195.981,213.225 189.351,213.740 187.440 C 215.130 182.275,213.775 170.173,211.668 168.946 C 211.375 168.775,210.624 167.882,210.000 166.961 C 208.965 165.433,205.495 163.421,203.872 163.408 C 203.659 163.407,202.275 162.796,200.797 162.051 C 197.800 160.542,194.192 160.222,191.818 161.255 M277.793 161.656 C 276.919 162.180,274.918 163.072,273.345 163.640 C 269.963 164.860,268.847 165.534,268.524 166.550 C 268.393 166.963,267.618 168.072,266.802 169.015 C 264.536 171.633,264.279 172.779,264.279 180.252 C 264.279 188.286,264.507 188.898,269.229 193.506 C 273.252 197.434,273.871 197.633,281.897 197.588 C 289.562 197.545,291.190 197.177,293.574 194.947 C 294.588 193.999,295.608 193.224,295.842 193.224 C 296.076 193.224,296.708 192.222,297.247 190.997 C 297.786 189.773,298.649 187.962,299.163 186.973 C 300.905 183.629,300.783 176.735,298.928 173.669 C 298.542 173.030,298.103 171.810,297.953 170.958 C 297.151 166.413,295.248 164.447,290.656 163.418 C 289.691 163.202,288.075 162.501,287.066 161.861 C 284.558 160.270,280.262 160.176,277.793 161.656 M116.454 165.269 C 127.157 169.341,129.188 183.372,120.215 191.251 C 110.766 199.547,95.954 192.863,95.329 180.021 C 94.812 169.394,106.269 161.394,116.454 165.269 M201.196 165.109 C 211.833 168.427,215.240 182.728,207.188 190.259 C 194.884 201.768,177.383 190.141,182.179 173.643 C 184.248 166.525,193.059 162.571,201.196 165.109 M286.295 164.792 C 299.558 168.190,301.256 188.734,288.674 193.577 C 275.143 198.785,263.161 187.244,268.317 173.971 C 271.250 166.421,278.402 162.770,286.295 164.792 M37.041 165.634 C 35.863 167.561,35.711 188.473,36.860 190.666 C 38.258 193.335,38.683 191.109,38.777 180.626 C 38.874 169.743,38.182 163.769,37.041 165.634 M41.226 213.768 C 40.869 214.346,41.394 217.619,41.844 217.619 C 42.316 217.619,42.319 213.861,41.847 213.569 C 41.648 213.447,41.369 213.536,41.226 213.768 M147.716 221.847 C 139.745 223.127,130.186 229.927,126.234 237.128 C 125.345 238.748,124.464 240.169,124.276 240.285 C 124.088 240.401,123.468 241.926,122.896 243.675 C 120.742 250.268,121.556 260.205,124.662 265.247 C 125.252 266.205,126.359 268.122,127.121 269.506 C 129.484 273.800,137.098 279.989,142.263 281.814 C 146.928 283.462,160.106 283.267,164.123 281.490 C 179.441 274.715,186.218 260.275,182.014 243.369 C 179.835 234.604,170.025 225.124,160.503 222.582 C 157.448 221.766,150.650 221.375,147.716 221.847 M234.076 221.875 C 228.751 222.668,227.449 223.141,221.818 226.331 C 211.472 232.193,205.304 249.307,209.095 261.634 C 212.054 271.257,221.772 280.616,230.591 282.337 C 243.090 284.775,252.731 281.805,261.199 272.906 C 273.436 260.047,270.651 235.478,256.025 227.251 C 254.814 226.569,253.040 225.452,252.081 224.768 C 248.522 222.226,240.442 220.928,234.076 221.875 M160.207 225.410 C 160.869 225.968,162.775 226.921,164.442 227.529 C 166.453 228.262,167.930 229.094,168.829 229.999 C 169.574 230.750,170.743 231.657,171.426 232.015 C 172.141 232.390,172.902 233.227,173.221 233.990 C 173.526 234.719,174.328 235.710,175.005 236.191 C 176.866 237.517,179.388 243.582,180.080 248.395 C 181.017 254.921,178.408 265.662,174.977 269.401 C 174.151 270.301,173.475 271.209,173.475 271.418 C 173.475 271.937,171.464 273.766,170.893 273.766 C 170.640 273.766,169.791 274.371,169.006 275.111 C 168.222 275.851,165.639 277.372,163.267 278.490 L 158.955 280.525 152.565 280.503 L 146.176 280.482 142.397 278.479 C 140.319 277.378,138.393 276.476,138.117 276.476 C 137.841 276.476,137.015 275.846,136.281 275.075 C 135.547 274.304,134.383 273.432,133.695 273.136 C 132.872 272.783,132.165 272.036,131.631 270.956 C 131.184 270.052,130.376 268.941,129.836 268.487 C 129.216 267.966,128.445 266.470,127.745 264.427 C 127.135 262.648,126.280 260.754,125.844 260.218 C 122.976 256.695,122.765 249.428,125.423 245.692 C 126.029 244.840,127.005 242.662,127.591 240.852 C 128.447 238.207,128.940 237.316,130.104 236.313 C 130.901 235.626,131.759 234.568,132.010 233.960 C 132.298 233.264,133.098 232.550,134.173 232.028 C 135.111 231.572,136.179 230.742,136.545 230.183 C 136.954 229.557,138.484 228.579,140.524 227.636 C 142.346 226.794,144.189 225.786,144.619 225.396 C 145.859 224.272,146.219 224.225,152.783 224.312 C 158.872 224.393,159.027 224.416,160.207 225.410 M245.079 224.579 C 245.804 224.787,246.761 225.280,247.206 225.674 C 247.651 226.068,249.322 226.951,250.920 227.637 C 252.517 228.322,254.259 229.376,254.792 229.978 C 255.324 230.580,256.486 231.439,257.373 231.888 C 258.529 232.472,259.106 233.068,259.412 233.995 C 259.647 234.707,260.523 236.000,261.359 236.871 C 266.198 241.906,266.205 264.416,261.370 268.301 C 260.522 268.983,259.563 270.053,259.239 270.679 C 258.916 271.305,258.088 272.108,257.399 272.464 C 256.711 272.819,255.363 273.927,254.405 274.925 C 248.994 280.560,236.884 282.206,228.461 278.450 C 223.423 276.204,223.040 276.005,223.040 275.632 C 223.040 275.452,222.084 274.694,220.916 273.946 C 219.747 273.199,218.535 272.091,218.221 271.485 C 217.908 270.878,217.028 269.880,216.266 269.266 C 215.180 268.392,214.751 267.650,214.281 265.828 C 213.952 264.550,213.188 262.459,212.585 261.181 C 210.273 256.284,210.332 252.652,212.865 243.950 C 213.392 242.139,214.058 239.803,214.346 238.758 C 214.652 237.647,215.416 236.279,216.184 235.466 C 216.906 234.701,217.887 233.507,218.363 232.811 C 218.839 232.116,219.781 231.269,220.456 230.929 C 221.132 230.588,222.207 229.822,222.846 229.225 C 223.485 228.628,224.792 227.936,225.750 227.689 C 226.709 227.441,228.555 226.660,229.854 225.953 C 233.060 224.208,241.218 223.472,245.079 224.579 M344.459 230.881 C 343.651 232.382,343.780 234.220,344.735 234.811 C 345.902 235.533,346.842 233.360,346.395 230.975 C 346.077 229.282,345.339 229.246,344.459 230.881 M45.698 233.979 C 45.705 236.710,46.038 237.505,47.094 237.305 C 48.131 237.107,48.358 233.353,47.396 232.291 C 46.148 230.912,45.692 231.365,45.698 233.979 M147.386 234.064 C 146.561 234.358,145.341 235.116,144.676 235.749 C 144.010 236.382,142.403 237.430,141.103 238.078 C 138.995 239.129,138.647 239.475,137.865 241.293 C 137.383 242.414,136.501 243.949,135.905 244.705 C 132.969 248.429,132.736 255.443,135.421 259.296 C 135.995 260.120,137.006 261.839,137.668 263.117 C 138.523 264.769,139.377 265.776,140.623 266.602 C 141.586 267.241,142.968 268.394,143.694 269.164 C 146.785 272.444,159.160 272.407,162.241 269.109 C 162.989 268.308,164.168 267.368,164.862 267.020 C 165.555 266.671,166.544 265.718,167.060 264.902 C 167.575 264.085,168.460 263.080,169.026 262.667 C 172.118 260.415,172.010 245.919,168.877 242.594 C 168.074 241.742,167.117 240.561,166.750 239.968 C 166.373 239.358,165.210 238.499,164.068 237.988 C 162.959 237.491,161.632 236.627,161.117 236.068 C 158.974 233.738,151.400 232.633,147.386 234.064 M233.688 233.837 C 231.854 234.315,230.177 235.311,229.520 236.313 C 229.188 236.821,228.125 237.538,227.158 237.907 C 225.390 238.582,223.695 240.468,222.029 243.613 C 221.144 245.283,220.761 256.505,221.472 259.930 C 222.036 262.646,224.753 266.171,226.966 267.056 C 227.766 267.376,228.874 268.233,229.429 268.960 C 232.380 272.829,244.964 272.850,248.403 268.992 C 249.042 268.275,250.301 267.227,251.200 266.662 C 252.127 266.082,253.153 265.006,253.565 264.183 C 253.966 263.384,254.744 261.946,255.294 260.987 C 258.965 254.590,256.485 241.409,251.135 238.882 C 250.271 238.474,248.693 237.443,247.628 236.592 C 244.198 233.849,238.193 232.662,233.688 233.837 M156.776 237.771 C 168.623 242.274,172.142 254.811,163.822 262.871 C 151.913 274.407,133.605 263.349,138.313 247.464 C 140.535 239.970,149.785 235.114,156.776 237.771 M244.121 238.440 C 250.302 240.870,253.437 245.655,253.437 252.662 C 253.437 258.664,253.082 259.625,249.571 263.148 C 241.957 270.787,227.482 268.422,224.704 259.085 C 220.538 245.080,231.463 233.464,244.121 238.440 M340.621 243.562 C 339.811 246.055,340.283 247.585,341.395 246.065 C 342.059 245.156,342.052 244.669,341.364 243.733 C 340.907 243.113,340.777 243.083,340.621 243.562 M336.111 252.849 C 335.582 254.127,335.841 255.331,336.593 255.084 C 337.154 254.900,337.494 251.694,336.952 251.694 C 336.753 251.694,336.374 252.214,336.111 252.849 M318.670 280.171 C 318.293 280.626,318.282 280.876,318.625 281.220 C 319.179 281.774,320.477 280.670,320.062 279.998 C 319.699 279.412,319.254 279.467,318.670 280.171 M288.362 310.412 C 288.052 310.722,288.402 311.326,288.890 311.326 C 289.091 311.326,289.255 311.065,289.255 310.745 C 289.255 310.147,288.798 309.976,288.362 310.412 M119.135 318.167 C 118.674 318.628,118.862 319.798,119.450 320.127 C 120.303 320.604,123.136 320.241,123.136 319.655 C 123.136 318.750,119.795 317.507,119.135 318.167 M262.421 323.575 C 261.876 324.119,262.172 324.492,263.149 324.492 C 263.777 324.492,264.090 324.312,263.989 324.008 C 263.802 323.448,262.819 323.177,262.421 323.575 M143.917 327.848 C 143.420 328.346,143.668 328.774,144.678 329.158 C 145.869 329.611,147.144 329.308,147.144 328.573 C 147.144 327.744,144.595 327.170,143.917 327.848 M165.952 335.833 C 165.217 336.384,165.218 336.401,166.011 336.825 C 167.319 337.526,174.250 337.606,174.250 336.921 C 174.250 335.855,167.161 334.925,165.952 335.833 " stroke="none" fill="#b0b0b0" fill-rule="evenodd"></path></g></svg>
<?xml version="1.0" encoding="UTF-8"?>
<svg id="Layer_2" data-name="Layer 2" xmlns="http://www.w3.org/2000/svg" viewBox="0 0 146.33 146.7">
  <g id="Layer_1-2" data-name="Layer 1">
    <path d="M60.53,1.2c-4,.7-9.4,2.1-12.1,3.1-4.2,1.5-5.7,1.6-11,.5l-6.2-1.2-8.9,7.7c-5,4.3-9,8.5-9,9.4,0,.8,.4,3,1,4.9,.8,3.1,.6,3.9-2.4,8-1.9,2.6-4.2,6.7-5.2,9.1-.9,2.5-2,4.9-2.4,5.5C1.43,52.4-.87,71.5,.33,81.3c2.1,18,8.4,30.9,21.4,44,15,15,30.5,21.4,51.6,21.4,18.9,0,35.4-6.2,48.6-18.3,16.5-15.1,24.4-32.8,24.4-54.8,0-15.6-4-28.9-12.7-42-2-3.1-2.3-4.4-1.8-8.1,.7-4.3,.6-4.4-5.3-9.5-13.3-11.6-11.5-10.7-18.1-9.3-5.3,1.1-6.5,1-12.2-.9C83.93-.2,72.83-1,60.53,1.2Zm34.4,6.7c6.3,2.2,7.8,2.4,12.7,1.5,6.1-1.1,5.6-1.4,16.1,8,3.5,3.2,3.8,3.8,3.3,7.5-.5,3.5,0,4.8,3.3,9.7,10.4,15.4,14.3,35.2,10.5,53.6-.8,3.8-3.5,11.1-5.9,16-17.1,34.7-58.6,48.4-93.4,30.8-14.5-7.3-28.2-23.1-33.7-39-2.2-6.3-2.8-10.2-3.2-20.3-.5-11-.3-13.4,1.7-20,2.4-8,6.2-16.1,10.4-22.4,2.3-3.2,2.6-4.5,2-8.1-.6-4.1-.4-4.5,3.2-7.8,10.6-9.5,9.9-9.1,16.6-7.9,4.2,.8,6.7,.8,8,.1,10.2-5.5,35.3-6.4,48.4-1.7Z"/>
    <path d="M66.13,16.4c-2.1,.8-3.8,2-3.8,2.7,0,1.4,10.1,11.6,11.6,11.6,1.6,0,10.4-9.4,10.4-11.2,0-1.9-6.8-4.8-11.3-4.7-1.7,0-4.9,.7-6.9,1.6Zm4,2.2c-1.7,2.7,0,5.6,3.2,5.6s4.9-2.9,3.2-5.5c-1-1.7-1-2,.2-2,1.9,0,6.6,2.1,6.6,2.9,0,.4-2.2,2.8-4.8,5.4l-4.8,4.7-5.3-5.4-5.3-5.3,3.9-1.6c4.5-1.8,4.9-1.6,3.1,1.2Zm5.2,.7c1.1,1.2,1,1.8-.3,3.2-1.6,1.5-1.8,1.5-3.4,0-1.3-1.4-1.4-2-.3-3.2,.7-.9,1.6-1.6,2-1.6s1.3,.7,2,1.6Z"/>
    <path d="M56.73,24.9c-3.2,6.2-1.2,19.8,2.9,19.8,1.5,0,11.7-10.1,11.7-11.6,0-1.4-10.3-11.4-11.8-11.4-.6,0-1.9,1.5-2.8,3.2Zm8.4,3.1l5.2,5.3-5.5,5.4-5.4,5.4-1.6-3.7c-2.1-5-1.9-6.4,.4-4.3,2.8,2.5,6.3,.5,5.9-3.2-.3-3-3.9-4.2-6.4-2.2-1.1,1-1.4,.9-1.4-.4,0-1.5,2.7-7.6,3.3-7.6,.2,0,2.6,2.4,5.5,5.3Zm-2.3,5.2c0,1.3-.8,2.1-2.2,2.3-1.7,.3-2.3-.2-2.3-1.6,0-1,.3-2.2,.7-2.6,1.3-1.3,3.8-.1,3.8,1.9Z"/>
    <path d="M81.53,27c-2.9,2.9-5.2,5.7-5.2,6.3,0,1.8,10.5,11.4,11.6,10.6,2.1-1.4,3.4-5.1,3.4-10.2s-2.2-12-3.7-12c-.5,0-3.2,2.4-6.1,5.3Zm7.7-.1c1.3,3.6,.8,4.6-1.3,2.9-2.4-2-5.8,.4-5.4,3.7,.3,2.4,.7,2.7,4.1,2.6,2-.1,3.7,0,3.7,.1,0,1.1-2.3,6.5-2.8,6.5-.4,0-2.8-2.1-5.4-4.7l-4.7-4.6,4.2-4.8c2.3-2.7,4.7-4.8,5.4-4.9,.6,0,1.6,1.4,2.2,3.2Zm-.9,5.8c0,2.4-2.6,3.8-4.2,2.2s-.2-4.2,2.2-4.2c1.3,0,2,.7,2,2Z"/>
    <path d="M67.53,41c-2.9,2.9-5.2,5.8-5.2,6.5,0,1.9,6.2,4.2,11.1,4.2,4,0,10.4-2.3,11.5-4.2,.7-1.1-9.4-11.8-11.1-11.8-.6,0-3.4,2.4-6.3,5.3Zm15.8,5.9c0,.8-2,1.8-7,3.3-2.5,.8-2.5,.7-.7-1.3,2.2-2.4,1.9-5-.5-6.6-4-2.5-7.4,3-4.2,6.5q1.8,2-1.1,1.3c-7.1-1.7-7.2-2.1-1.4-8l5.3-5.4,4.8,4.7c2.6,2.6,4.8,5.1,4.8,5.5Zm-8-2.6c1.1,1.2,1,1.8-.3,3.2-1.6,1.5-1.8,1.5-3.4,0-1.3-1.4-1.4-2-.3-3.2,.7-.9,1.6-1.6,2-1.6s1.3,.7,2,1.6Z"/>
    <path d="M31.33,55.3c-19.4,8.4-14.5,38.4,6.5,40.2,20.6,1.7,31.4-22.3,16.4-36.5-1.9-1.7-4.7-3.7-6.2-4.2-4-1.6-12.6-1.3-16.7,.5Zm17.6,2.4c8,3.9,12.2,14,9.4,22.5-1.6,4.7-6.6,10.4-10.7,12.1-6.3,2.7-15.7,1.1-20.6-3.4-6.3-5.6-7.7-17.8-2.9-24.7,5.6-8.1,15.9-10.8,24.8-6.5Z"/>
    <path d="M34.63,67.5c-3.5,2.7-4.5,6.7-2.9,10.7,2.6,6.3,9.7,7.5,14.7,2.6,3.6-3.7,3.8-7.9,.5-11.8-3-3.5-8.9-4.3-12.3-1.5Zm11.5,2.9c3.1,4.2-.5,11.3-5.8,11.3-4.4,0-7-2.6-7-7,0-5.3,3.6-8.3,8.3-6.9,1.8,.5,3.8,1.7,4.5,2.6Z"/>
    <path d="M98.83,55.4c-13.2,6.9-16.4,22-7,33,12.5,14.7,36.9,5.7,36.8-13.6,0-9-4.6-16.3-12.5-19.6-4.8-1.9-13.4-1.9-17.3,.2Zm16.8,1.9c11.3,5.7,14.6,19.3,7.1,29.1-6.1,8-18.5,9.7-26.1,3.7-4.5-3.6-8.3-10.5-8.3-15.1,0-6.9,5.3-15.1,11.5-17.9,4.1-1.8,11.9-1.7,15.8,.2Z"/>
    <path d="M100.93,68.8c-3.5,4.1-3.4,8.3,.3,12,5,4.9,12.1,3.7,14.7-2.7,4-9.5-8.4-17.2-15-9.3Zm11.9,.9c4.2,4.7,.8,12-5.5,12-3.3,0-7-4-7-7.4,0-5.7,8.6-8.9,12.5-4.6Z"/>
    <path d="M67.63,97c-6.2,2.3-6.2,3.2-.3,9.2,3,3,5.9,5.5,6.5,5.5s3.5-2.5,6.5-5.6c5.3-5.3,5.4-5.6,3.5-7-2.2-1.6-8.1-3.4-11-3.3-1.1,0-3.4,.6-5.2,1.2Zm2.5,2.7c-1.8,2.8,.1,5.5,3.8,5.5,2.3,0,3-.5,3.2-2.3,.2-1.3-.2-3-.8-3.8-1-1.1-.9-1.4,.4-1.4,1.5,0,5.3,1.5,6.5,2.7,.3,.2-1.7,2.6-4.4,5.3l-4.9,5-4.8-4.7c-2.6-2.6-4.8-5.1-4.8-5.5,0-.9,3.7-2.6,5.8-2.7,1-.1,1,.3,0,1.9Zm6.2,2.7c0,2.1-2.9,2.8-4.6,1.1-1.4-1.3-1.4-1.7,.1-3.2,1.3-1.3,2-1.4,3.1-.5,.8,.6,1.4,1.8,1.4,2.6Z"/>
    <path d="M57.33,105.9c-3.4,5.6-1.7,19.8,2.2,19.8,1.6,0,11.8-10.1,11.8-11.6,0-1.1-10.2-11.4-11.3-11.4-.4,0-1.6,1.5-2.7,3.2Zm8.2,3.5l4.7,4.6-3.6,4.1c-2,2.3-4.5,4.7-5.5,5.4-1.7,1.2-2,1-3.4-2.3-1.7-4.1-1.3-5.5,1-3.6,1.8,1.5,5.2,.6,6-1.5,1.5-3.9-4.2-7.2-7.2-4.2-.7,.7-1.2,.9-1.2,.5,0-1.6,2.9-7.7,3.7-7.7,.4,0,2.9,2.1,5.5,4.7Zm-2.4,4.7c.4,2.1-1.4,3.7-3.5,2.9-1.4-.5-1.8-3.5-.6-4.7s3.8-.1,4.1,1.8Z"/>
    <path d="M81.03,108.5c-2.6,2.6-4.7,5.2-4.7,5.8,0,.5,2.5,3.4,5.4,6.3,4.5,4.5,5.8,5.2,7,4.2,1.9-1.6,4-10.3,3.1-13.3-2.6-9.3-4.1-9.8-10.8-3Zm8.1-1.3c1.7,3.8,1.6,6.1-.2,4.5-.8-.6-2.5-1-3.8-.8-1.8,.2-2.3,.9-2.3,3.2,0,4.1,2.7,5.6,5.6,3.1l2.2-2-.7,3.5c-1.1,5.8-2.2,5.8-7.6,.5l-5-4.9,4.7-4.8c2.6-2.6,5-4.8,5.4-4.8,.3,0,1.1,1.1,1.7,2.5Zm-1,7.3c.3,1.6-.2,2.2-1.7,2.2-2.4,0-3.5-1.5-2.7-3.6,.9-2.3,4-1.3,4.4,1.4Z"/>
    <path d="M67.53,122c-2.9,2.9-5.2,5.8-5.2,6.5,0,2,5.7,4.2,11.2,4.2,5.1,0,11.8-2.7,11.8-4.8,0-1.1-10.4-11.2-11.6-11.2-.5,0-3.3,2.4-6.2,5.3Zm11.6,1c2.3,2.3,4.2,4.6,4.2,5,0,.8-5.5,3.7-7.2,3.7-.9,0-.9-.3,0-1.2,1.8-1.8,1.4-5.6-.7-6.8-4.2-2.2-7.7,2.5-4.5,6.1,2.1,2.3,.7,2.5-4.3,.4l-3.7-1.6,4.9-4.9c2.7-2.8,5.4-5,6-5s3,1.9,5.3,4.3Zm-3.3,4.2c0,2.3-3.4,3.3-4.5,1.4-1.3-2,.1-4,2.4-3.7,1.3,.2,2.1,1,2.1,2.3Z"/>
  </g>
</svg>
