<?xml version="1.0" encoding="utf-8"?>
<!-- Generator: Adobe Illustrator 24.1.1, SVG Export Plug-In . SVG Version: 6.00 Build 0)  -->
<svg version="1.1" id="Layer_1" xmlns="http://www.w3.org/2000/svg" xmlns:xlink="http://www.w3.org/1999/xlink" x="0px" y="0px"
	 viewBox="0 0 512 512" style="enable-background:new 0 0 512 512;" xml:space="preserve">
<g>
	<path d="M64,21.3v21.3h300.5l62.2,62.2v364.5H85.4l0-448L64,21.3v21.3V21.3l-21.3,0l0,490.7h426.7V87.2L382.2,0H42.6l0,21.3
		L64,21.3z M320,21.3v128h128v-42.7l-85.3,0V21.3H320L320,21.3z M176.9,271.1l128,128l30.2-30.2l-128-128L176.9,271.1z M304.9,240.9
		l-128,128l30.2,30.2l128-128L304.9,240.9z"/>
</g>
</svg>
