<svg id="svg" version="1.1" xmlns="http://www.w3.org/2000/svg" xmlns:xlink="http://www.w3.org/1999/xlink" width="400" height="352.1739130434783" viewBox="0, 0, 400,352.1739130434783"><g id="svgg"><path id="path0" d="M186.960 15.683 C 186.767 15.749,182.326 15.982,177.093 16.201 C 164.710 16.719,154.623 17.466,150.661 18.159 C 148.916 18.464,144.821 19.101,141.561 19.576 C 138.301 20.050,134.415 20.743,132.927 21.116 C 131.438 21.489,128.534 22.123,126.474 22.526 C 116.644 24.446,101.488 29.826,89.692 35.580 C 58.562 50.766,35.048 80.610,28.197 113.630 C 27.832 115.389,27.112 118.731,26.598 121.057 C 24.937 128.572,24.961 163.070,26.635 173.959 C 26.930 175.876,27.564 180.458,28.045 184.141 C 29.178 192.826,33.013 210.129,35.778 219.035 C 43.206 242.961,52.122 261.192,64.817 278.414 C 81.958 301.667,111.534 319.484,148.511 328.834 C 161.796 332.193,163.235 332.500,169.019 333.220 C 171.521 333.531,175.868 334.212,178.678 334.733 C 183.723 335.668,183.984 335.680,199.119 335.679 L 214.449 335.679 222.379 334.359 C 226.740 333.632,231.894 332.786,233.833 332.478 C 252.415 329.523,280.997 319.230,295.859 310.142 C 320.379 295.147,331.920 282.895,346.597 256.277 C 355.424 240.269,366.168 208.452,368.280 192.070 C 368.492 190.423,369.131 186.379,369.700 183.084 C 372.990 164.018,373.257 131.269,370.236 117.115 C 363.570 85.874,349.181 63.406,324.531 45.743 C 316.766 40.179,299.030 31.033,290.925 28.413 C 278.078 24.261,274.600 23.225,270.818 22.424 C 268.502 21.934,265.577 21.293,264.317 21.000 C 263.057 20.707,258.696 19.994,254.626 19.415 C 250.555 18.836,245.868 18.125,244.210 17.836 C 241.142 17.300,236.693 16.973,219.700 16.034 C 211.486 15.580,187.998 15.328,186.960 15.683 M224.788 60.631 C 226.661 60.854,228.289 61.096,228.406 61.168 C 228.522 61.240,230.822 61.468,233.516 61.675 C 238.347 62.047,240.548 62.349,254.097 64.499 C 265.310 66.279,277.185 69.925,286.889 74.567 C 293.189 77.581,301.846 83.752,305.742 88.006 C 310.698 93.418,316.324 100.205,317.363 102.026 C 317.916 102.996,318.824 104.464,319.380 105.290 C 319.937 106.116,320.954 108.568,321.641 110.738 C 322.329 112.909,323.562 116.198,324.381 118.047 C 327.661 125.446,329.214 147.780,327.433 161.938 C 327.263 163.295,326.783 167.260,326.367 170.749 C 325.952 174.238,325.362 178.441,325.058 180.088 C 324.753 181.736,324.278 184.352,324.002 185.903 C 323.727 187.454,322.802 191.181,321.948 194.185 C 321.094 197.189,320.295 200.361,320.172 201.233 C 319.171 208.357,315.752 217.372,307.809 233.833 C 303.799 242.142,299.819 248.259,292.397 257.521 C 290.736 259.594,285.968 263.525,282.883 265.364 C 282.143 265.805,280.484 267.030,279.196 268.086 C 277.908 269.141,275.897 270.560,274.727 271.239 C 273.557 271.918,272.075 272.848,271.435 273.307 C 270.795 273.765,269.209 274.492,267.911 274.922 C 266.613 275.353,264.940 276.088,264.194 276.557 C 263.448 277.026,261.624 277.937,260.141 278.581 C 258.658 279.225,256.176 280.321,254.626 281.017 C 253.075 281.713,251.499 282.284,251.124 282.286 C 249.931 282.294,245.883 283.413,243.912 284.281 C 242.865 284.742,241.041 285.362,239.859 285.660 C 238.676 285.957,237.075 286.499,236.300 286.863 C 234.103 287.895,230.952 288.584,227.489 288.788 C 225.744 288.890,221.938 289.334,219.031 289.772 C 212.126 290.814,182.687 290.937,177.093 289.947 C 168.718 288.465,165.868 287.847,162.215 286.719 C 160.041 286.047,157.266 285.321,156.048 285.104 C 150.939 284.195,139.785 279.935,133.570 276.518 C 131.340 275.292,127.930 273.544,125.992 272.632 C 117.343 268.565,108.064 260.993,102.074 253.116 C 100.641 251.233,99.040 249.295,98.515 248.811 C 96.825 247.251,94.166 243.382,93.420 241.399 C 93.022 240.339,91.722 237.648,90.533 235.419 C 84.490 224.095,83.580 222.148,82.459 218.155 C 81.834 215.929,80.801 212.916,80.163 211.459 C 77.747 205.938,74.205 191.882,73.667 185.682 C 73.463 183.337,73.223 181.299,73.133 181.154 C 73.043 181.009,72.727 178.235,72.429 174.991 C 72.132 171.746,71.650 167.958,71.359 166.572 C 69.719 158.770,68.691 142.796,69.530 138.150 C 69.827 136.502,70.171 133.727,70.293 131.982 C 71.382 116.484,81.005 96.267,90.749 89.008 C 92.106 87.997,94.014 86.295,94.990 85.226 C 96.601 83.460,99.956 80.830,106.162 76.468 C 107.891 75.253,109.469 74.557,112.805 73.537 C 115.212 72.801,118.370 71.718,119.824 71.129 C 123.715 69.554,128.997 67.860,134.479 66.430 C 137.145 65.735,139.433 65.100,139.564 65.019 C 140.089 64.695,146.682 63.435,150.641 62.902 C 152.957 62.590,154.946 62.277,155.063 62.205 C 155.179 62.133,157.646 61.901,160.544 61.689 C 163.443 61.477,168.194 61.068,171.101 60.780 C 179.616 59.937,218.075 59.830,224.788 60.631 M185.198 91.597 C 179.777 92.946,179.184 96.829,183.324 103.873 C 202.567 136.608,186.776 177.583,150.444 189.187 C 143.307 191.466,129.753 192.097,122.291 190.496 C 111.945 188.278,109.283 192.123,113.639 202.996 C 119.184 216.837,120.233 217.257,131.114 209.987 C 144.483 201.053,155.348 196.645,174.376 192.435 C 181.261 190.911,199.679 190.208,211.454 191.020 C 231.182 192.380,253.491 200.311,268.194 211.191 C 276.746 217.519,278.789 216.327,284.544 201.659 C 288.150 192.466,285.124 188.554,275.906 190.493 C 250.196 195.901,223.262 182.718,211.809 159.119 C 203.138 141.251,203.832 122.612,213.843 104.544 C 217.832 97.345,217.828 94.389,213.827 92.251 C 212.276 91.422,188.118 90.870,185.198 91.597 M126.647 108.540 C 113.112 112.088,104.828 126.796,108.510 140.742 C 114.595 163.788,146.719 166.912,157.302 145.487 C 167.422 125.000,148.921 102.700,126.647 108.540 M256.740 108.537 C 233.859 114.625,230.599 146.778,251.806 157.198 C 272.264 167.250,294.484 149.402,289.121 127.225 C 285.767 113.351,270.897 104.770,256.740 108.537 M137.999 125.041 C 145.018 128.662,145.261 138.874,138.407 142.160 C 133.503 144.512,128.164 142.983,125.343 138.421 C 120.671 130.863,130.055 120.943,137.999 125.041 M267.691 125.034 C 272.591 127.533,274.624 134.052,271.935 138.640 C 267.156 146.796,254.097 143.271,254.097 133.825 C 254.097 126.892,261.698 121.976,267.691 125.034 M195.242 212.116 C 181.117 216.762,181.202 236.090,195.366 239.861 C 206.856 242.920,216.412 230.853,211.316 219.720 C 208.813 214.253,200.583 210.360,195.242 212.116 M203.243 216.268 C 208.291 218.635,210.670 224.786,208.639 230.216 C 206.073 237.072,196.605 239.077,191.271 233.894 C 182.610 225.476,192.338 211.154,203.243 216.268 M144.019 222.893 C 140.378 224.191,138.565 228.479,140.102 232.157 C 142.574 238.074,151.248 237.257,152.926 230.949 C 154.275 225.879,149.007 221.115,144.019 222.893 M249.035 222.895 C 243.640 224.819,242.829 232.019,247.663 235.084 C 251.302 237.392,256.097 235.842,257.781 231.813 C 260.038 226.409,254.635 220.899,249.035 222.895 " stroke="none" fill="#6d7687" fill-rule="evenodd"></path><path id="path1" d="M173.798 70.136 C 167.331 70.518,161.590 71.115,158.238 71.755 C 156.784 72.032,152.502 72.724,148.722 73.291 C 115.973 78.207,92.066 94.097,83.830 116.424 C 79.505 128.148,77.913 149.192,80.158 164.934 C 83.291 186.888,84.679 193.405,89.503 208.811 C 92.113 217.144,97.299 228.504,102.359 236.975 C 113.149 255.034,129.611 266.802,155.066 274.652 C 164.097 277.438,169.335 278.507,188.370 281.452 C 193.665 282.271,208.076 281.962,213.392 280.915 C 215.524 280.495,220.123 279.675,223.612 279.092 C 246.950 275.195,270.372 264.883,282.776 253.046 C 299.702 236.892,313.750 201.549,317.238 166.344 C 318.106 157.580,317.888 133.338,316.891 127.753 C 313.585 109.234,302.810 94.836,284.873 84.965 C 275.946 80.053,260.043 74.868,249.692 73.495 C 247.366 73.186,242.826 72.460,239.604 71.881 C 236.382 71.301,232.180 70.661,230.265 70.458 C 225.882 69.993,180.604 69.735,173.798 70.136 M215.347 87.314 C 223.404 90.566,224.152 95.505,218.246 106.460 C 210.271 121.256,208.513 135.047,212.881 148.546 C 221.562 175.376,245.909 190.476,273.128 185.911 C 282.433 184.351,283.528 184.380,286.762 186.275 C 292.387 189.572,292.455 195.718,287.006 208.218 C 281.009 221.973,276.413 223.877,267.125 216.454 C 256.711 208.131,245.116 202.865,227.740 198.569 C 215.831 195.624,214.078 195.468,195.595 195.706 C 180.587 195.900,180.255 195.931,172.687 197.824 C 170.652 198.333,167.084 199.209,164.758 199.769 C 154.357 202.277,140.613 208.866,130.015 216.427 C 119.946 223.611,116.378 221.896,110.010 206.816 C 106.127 197.622,105.689 194.022,107.912 189.574 C 110.161 185.072,114.029 183.876,121.410 185.400 C 149.322 191.163,175.077 176.672,184.298 150.016 C 188.823 136.934,186.407 117.339,178.827 105.654 C 172.409 95.760,174.801 88.395,185.022 86.578 C 188.536 85.953,213.476 86.558,215.347 87.314 M142.203 103.758 C 165.020 109.810,172.712 139.138,155.818 155.674 C 133.572 177.449,97.539 157.813,103.412 127.117 C 106.606 110.422,125.173 99.241,142.203 103.758 M271.894 103.800 C 301.369 111.932,302.532 153.705,273.551 163.288 C 266.783 165.525,263.462 165.670,256.794 164.020 C 233.595 158.280,224.962 131.424,240.421 113.087 C 247.342 104.876,261.090 100.820,271.894 103.800 M262.642 129.229 C 261.338 129.491,259.470 131.514,259.199 132.958 C 258.551 136.414,262.564 139.257,265.760 137.604 C 270.251 135.282,267.625 128.230,262.642 129.229 M131.561 130.029 C 128.933 131.631,128.484 134.407,130.497 136.604 C 133.251 139.609,138.502 137.859,138.502 133.937 C 138.502 130.332,134.634 128.155,131.561 130.029 M203.668 207.062 C 222.807 211.574,222.938 240.059,203.843 244.943 C 184.281 249.946,170.999 226.690,185.194 212.290 C 190.386 207.024,196.347 205.337,203.668 207.062 M150.033 216.920 C 157.452 219.123,161.419 228.059,158.043 234.960 C 152.158 246.987,134.316 243.690,133.642 230.450 C 133.151 220.827,141.099 214.266,150.033 216.920 M254.205 216.913 C 260.428 218.534,264.316 223.152,264.317 228.923 C 264.318 241.014,250.260 246.994,242.105 238.371 C 233.060 228.807,241.616 213.634,254.205 216.913 " stroke="none" fill="#3b404d" fill-rule="evenodd"></path><path id="path2" d="M179.031 9.202 C 113.786 12.224,71.147 29.706,43.942 64.589 C 24.425 89.616,16.574 119.820,19.003 160.541 C 22.643 221.584,46.042 276.073,80.450 303.628 C 106.700 324.651,146.898 339.228,185.949 341.886 C 231.849 345.010,284.566 329.657,317.007 303.716 C 352.667 275.201,375.179 221.255,378.893 155.419 C 382.813 85.929,347.583 37.345,279.119 17.827 C 254.922 10.928,215.363 7.519,179.031 9.202 M219.700 16.034 C 236.693 16.973,241.142 17.300,244.210 17.836 C 245.868 18.125,250.555 18.836,254.626 19.415 C 258.696 19.994,263.057 20.707,264.317 21.000 C 265.577 21.293,268.502 21.934,270.818 22.424 C 274.600 23.225,278.078 24.261,290.925 28.413 C 299.030 31.033,316.766 40.179,324.531 45.743 C 328.542 48.616,338.274 56.766,340.455 59.077 C 356.129 75.684,365.144 93.251,370.236 117.115 C 373.257 131.269,372.990 164.018,369.700 183.084 C 369.131 186.379,368.492 190.423,368.280 192.070 C 366.692 204.393,358.894 229.928,352.224 244.647 C 335.035 282.581,313.705 303.861,277.249 319.443 C 265.249 324.573,244.645 330.758,233.833 332.478 C 231.894 332.786,226.740 333.632,222.379 334.359 L 214.449 335.679 199.119 335.679 C 183.984 335.680,183.723 335.668,178.678 334.733 C 175.868 334.212,171.521 333.531,169.019 333.220 C 163.235 332.500,161.796 332.193,148.511 328.834 C 111.534 319.484,81.958 301.667,64.817 278.414 C 52.122 261.192,43.206 242.961,35.778 219.035 C 33.013 210.129,29.178 192.826,28.045 184.141 C 27.564 180.458,26.930 175.876,26.635 173.959 C 24.961 163.070,24.937 128.572,26.598 121.057 C 27.112 118.731,27.832 115.389,28.197 113.630 C 33.282 89.122,46.210 68.192,67.765 49.571 C 80.458 38.605,107.179 26.296,126.474 22.526 C 128.534 22.123,131.438 21.489,132.927 21.116 C 134.415 20.743,138.301 20.050,141.561 19.576 C 144.821 19.101,148.916 18.464,150.661 18.159 C 154.623 17.466,164.710 16.719,177.093 16.201 C 182.326 15.982,186.767 15.749,186.960 15.683 C 187.998 15.328,211.486 15.580,219.700 16.034 M196.558 215.351 C 186.164 217.880,184.943 232.412,194.812 236.136 C 203.497 239.414,211.808 231.160,208.778 222.267 C 207.200 217.635,201.179 214.227,196.558 215.351 M202.275 220.741 C 206.470 223.517,205.918 229.936,201.308 231.976 C 197.239 233.776,192.423 230.734,192.423 226.365 C 192.423 220.929,197.865 217.822,202.275 220.741 " stroke="none" fill="#9798a4" fill-rule="evenodd"></path><path id="path3" d="M178.855 60.172 C 177.498 60.219,174.009 60.492,171.101 60.780 C 168.194 61.068,163.443 61.477,160.544 61.689 C 157.646 61.901,155.179 62.133,155.063 62.205 C 154.946 62.277,152.957 62.590,150.641 62.902 C 146.682 63.435,140.089 64.695,139.564 65.019 C 139.433 65.100,137.145 65.735,134.479 66.430 C 128.997 67.860,123.715 69.554,119.824 71.129 C 118.370 71.718,115.212 72.801,112.805 73.537 C 109.469 74.557,107.891 75.253,106.162 76.468 C 99.956 80.830,96.601 83.460,94.990 85.226 C 94.014 86.295,92.106 87.997,90.749 89.008 C 81.005 96.267,71.382 116.484,70.293 131.982 C 70.171 133.727,69.827 136.502,69.530 138.150 C 68.691 142.796,69.719 158.770,71.359 166.572 C 71.650 167.958,72.132 171.746,72.429 174.991 C 72.727 178.235,73.043 181.009,73.133 181.154 C 73.223 181.299,73.463 183.337,73.667 185.682 C 74.205 191.882,77.747 205.938,80.163 211.459 C 80.801 212.916,81.834 215.929,82.459 218.155 C 83.580 222.148,84.490 224.095,90.533 235.419 C 91.722 237.648,93.022 240.339,93.420 241.399 C 94.166 243.382,96.825 247.251,98.515 248.811 C 99.040 249.295,100.641 251.233,102.074 253.116 C 108.064 260.993,117.343 268.565,125.992 272.632 C 127.930 273.544,131.340 275.292,133.570 276.518 C 139.785 279.935,150.939 284.195,156.048 285.104 C 157.266 285.321,160.041 286.047,162.215 286.719 C 165.868 287.847,168.718 288.465,177.093 289.947 C 182.687 290.937,212.126 290.814,219.031 289.772 C 221.938 289.334,225.744 288.890,227.489 288.788 C 230.952 288.584,234.103 287.895,236.300 286.863 C 237.075 286.499,238.676 285.957,239.859 285.660 C 241.041 285.362,242.865 284.742,243.912 284.281 C 245.883 283.413,249.931 282.294,251.124 282.286 C 251.499 282.284,253.075 281.713,254.626 281.017 C 256.176 280.321,258.658 279.225,260.141 278.581 C 261.624 277.937,263.448 277.026,264.194 276.557 C 264.940 276.088,266.613 275.353,267.911 274.922 C 269.209 274.492,270.795 273.765,271.435 273.307 C 272.075 272.848,273.557 271.918,274.727 271.239 C 275.897 270.560,277.908 269.141,279.196 268.086 C 280.484 267.030,282.143 265.805,282.883 265.364 C 285.968 263.525,290.736 259.594,292.397 257.521 C 299.819 248.259,303.799 242.142,307.809 233.833 C 315.752 217.372,319.171 208.357,320.172 201.233 C 320.295 200.361,321.094 197.189,321.948 194.185 C 322.802 191.181,323.727 187.454,324.002 185.903 C 324.278 184.352,324.753 181.736,325.058 180.088 C 325.362 178.441,325.952 174.238,326.367 170.749 C 326.783 167.260,327.263 163.295,327.433 161.938 C 329.214 147.780,327.661 125.446,324.381 118.047 C 323.562 116.198,322.329 112.909,321.641 110.738 C 320.954 108.568,319.937 106.116,319.380 105.290 C 318.824 104.464,317.916 102.996,317.363 102.026 C 316.324 100.205,310.698 93.418,305.742 88.006 C 301.846 83.752,293.189 77.581,286.889 74.567 C 277.185 69.925,265.310 66.279,254.097 64.499 C 240.548 62.349,238.347 62.047,233.516 61.675 C 230.822 61.468,228.522 61.240,228.406 61.168 C 227.178 60.410,192.360 59.711,178.855 60.172 M230.265 70.458 C 232.180 70.661,236.382 71.301,239.604 71.881 C 242.826 72.460,247.366 73.186,249.692 73.495 C 260.043 74.868,275.946 80.053,284.873 84.965 C 302.810 94.836,313.585 109.234,316.891 127.753 C 317.888 133.338,318.106 157.580,317.238 166.344 C 313.750 201.549,299.702 236.892,282.776 253.046 C 270.372 264.883,246.950 275.195,223.612 279.092 C 220.123 279.675,215.524 280.495,213.392 280.915 C 208.076 281.962,193.665 282.271,188.370 281.452 C 169.335 278.507,164.097 277.438,155.066 274.652 C 137.465 269.224,124.073 261.880,114.703 252.518 C 104.032 241.856,94.882 225.985,89.503 208.811 C 84.679 193.405,83.291 186.888,80.158 164.934 C 77.913 149.192,79.505 128.148,83.830 116.424 C 92.066 94.097,115.973 78.207,148.722 73.291 C 152.502 72.724,156.784 72.032,158.238 71.755 C 161.590 71.115,167.331 70.518,173.798 70.136 C 180.604 69.735,225.882 69.993,230.265 70.458 M185.022 86.578 C 174.801 88.395,172.409 95.760,178.827 105.654 C 186.407 117.339,188.823 136.934,184.298 150.016 C 175.077 176.672,149.322 191.163,121.410 185.400 C 114.029 183.876,110.161 185.072,107.912 189.574 C 105.689 194.022,106.127 197.622,110.010 206.816 C 116.378 221.896,119.946 223.611,130.015 216.427 C 140.613 208.866,154.357 202.277,164.758 199.769 C 167.084 199.209,170.652 198.333,172.687 197.824 C 180.255 195.931,180.587 195.900,195.595 195.706 C 214.078 195.468,215.831 195.624,227.740 198.569 C 245.116 202.865,256.711 208.131,267.125 216.454 C 276.413 223.877,281.009 221.973,287.006 208.218 C 292.455 195.718,292.387 189.572,286.762 186.275 C 283.528 184.380,282.433 184.351,273.128 185.911 C 238.878 191.655,209.069 165.115,210.771 130.396 C 211.131 123.074,213.664 114.961,218.246 106.460 C 224.152 95.505,223.404 90.566,215.347 87.314 C 213.476 86.558,188.536 85.953,185.022 86.578 M213.827 92.251 C 217.828 94.389,217.832 97.345,213.843 104.544 C 203.832 122.612,203.138 141.251,211.809 159.119 C 223.262 182.718,250.196 195.901,275.906 190.493 C 285.124 188.554,288.150 192.466,284.544 201.659 C 278.789 216.327,276.746 217.519,268.194 211.191 C 253.491 200.311,231.182 192.380,211.454 191.020 C 199.679 190.208,181.261 190.911,174.376 192.435 C 155.348 196.645,144.483 201.053,131.114 209.987 C 120.233 217.257,119.184 216.837,113.639 202.996 C 109.283 192.123,111.945 188.278,122.291 190.496 C 129.753 192.097,143.307 191.466,150.444 189.187 C 186.776 177.583,202.567 136.608,183.324 103.873 C 179.184 96.829,179.777 92.946,185.198 91.597 C 188.118 90.870,212.276 91.422,213.827 92.251 M127.910 103.259 C 103.524 107.131,94.267 139.147,112.556 156.358 C 135.075 177.550,171.928 155.918,164.035 126.140 C 159.783 110.096,144.764 100.583,127.910 103.259 M258.011 103.293 C 228.661 107.793,223.467 149.367,250.683 161.942 C 262.710 167.498,275.470 165.417,285.001 156.344 C 307.470 134.954,288.949 98.551,258.011 103.293 M140.371 108.410 C 156.426 112.008,164.791 130.327,157.302 145.487 C 145.170 170.048,107.976 161.498,107.747 134.097 C 107.601 116.590,122.948 104.505,140.371 108.410 M270.516 108.546 C 290.013 113.474,296.679 138.879,282.080 152.618 C 265.536 168.186,238.784 157.771,237.631 135.314 C 236.703 117.254,252.878 104.088,270.516 108.546 M131.038 124.588 C 125.288 126.431,122.347 133.575,125.343 138.421 C 130.788 147.228,144.168 143.248,143.351 133.064 C 142.852 126.851,136.855 122.724,131.038 124.588 M260.555 124.608 C 255.350 126.529,252.560 133.052,254.947 137.721 C 259.442 146.517,272.355 144.289,273.048 134.598 C 273.542 127.686,266.808 122.301,260.555 124.608 M266.008 129.911 C 270.840 133.037,266.583 140.221,261.510 137.501 C 258.780 136.037,258.364 132.675,260.646 130.523 C 262.356 128.910,264.145 128.706,266.008 129.911 M136.523 130.075 C 140.410 133.132,138.176 138.602,133.266 138.049 C 130.039 137.685,128.228 134.158,129.916 131.525 C 131.264 129.422,134.727 128.662,136.523 130.075 M193.746 206.902 C 185.817 208.771,179.372 217.428,179.388 226.185 C 179.432 248.946,211.986 253.070,217.614 231.027 C 221.281 216.663,208.242 203.484,193.746 206.902 M204.536 213.167 C 216.587 219.100,215.049 236.431,202.167 239.861 C 188.579 243.479,178.807 226.352,188.686 216.234 C 193.073 211.740,199.221 210.551,204.536 213.167 M142.169 216.975 C 131.987 219.981,130.430 235.686,139.808 240.790 C 148.088 245.297,158.550 239.751,159.212 230.506 C 159.878 221.198,151.200 214.308,142.169 216.975 M247.834 216.934 C 238.155 219.540,235.101 230.966,242.105 238.371 C 250.260 246.994,264.318 241.014,264.317 228.923 C 264.316 220.856,255.929 214.755,247.834 216.934 M147.841 222.768 C 152.780 224.117,154.704 229.555,151.665 233.572 C 149.827 236.001,145.921 236.866,143.158 235.456 C 136.118 231.863,140.242 220.692,147.841 222.768 M253.216 222.768 C 261.025 224.901,259.318 236.123,251.184 236.123 C 243.652 236.123,241.915 225.433,249.035 222.895 C 250.712 222.297,251.415 222.276,253.216 222.768 " stroke="none" fill="#3d414a" fill-rule="evenodd"></path></g></svg>
