<svg data-name="Layer 2" xmlns="http://www.w3.org/2000/svg" viewBox="0 0 165.81 141.43">
    <g data-name="Layer 1">
        <path d="M61.21.5c-46.8 4.6-66 26.9-60.2 69.7 1.5 11.2 4.4 20.5 9.7 30.8 3.7 7.1 6.4 10.8 13.2 17.5 9.7 9.7 18 15 29.2 18.5 42.3 13.4 85-4.3 103.8-43 5.2-10.8 7.8-21.4 8.6-35.4.6-11.1.5-12.3-2.1-20.7-6.7-21.2-22.4-31.9-53-36.4-10.1-1.4-38.5-2-49.2-1Zm38.3 4c20.2 1.7 33.7 5.4 44.7 12.4 8.9 5.7 13.1 12 16.3 24.6 2.1 8.3 1.4 25.2-1.6 36-6.2 22.3-22.3 42-42.3 51.9-10.7 5.2-17.9 7.1-30.2 7.8-42.7 2.4-75.6-24.6-81.4-67-4.8-35 7.9-55.4 39.3-62.7 15.2-3.6 34.4-4.6 55.2-3Z"/>
        <path d="M48.91 11.5c-1.4 2.7-.8 3.6 4.9 6.5 9.5 4.8 15.1 13.8 15.1 24.5 0 15.7-12.4 27.5-30.2 28.8-8.8.6-14.7-1.1-20.2-5.9-6.1-5.4-7.6-5.2-7.6.9 0 13 11.8 35.2 18.7 35.2 1.4 0 6.4-2.2 11.2-4.9 17.2-9.7 28.5-12.7 45.5-11.9 12.7.7 23.1 4 35.8 11.5 11.2 6.6 13.5 6.8 18.1 1 7.5-9.2 11.7-19.5 12-29.3.2-7.1-1.2-7.9-6.1-3.4-5.1 4.6-9 6.3-16.3 6.8-10.7.7-19.6-2.4-26.9-9.6-4.6-4.5-6.2-6.9-7.4-11.1-2-6.8-2-9.4 0-16.2 1.2-4.1 3-6.8 7.3-11.1 3.1-3.2 7.1-6.3 8.9-6.9 3.3-1.1 4.2-3.5 2-5.7-.9-.9-9.5-1.2-32.5-1.2-30.3 0-31.3.1-32.3 2Zm63.7 1.6c.2.6-1.5 1.9-3.7 2.8-9.2 3.7-17 15.9-17 26.6 0 11.8 8.3 23.6 19.7 28.1 7.1 2.7 19.5 3.7 25.9 1.9 2.4-.7 6.4-3 8.8-5.1l4.3-3.8-.4 4.7c-.8 7.7-4.1 16.3-9 23.5-2.5 3.7-5.5 7-6.7 7.3-1.4.3-4.8-1.1-10.6-4.5-27.5-16.4-54.5-16.6-83.3-.6-5.4 3-10.4 5.5-11.2 5.5-1.9 0-7.7-7.3-10.9-13.7-2.9-5.9-5.6-15.2-5.6-19.6v-3l4.4 4.1c5.5 5.1 10.7 6.5 21.1 6 14.2-.8 25.6-7.9 30.6-19.3 3.1-6.8 3.1-16.1 0-23.2-2.5-5.7-9.6-13-14.8-15.3-1.8-.8-3.3-2.1-3.3-2.8 0-1.7 61.1-1.3 61.7.4Z"/>
        <path d="M34.11 21.5c-8.6 2.1-16.2 11.7-16.2 20.5 0 5.6 4.5 14.4 8.9 17.3 10.3 6.8 21.4 4.9 29.5-5.1 2.6-3.2 3.1-4.8 3.4-10.6.4-7.4-1.4-12.6-6-16.7-5.1-4.7-13.3-7-19.6-5.4Zm13.1 3.6c4.5 2.3 6.6 4.4 8.8 8.6 5.2 10.3-.5 23.1-11.7 26.4-5.8 1.6-8.9 1.2-14.7-2-7.8-4.2-11.5-16.4-7.4-24.1 1.9-3.7 6.4-8.1 9.7-9.4 3.9-1.5 11.8-1.3 15.3.5Z"/>
        <path d="M35.41 33.4c-3.7 1.6-6 5.1-6 9.3 0 3.3.6 4.5 3.3 6.9 3.6 3.2 6.9 3.6 11.2 1.4 10.7-5.6 2.7-22.1-8.5-17.6Zm9.3 3.1c3 2.8 3.6 6.2 1.8 9.8-3.9 7.6-15.6 5-15.6-3.5 0-7 8.7-11 13.8-6.3ZM119.91 21.7c-5.6 1.2-12.7 6.9-14.8 11.7-1.8 4.3-1.9 13.9-.2 17.2s7 8.8 10 10.4c6.6 3.4 16.2 2.6 22.2-1.8 1.7-1.2 4.2-4.2 5.6-6.7 2.2-3.6 2.7-5.7 2.6-10.6-.1-3.3-.9-7.4-1.7-9-2.3-4.5-9-10.1-12.8-10.9-1.9-.3-4.1-.8-4.9-1-.8-.1-3.5.2-6 .7Zm11.6 2.9c4.6 1.4 9.5 7 10.9 12.7 2.1 8.1-.2 14.9-6.8 19.8-5.6 4.2-11.9 5.1-17.8 2.6-8.4-3.7-11.9-9-11.9-17.9.1-7.5 3.4-12.9 10-16.4 5.7-3 8-3.1 15.6-.8Z"/>
        <path d="M117.81 35.4c-7.3 7.3 0 19.3 9.7 16.1 4.2-1.4 6.4-4.4 6.4-8.8 0-6.4-3.4-10.1-9.3-10.2-2.9 0-4.5.7-6.8 2.9Zm12 .7c2.3 1.9 3.1 3.4 3.1 5.9 0 4.2-4.1 8.5-8.2 8.5-3.8 0-8.8-4.8-8.8-8.5 0-3.4 5-8.5 8.3-8.5 1.4 0 3.9 1.2 5.6 2.6ZM72.81 91.9c-6.9 4.7-9.1 15-4.6 21.7 2.4 3.7 9.7 7.9 13.7 7.9 1.4 0 4.6-1 7-2.3 5.9-2.9 9.3-9.2 8.7-15.6-1.2-11.6-15.2-18.2-24.8-11.7Zm15.9 2.6c9.1 5.5 7 19.6-3.4 23-7.5 2.5-16.4-4-16.4-11.9 0-10.4 11-16.5 19.8-11.1ZM44.91 101.3c-7.1 2.3-6.2 12.2 1.1 12.2 3 0 4.3-.9 5.8-3.8 2.2-4.1-2.5-9.9-6.9-8.4Zm3.8 6c.4 2.8-2.4 4-4.5 1.9s-.9-4.9 1.9-4.5c1.5.2 2.4 1.1 2.6 2.6ZM114.91 101.8c-3.2 1.6-4 7-1.4 9.8 3.6 4 10.4 1.2 10.4-4.2 0-3-.9-4.3-3.7-5.8-2.6-1.3-2.2-1.3-5.3.2Zm5.5 5.7c0 1.8-.6 2.6-2.3 2.8-2.4.4-3.8-1.8-2.8-4.4.3-.9 1.5-1.4 2.8-1.2 1.7.2 2.3 1 2.3 2.8Z"/>
    </g>
</svg>
